<svg width="18" height="18" viewBox="0 0 18 18" fill="none" xmlns="http://www.w3.org/2000/svg">
<mask id="mask0_3942_6430" style="mask-type:luminance" maskUnits="userSpaceOnUse" x="3" y="10" width="12" height="7">
<path fill-rule="evenodd" clip-rule="evenodd" d="M3 10.8721H14.8799V16.4026H3V10.8721Z" fill="white"/>
</mask>
<g mask="url(#mask0_3942_6430)">
<path fill-rule="evenodd" clip-rule="evenodd" d="M8.94075 11.9971C5.745 11.9971 4.125 12.5461 4.125 13.6298C4.125 14.7233 5.745 15.2776 8.94075 15.2776C12.1357 15.2776 13.755 14.7286 13.755 13.6448C13.755 12.5513 12.1357 11.9971 8.94075 11.9971ZM8.94075 16.4026C7.4715 16.4026 3 16.4026 3 13.6298C3 11.1578 6.39075 10.8721 8.94075 10.8721C10.41 10.8721 14.88 10.8721 14.88 13.6448C14.88 16.1168 11.49 16.4026 8.94075 16.4026Z" fill="#898D9E"/>
</g>
<mask id="mask1_3942_6430" style="mask-type:luminance" maskUnits="userSpaceOnUse" x="4" y="1" width="9" height="9">
<path fill-rule="evenodd" clip-rule="evenodd" d="M4.95703 1.5H12.9221V9.46395H4.95703V1.5Z" fill="white"/>
</mask>
<g mask="url(#mask1_3942_6430)">
<path fill-rule="evenodd" clip-rule="evenodd" d="M8.94031 2.57051C7.33456 2.57051 6.02806 3.87626 6.02806 5.48201C6.02281 7.08251 7.31956 8.38751 8.91856 8.39351L8.94031 8.92901V8.39351C10.5453 8.39351 11.8511 7.08701 11.8511 5.48201C11.8511 3.87626 10.5453 2.57051 8.94031 2.57051ZM8.9403 9.46376H8.91631C6.72481 9.45701 4.94955 7.66976 4.95705 5.47976C4.95705 3.28601 6.74355 1.49951 8.9403 1.49951C11.1363 1.49951 12.9221 3.28601 12.9221 5.48201C12.9221 7.67801 11.1363 9.46376 8.9403 9.46376Z" fill="#898D9E"/>
</g>
</svg>
