<svg width="28" height="28" viewBox="0 0 28 28" fill="none" xmlns="http://www.w3.org/2000/svg">
<path d="M13.8701 9.40194C13.5846 9.40194 13.3107 9.27812 13.1088 9.05772C12.9069 8.83732 12.7935 8.53839 12.7935 8.2267C12.7742 7.74062 12.8177 7.25399 12.9227 6.78115C13.0519 6.1861 13.0519 5.56633 12.9227 4.97128C12.8177 4.49844 12.7742 4.01181 12.7935 3.52573C12.7742 3.03965 12.8177 2.55302 12.9227 2.08018C13.0024 1.78613 13.0458 1.48181 13.0519 1.17524C13.0519 0.863549 13.1653 0.564622 13.3672 0.344221C13.5691 0.12382 13.8429 0 14.1285 0C14.414 0 14.6878 0.12382 14.8897 0.344221C15.0916 0.564622 15.2051 0.863549 15.2051 1.17524C15.2244 1.66132 15.1809 2.14795 15.0759 2.62079C15.0071 2.91645 14.9745 3.22074 14.979 3.52573C14.9737 3.82689 15.0063 4.12743 15.0759 4.41891C15.1799 4.89592 15.2234 5.38628 15.2051 5.87621C15.2244 6.3623 15.1809 6.84892 15.0759 7.32176C15.0071 7.61742 14.9745 7.92171 14.979 8.2267C14.979 8.38405 14.9502 8.53981 14.894 8.68474C14.8379 8.82968 14.7557 8.96084 14.6523 9.07044C14.5489 9.18005 14.4264 9.26587 14.292 9.32281C14.1576 9.37975 14.0142 9.40666 13.8701 9.40194Z" fill="#BA7943"/>
<path d="M18.2178 8.22687C17.9323 8.22687 17.6584 8.10305 17.4565 7.88265C17.2546 7.66225 17.1412 7.36332 17.1412 7.05163C17.1352 6.69475 17.1751 6.33871 17.2596 5.99391C17.2801 5.8262 17.2801 5.65627 17.2596 5.48856C17.2807 5.31695 17.2807 5.14305 17.2596 4.97145C17.1751 4.62665 17.1352 4.27061 17.1412 3.91373C17.1352 3.55685 17.1751 3.20081 17.2596 2.85601C17.2801 2.6883 17.2801 2.51837 17.2596 2.35066C17.2596 2.03896 17.3731 1.74004 17.575 1.51964C17.7769 1.29924 18.0507 1.17542 18.3362 1.17542C18.6217 1.17542 18.8956 1.29924 19.0975 1.51964C19.2994 1.74004 19.4128 2.03896 19.4128 2.35066C19.4188 2.70754 19.3789 3.06358 19.2944 3.40838C19.2739 3.57609 19.2739 3.74602 19.2944 3.91373C19.2733 4.08534 19.2733 4.25923 19.2944 4.43084C19.3798 4.77546 19.4197 5.13163 19.4128 5.48856C19.4188 5.84544 19.3789 6.20147 19.2944 6.54628C19.2733 6.71394 19.2733 6.88397 19.2944 7.05163C19.2944 7.36332 19.1809 7.66225 18.979 7.88265C18.7771 8.10305 18.5033 8.22687 18.2178 8.22687Z" fill="#BA7943"/>
<path d="M9.60946 8.22687C9.32394 8.22687 9.0501 8.10305 8.84821 7.88265C8.64631 7.66225 8.53288 7.36332 8.53288 7.05163C8.52689 6.69475 8.56675 6.33871 8.65131 5.99391C8.68975 5.82882 8.70786 5.65887 8.70514 5.48856C8.69793 5.31274 8.66895 5.13879 8.61901 4.97145C8.53446 4.62665 8.49459 4.27061 8.50059 3.91373C8.49459 3.55685 8.53446 3.20081 8.61901 2.85601C8.66839 2.69255 8.69736 2.52257 8.70514 2.35066C8.70514 2.03896 8.81856 1.74004 9.02046 1.51964C9.22236 1.29924 9.49619 1.17542 9.78171 1.17542C10.0672 1.17542 10.3411 1.29924 10.543 1.51964C10.7449 1.74004 10.8583 2.03896 10.8583 2.35066C10.8643 2.70754 10.8244 3.06358 10.7399 3.40838C10.7014 3.57347 10.6833 3.74342 10.686 3.91373C10.6827 4.08795 10.7009 4.26187 10.7399 4.43084C10.8253 4.77546 10.8652 5.13163 10.8583 5.48856C10.8643 5.84544 10.8244 6.20147 10.7399 6.54628C10.7008 6.71123 10.6827 6.88128 10.686 7.05163C10.686 7.36332 10.5726 7.66225 10.3707 7.88265C10.1688 8.10305 9.89499 8.22687 9.60946 8.22687Z" fill="#BA7943"/>
<path d="M20.459 11.9053V15.2782C20.459 15.5899 20.3455 15.8889 20.1436 16.1093C19.9417 16.3297 19.6679 16.4535 19.3824 16.4535C19.0969 16.4535 18.823 16.3297 18.6211 16.1093C18.4192 15.8889 18.3058 15.5899 18.3058 15.2782V11.1649C17.2482 10.8606 16.167 10.6638 15.0761 10.5773V16.4535C15.0761 16.7652 14.9627 17.0641 14.7608 17.2845C14.5589 17.5049 14.285 17.6287 13.9995 17.6287C13.714 17.6287 13.4401 17.5049 13.2382 17.2845C13.0363 17.0641 12.9229 16.7652 12.9229 16.4535V10.5773C11.8334 10.6484 10.7522 10.8294 9.69319 11.1179V15.2782C9.69319 15.5899 9.57977 15.8889 9.37787 16.1093C9.17597 16.3297 8.90214 16.4535 8.61661 16.4535C8.33109 16.4535 8.05726 16.3297 7.85536 16.1093C7.65346 15.8889 7.54004 15.5899 7.54004 15.2782V11.9053C3.16913 13.7622 0.00399172 17.3349 0.00399172 21.1545C-0.0198702 21.7191 0.0634451 22.2831 0.248709 22.8109C0.433972 23.3388 0.717184 23.8191 1.08057 24.2218C2.44782 25.6791 4.83783 25.9494 7.89531 25.9494C8.76733 25.9494 9.69319 25.9494 10.6621 25.9494C12.8153 25.9494 15.1945 25.9494 17.3154 25.9494C21.6863 26.067 25.1421 26.1375 26.8969 24.2689C27.2697 23.8627 27.56 23.3756 27.7492 22.8391C27.9384 22.3025 28.0221 21.7286 27.995 21.1545C27.995 17.3349 24.8299 13.7622 20.459 11.9053Z" fill="#E59A51"/>
</svg>
