<svg width="16" height="16" viewBox="0 0 16 16" fill="none" xmlns="http://www.w3.org/2000/svg">
<g clip-path="url(#clip0_3392_33973)">
<path d="M-0.00270844 4.6665C-0.00321579 4.57877 0.0136013 4.49179 0.0467777 4.41057C0.0799541 4.32934 0.128839 4.25546 0.190626 4.19317C0.252601 4.13068 0.326334 4.08109 0.407574 4.04724C0.488813 4.0134 0.57595 3.99597 0.663958 3.99597C0.751966 3.99597 0.839103 4.0134 0.920342 4.04724C1.00158 4.08109 1.07531 4.13068 1.13729 4.19317L6.58395 9.63984C6.95895 10.0144 7.46728 10.2247 7.99728 10.2247C8.52728 10.2247 9.03561 10.0144 9.41061 9.63984L14.8573 4.19317C14.9828 4.06763 15.1531 3.99711 15.3306 3.99711C15.5081 3.99711 15.6784 4.06763 15.8039 4.19317C15.9295 4.31871 16 4.48897 16 4.6665C16 4.84404 15.9295 5.0143 15.8039 5.13984L10.3573 10.5865C10.0476 10.8969 9.67981 11.1432 9.27484 11.3113C8.86987 11.4793 8.43573 11.5658 7.99728 11.5658C7.55883 11.5658 7.12469 11.4793 6.71973 11.3113C6.31476 11.1432 5.94692 10.8969 5.63729 10.5865L0.190626 5.13984C0.128839 5.07754 0.0799541 5.00367 0.0467777 4.92244C0.0136013 4.84122 -0.00321579 4.75424 -0.00270844 4.6665Z" fill="#D4D4D4"/>
</g>
<defs>
<clipPath id="clip0_3392_33973">
<rect width="16" height="16" fill="white" transform="matrix(0 1 -1 0 16 0)"/>
</clipPath>
</defs>
</svg>
