<svg width="26" height="26" viewBox="0 0 26 26" fill="none" xmlns="http://www.w3.org/2000/svg">
<path d="M13.0029 6.5C12.6582 6.5 12.3276 6.38586 12.0838 6.1827C11.8401 5.97953 11.7031 5.70398 11.7031 5.41667C11.7031 2.32917 13.3798 0 15.6024 0C15.9471 0 16.2777 0.114137 16.5215 0.317301C16.7653 0.520466 16.9022 0.796016 16.9022 1.08333C16.9022 1.37065 16.7653 1.6462 16.5215 1.84937C16.2777 2.05253 15.9471 2.16667 15.6024 2.16667C15.2775 2.16667 14.3027 3.315 14.3027 5.41667C14.3027 5.70398 14.1657 5.97953 13.922 6.1827C13.6782 6.38586 13.3476 6.5 13.0029 6.5Z" fill="#879D00"/>
<path d="M25.9999 8.66696C25.9932 7.78915 25.6667 6.93374 25.0638 6.21399C24.4608 5.49424 23.6098 4.94409 22.6234 4.63638C21.637 4.32866 20.5618 4.2779 19.54 4.4908C18.5183 4.7037 17.5982 5.17023 16.9016 5.82863C16.4137 5.36753 15.8136 4.99824 15.1413 4.74529C14.4691 4.49235 13.7399 4.36152 13.0023 4.36152C12.2646 4.36152 11.5355 4.49235 10.8632 4.74529C10.1909 4.99824 9.59085 5.36753 9.10296 5.82863C8.54414 5.29908 7.83871 4.89121 7.04789 4.64042C6.25707 4.38964 5.40476 4.30352 4.56494 4.38953C3.72513 4.47555 2.9232 4.7311 2.22876 5.13402C1.53431 5.53693 0.968347 6.07502 0.579986 6.70158C0.191626 7.32814 -0.00739131 8.02424 0.000209832 8.72944C0.00781097 9.43465 0.221801 10.1276 0.623604 10.7483C1.02541 11.3689 1.60288 11.8985 2.3059 12.2909C3.00891 12.6834 3.81623 12.9269 4.65776 13.0003C4.17788 13.6531 3.9175 14.4015 3.90389 15.167C3.89677 16.2416 4.36897 17.2801 5.22883 18.0808C6.08868 18.8816 7.27485 19.3875 8.55706 19.5003C8.07718 20.1531 7.8168 20.9015 7.80319 21.667C7.80319 22.8162 8.35095 23.9184 9.32596 24.7311C10.301 25.5437 11.6234 26.0003 13.0023 26.0003C14.3811 26.0003 15.7035 25.5437 16.6786 24.7311C17.6536 23.9184 18.2013 22.8162 18.2013 21.667C18.1877 20.9015 17.9273 20.1531 17.4475 19.5003C18.7297 19.3875 19.9158 18.8816 20.7757 18.0808C21.6355 17.2801 22.1077 16.2416 22.1006 15.167C22.087 14.4015 21.8266 13.6531 21.3468 13.0003C22.629 12.8875 23.8151 12.3816 24.675 11.5808C25.5348 10.7801 26.007 9.74158 25.9999 8.66696Z" fill="#6C65C2"/>
<path d="M25.9999 8.66696C25.9932 7.78915 25.6667 6.93374 25.0638 6.21399C24.4608 5.49424 23.6098 4.94409 22.6234 4.63638C21.637 4.32866 20.5618 4.2779 19.54 4.4908C18.5183 4.7037 17.5982 5.17023 16.9016 5.82863C16.4137 5.36753 15.8136 4.99824 15.1413 4.74529C14.4691 4.49235 13.7399 4.36152 13.0023 4.36152C12.2646 4.36152 11.5355 4.49235 10.8632 4.74529C10.1909 4.99824 9.59085 5.36753 9.10296 5.82863C8.54414 5.29908 7.83871 4.89121 7.04789 4.64042C6.25707 4.38964 5.40476 4.30352 4.56494 4.38953C3.72513 4.47555 2.9232 4.7311 2.22876 5.13402C1.53431 5.53693 0.968347 6.07502 0.579986 6.70158C0.191626 7.32814 -0.00739131 8.02424 0.000209832 8.72944C0.00781097 9.43465 0.221801 10.1276 0.623604 10.7483C1.02541 11.3689 1.60288 11.8985 2.3059 12.2909C3.00891 12.6834 3.81623 12.9269 4.65776 13.0003C4.17788 13.6531 3.9175 14.4015 3.90389 15.167C3.89677 16.2416 4.36897 17.2801 5.22883 18.0808C6.08868 18.8816 7.27485 19.3875 8.55706 19.5003C8.07718 20.1531 7.8168 20.9015 7.80319 21.667C7.80319 22.8162 8.35095 23.9184 9.32596 24.7311C10.301 25.5437 11.6234 26.0003 13.0023 26.0003C14.3811 26.0003 15.7035 25.5437 16.6786 24.7311C17.6536 23.9184 18.2013 22.8162 18.2013 21.667C18.1877 20.9015 17.9273 20.1531 17.4475 19.5003C18.7297 19.3875 19.9158 18.8816 20.7757 18.0808C21.6355 17.2801 22.1077 16.2416 22.1006 15.167C22.087 14.4015 21.8266 13.6531 21.3468 13.0003C22.629 12.8875 23.8151 12.3816 24.675 11.5808C25.5348 10.7801 26.007 9.74158 25.9999 8.66696ZM13.0023 6.50029C13.5164 6.50029 14.019 6.62737 14.4465 6.86544C14.874 7.10352 15.2072 7.44191 15.4039 7.83781C15.6007 8.23372 15.6521 8.66936 15.5518 9.08966C15.4515 9.50995 15.204 9.89601 14.8404 10.199C14.4769 10.502 14.0137 10.7084 13.5094 10.792C13.0051 10.8756 12.4825 10.8327 12.0075 10.6687C11.5325 10.5047 11.1265 10.227 10.8408 9.8707C10.5552 9.51439 10.4027 9.09549 10.4027 8.66696C10.4027 8.09233 10.6766 7.54123 11.1641 7.1349C11.6516 6.72857 12.3128 6.50029 13.0023 6.50029ZM2.60413 8.66696C2.60413 8.23844 2.75659 7.81953 3.04223 7.46323C3.32787 7.10692 3.73386 6.82921 4.20886 6.66522C4.68386 6.50123 5.20654 6.45832 5.7108 6.54193C6.21506 6.62553 6.67825 6.83188 7.04181 7.1349C7.40536 7.43791 7.65294 7.82397 7.75324 8.24427C7.85355 8.66456 7.80207 9.1002 7.60531 9.49611C7.40856 9.89201 7.07537 10.2304 6.64788 10.4685C6.22039 10.7066 5.7178 10.8336 5.20366 10.8336C4.51422 10.8336 3.85302 10.6054 3.36551 10.199C2.878 9.7927 2.60413 9.2416 2.60413 8.66696ZM6.50342 15.167C6.50342 14.7384 6.65588 14.3195 6.94152 13.9632C7.22717 13.6069 7.63316 13.3292 8.10816 13.1652C8.58316 13.0012 9.10584 12.9583 9.6101 13.0419C10.1144 13.1255 10.5776 13.3319 10.9411 13.6349C11.3047 13.9379 11.5522 14.324 11.6525 14.7443C11.7528 15.1646 11.7014 15.6002 11.5046 15.9961C11.3079 16.392 10.9747 16.7304 10.5472 16.9685C10.1197 17.2066 9.6171 17.3336 9.10296 17.3336C8.41352 17.3336 7.75232 17.1054 7.26481 16.699C6.7773 16.2927 6.50342 15.7416 6.50342 15.167ZM13.0023 23.8336C12.4881 23.8336 11.9855 23.7066 11.558 23.4685C11.1305 23.2304 10.7974 22.892 10.6006 22.4961C10.4038 22.1002 10.3524 21.6646 10.4527 21.2443C10.553 20.824 10.8006 20.4379 11.1641 20.1349C11.5277 19.8319 11.9909 19.6255 12.4951 19.5419C12.9994 19.4583 13.5221 19.5012 13.9971 19.6652C14.4721 19.8292 14.878 20.1069 15.1637 20.4632C15.4493 20.8195 15.6018 21.2384 15.6018 21.667C15.6018 22.2416 15.3279 22.7927 14.8404 23.199C14.3529 23.6054 13.6917 23.8336 13.0023 23.8336ZM16.9016 17.3336C16.3874 17.3336 15.8848 17.2066 15.4573 16.9685C15.0298 16.7304 14.6967 16.392 14.4999 15.9961C14.3031 15.6002 14.2517 15.1646 14.352 14.7443C14.4523 14.324 14.6999 13.9379 15.0634 13.6349C15.427 13.3319 15.8902 13.1255 16.3944 13.0419C16.8987 12.9583 17.4214 13.0012 17.8964 13.1652C18.3714 13.3292 18.7773 13.6069 19.063 13.9632C19.3486 14.3195 19.5011 14.7384 19.5011 15.167C19.5011 15.7416 19.2272 16.2927 18.7397 16.699C18.2522 17.1054 17.591 17.3336 16.9016 17.3336ZM20.8009 10.8336C20.2867 10.8336 19.7841 10.7066 19.3566 10.4685C18.9291 10.2304 18.596 9.89201 18.3992 9.49611C18.2024 9.1002 18.151 8.66456 18.2513 8.24427C18.3516 7.82397 18.5992 7.43791 18.9627 7.1349C19.3263 6.83188 19.7895 6.62553 20.2937 6.54193C20.798 6.45832 21.3206 6.50123 21.7957 6.66522C22.2707 6.82921 22.6766 7.10692 22.9623 7.46323C23.2479 7.81953 23.4004 8.23844 23.4004 8.66696C23.4004 9.2416 23.1265 9.7927 22.639 10.199C22.1515 10.6054 21.4903 10.8336 20.8009 10.8336Z" fill="#54539B"/>
</svg>
