<svg width="53" height="35" viewBox="0 0 53 35" fill="none" xmlns="http://www.w3.org/2000/svg">
<rect x="0.5" y="0.5" width="52" height="34" rx="7.5" fill="white"/>
<path d="M16.1013 12.908H17.8133V13.1C17.8133 13.8253 17.6586 14.4973 17.3493 15.116C17.0506 15.7347 16.5973 16.2627 15.9893 16.7C15.3813 17.1373 14.6026 17.4573 13.6533 17.66L12.7893 16.012C13.5573 15.8627 14.1813 15.644 14.6613 15.356C15.1519 15.0573 15.5146 14.7107 15.7493 14.316C15.9839 13.9213 16.1013 13.516 16.1013 13.1V12.908ZM16.5173 12.908H18.2293V13.1C18.2293 13.4947 18.3413 13.8733 18.5653 14.236C18.7999 14.588 19.1573 14.9027 19.6373 15.18C20.1173 15.4467 20.7253 15.6547 21.4613 15.804L20.6293 17.436C19.7013 17.2547 18.9333 16.956 18.3253 16.54C17.7173 16.124 17.2639 15.6227 16.9653 15.036C16.6666 14.4387 16.5173 13.7933 16.5173 13.1V12.908ZM13.1893 11.564H21.1253V13.196H13.1893V11.564ZM16.0853 10.124H18.2293V12.748H16.0853V10.124ZM16.0693 18.508H18.2133V24.476H16.0693V18.508ZM22.5493 10.092H24.6773V24.908H22.5493V10.092ZM12.5653 20.012L12.3253 18.268C13.2213 18.268 14.1973 18.2627 15.2533 18.252C16.3093 18.2307 17.3919 18.1933 18.5013 18.14C19.6106 18.076 20.6826 17.98 21.7173 17.852L21.8453 19.388C20.7786 19.5693 19.7013 19.708 18.6133 19.804C17.5253 19.8893 16.4639 19.948 15.4293 19.98C14.4053 20.0013 13.4506 20.012 12.5653 20.012ZM27.316 21.452H40.74V23.18H27.316V21.452ZM32.884 18.156H35.012V21.916H32.884V18.156ZM32.82 10.924H34.676V11.996C34.676 12.6253 34.5853 13.2333 34.404 13.82C34.2333 14.4067 33.972 14.9613 33.62 15.484C33.2787 16.0067 32.8573 16.4813 32.356 16.908C31.8547 17.324 31.2787 17.6813 30.628 17.98C29.988 18.2787 29.2787 18.4973 28.5 18.636L27.62 16.86C28.3027 16.7533 28.916 16.5827 29.46 16.348C30.004 16.1133 30.484 15.836 30.9 15.516C31.3267 15.1853 31.6787 14.828 31.956 14.444C32.244 14.0493 32.4573 13.644 32.596 13.228C32.7453 12.812 32.82 12.4013 32.82 11.996V10.924ZM33.22 10.924H35.092V11.996C35.092 12.412 35.1613 12.828 35.3 13.244C35.4493 13.66 35.6627 14.06 35.94 14.444C36.228 14.828 36.58 15.1853 36.996 15.516C37.412 15.836 37.892 16.1133 38.436 16.348C38.9907 16.5827 39.604 16.7533 40.276 16.86L39.396 18.636C38.6173 18.4867 37.908 18.268 37.268 17.98C36.628 17.6813 36.0573 17.324 35.556 16.908C35.0547 16.492 34.628 16.028 34.276 15.516C33.9347 14.9933 33.6733 14.4387 33.492 13.852C33.3107 13.2547 33.22 12.636 33.22 11.996V10.924Z" fill="#3F46D6"/>
<rect x="0.5" y="0.5" width="52" height="34" rx="7.5" stroke="#3F46D6"/>
</svg>
