<svg width="121" height="40" viewBox="0 0 121 40" fill="none" xmlns="http://www.w3.org/2000/svg">
<rect x="0.5" width="120" height="40" rx="8" fill="#585CE5"/>
<path d="M20.5 14C20.5 13.4477 20.9477 13 21.5 13H35.5C36.0523 13 36.5 13.4477 36.5 14V26C36.5 26.5523 36.0523 27 35.5 27H21.5C20.9477 27 20.5 26.5523 20.5 26V14Z" stroke="#FAFAFE" stroke-width="2" stroke-linecap="round" stroke-linejoin="round"/>
<path d="M21 23L26 18L31 23L33.5 21L36 23" stroke="#FAFAFE" stroke-width="2" stroke-linecap="round" stroke-linejoin="round"/>
<path d="M47.488 15.808H48.772V17.416C48.772 18.104 48.712 18.776 48.592 19.432C48.472 20.08 48.284 20.684 48.028 21.244C47.78 21.804 47.464 22.304 47.08 22.744C46.696 23.176 46.244 23.52 45.724 23.776L44.764 22.492C45.236 22.276 45.64 21.988 45.976 21.628C46.32 21.268 46.604 20.86 46.828 20.404C47.052 19.948 47.216 19.468 47.32 18.964C47.432 18.452 47.488 17.936 47.488 17.416V15.808ZM47.8 15.808H49.084V17.416C49.084 17.92 49.132 18.416 49.228 18.904C49.332 19.392 49.488 19.856 49.696 20.296C49.912 20.728 50.18 21.116 50.5 21.46C50.82 21.804 51.204 22.088 51.652 22.312L50.68 23.584C50.184 23.328 49.752 22.992 49.384 22.576C49.024 22.152 48.728 21.668 48.496 21.124C48.264 20.572 48.088 19.984 47.968 19.36C47.856 18.728 47.8 18.08 47.8 17.416V15.808ZM52.084 14.956H53.692V26.068H52.084V14.956ZM53.344 19.228H55.3V20.548H53.344V19.228ZM58.8631 16.192H60.1831V17.128C60.1831 17.824 60.0671 18.488 59.8351 19.12C59.6111 19.744 59.2671 20.292 58.8031 20.764C58.3391 21.228 57.7471 21.576 57.0271 21.808L56.2111 20.56C56.8351 20.36 57.3391 20.08 57.7231 19.72C58.1151 19.36 58.4031 18.956 58.5871 18.508C58.7711 18.052 58.8631 17.592 58.8631 17.128V16.192ZM59.1991 16.192H60.4951V17.128C60.4951 17.456 60.5471 17.784 60.6511 18.112C60.7551 18.432 60.9111 18.74 61.1191 19.036C61.3351 19.324 61.6071 19.584 61.9351 19.816C62.2631 20.048 62.6511 20.236 63.0991 20.38L62.2951 21.616C61.5991 21.392 61.0231 21.056 60.5671 20.608C60.1111 20.16 59.7671 19.636 59.5351 19.036C59.3111 18.428 59.1991 17.792 59.1991 17.128V16.192ZM56.6431 15.736H62.6911V17.008H56.6431V15.736ZM63.8071 14.956H65.4031V22.972H63.8071V14.956ZM57.9991 24.592H65.6911V25.876H57.9991V24.592ZM57.9991 22.252H59.5951V25.228H57.9991V22.252ZM76.2353 17.404H79.0193V18.688H76.2353V17.404ZM73.6793 15.412C74.2393 15.412 74.7393 15.528 75.1793 15.76C75.6273 15.984 75.9793 16.296 76.2353 16.696C76.4913 17.088 76.6193 17.544 76.6193 18.064C76.6193 18.576 76.4913 19.032 76.2353 19.432C75.9793 19.832 75.6273 20.148 75.1793 20.38C74.7393 20.604 74.2393 20.716 73.6793 20.716C73.1273 20.716 72.6273 20.604 72.1793 20.38C71.7393 20.148 71.3913 19.832 71.1353 19.432C70.8793 19.032 70.7513 18.576 70.7513 18.064C70.7513 17.544 70.8793 17.088 71.1353 16.696C71.3913 16.296 71.7393 15.984 72.1793 15.76C72.6273 15.528 73.1273 15.412 73.6793 15.412ZM73.6793 16.732C73.4073 16.732 73.1633 16.784 72.9473 16.888C72.7393 16.992 72.5753 17.144 72.4553 17.344C72.3353 17.544 72.2753 17.784 72.2753 18.064C72.2753 18.336 72.3353 18.572 72.4553 18.772C72.5753 18.972 72.7393 19.124 72.9473 19.228C73.1633 19.332 73.4073 19.384 73.6793 19.384C73.9513 19.384 74.1913 19.332 74.3993 19.228C74.6153 19.124 74.7833 18.972 74.9033 18.772C75.0233 18.572 75.0833 18.336 75.0833 18.064C75.0833 17.784 75.0233 17.544 74.9033 17.344C74.7833 17.144 74.6153 16.992 74.3993 16.888C74.1913 16.784 73.9513 16.732 73.6793 16.732ZM78.3113 14.956H79.9193V20.92H78.3113V14.956ZM72.5393 21.412H74.1233V22.456H78.3353V21.412H79.9193V25.948H72.5393V21.412ZM74.1233 23.68V24.676H78.3353V23.68H74.1233ZM81.8024 23.548H91.8704V24.844H81.8024V23.548ZM86.0264 21.436H87.6104V24.064H86.0264V21.436ZM82.9424 15.664H90.7304V19.372H84.5384V21.232H82.9544V18.124H89.1464V16.936H82.9424V15.664ZM82.9544 20.608H90.9824V21.88H82.9544V20.608ZM94.1614 20.08H101.973V21.34H94.1614V20.08ZM92.9854 23.428H103.053V24.724H92.9854V23.428ZM94.1614 15.856H101.889V17.152H95.7454V20.608H94.1614V15.856Z" fill="#FAFAFE"/>
</svg>
