<svg width="53" height="35" viewBox="0 0 53 35" fill="none" xmlns="http://www.w3.org/2000/svg">
<rect width="53" height="35" rx="8" fill="#585CE5"/>
<path d="M12.2933 16.876H25.6853V18.604H12.2933V16.876ZM13.9093 14.172H24.1653V15.852H13.9093V14.172ZM13.9093 10.492H24.0853V12.204H16.0213V15.004H13.9093V10.492ZM18.9333 19.468C20.5333 19.468 21.7919 19.708 22.7093 20.188C23.6266 20.6573 24.0853 21.3293 24.0853 22.204C24.0853 23.068 23.6266 23.7347 22.7093 24.204C21.7919 24.684 20.5333 24.924 18.9333 24.924C17.3333 24.924 16.0746 24.684 15.1573 24.204C14.2506 23.7347 13.7973 23.068 13.7973 22.204C13.7973 21.3293 14.2506 20.6573 15.1573 20.188C16.0746 19.708 17.3333 19.468 18.9333 19.468ZM18.9333 21.084C18.2719 21.084 17.7173 21.1267 17.2693 21.212C16.8319 21.2867 16.5013 21.4093 16.2773 21.58C16.0533 21.74 15.9413 21.948 15.9413 22.204C15.9413 22.4493 16.0533 22.6573 16.2773 22.828C16.5013 22.988 16.8319 23.1107 17.2693 23.196C17.7173 23.2707 18.2719 23.308 18.9333 23.308C19.5946 23.308 20.1439 23.2707 20.5813 23.196C21.0293 23.1107 21.3653 22.988 21.5893 22.828C21.8133 22.6573 21.9253 22.4493 21.9253 22.204C21.9253 21.948 21.8133 21.74 21.5893 21.58C21.3653 21.4093 21.0293 21.2867 20.5813 21.212C20.1439 21.1267 19.5946 21.084 18.9333 21.084ZM27.316 18.044H40.724V19.724H27.316V18.044ZM28.948 10.38H39.092V14.396H31.076V15.996H28.98V12.892H36.996V11.996H28.948V10.38ZM28.98 15.372H39.38V16.988H28.98V15.372ZM32.964 16.156H35.076V18.956H32.964V16.156ZM28.788 20.556H39.188V24.876H37.06V22.252H28.788V20.556Z" fill="white"/>
</svg>
