<svg width="76" height="28" viewBox="0 0 76 28" fill="none" xmlns="http://www.w3.org/2000/svg">
<path d="M0 9.6C0 6.23969 0 4.55953 0.653961 3.27606C1.2292 2.14708 2.14708 1.2292 3.27606 0.653961C4.55953 0 6.23969 0 9.6 0H66.4C69.7603 0 71.4405 0 72.7239 0.653961C73.8529 1.2292 74.7708 2.14708 75.346 3.27606C76 4.55953 76 6.23969 76 9.6V18.4C76 21.7603 76 23.4405 75.346 24.7239C74.7708 25.8529 73.8529 26.7708 72.7239 27.346C71.4405 28 69.7603 28 66.4 28H9.6C6.23968 28 4.55953 28 3.27606 27.346C2.14708 26.7708 1.2292 25.8529 0.653961 24.7239C0 23.4405 0 21.7603 0 18.4V9.6Z" fill="#3F46D6"/>
<g clip-path="url(#clip0_2026_29045)">
<path d="M62.166 7.33332H58.666C57.2659 7.33332 56.5658 7.33332 56.031 7.6058C55.5606 7.84549 55.1782 8.22794 54.9385 8.69834C54.666 9.23312 54.666 9.93319 54.666 11.3333V18.3333C54.666 19.7335 54.666 20.4335 54.9385 20.9683C55.1782 21.4387 55.5606 21.8212 56.031 22.0608C56.5658 22.3333 57.2659 22.3333 58.666 22.3333H65.666C67.0661 22.3333 67.7662 22.3333 68.301 22.0608C68.7714 21.8212 69.1538 21.4387 69.3935 20.9683C69.666 20.4335 69.666 19.7335 69.666 18.3333V14.8333M59.666 17.3333H61.0614C61.4691 17.3333 61.6729 17.3333 61.8647 17.2873C62.0348 17.2464 62.1974 17.1791 62.3465 17.0877C62.5147 16.9847 62.6588 16.8405 62.9471 16.5523L70.916 8.58332C71.6064 7.89296 71.6064 6.77368 70.916 6.08332C70.2257 5.39296 69.1064 5.39296 68.416 6.08332L60.447 14.0523C60.1588 14.3405 60.0147 14.4847 59.9116 14.6528C59.8202 14.802 59.7529 14.9645 59.712 15.1346C59.666 15.3264 59.666 15.5302 59.666 15.9379V17.3333Z" stroke="#FAFAFE" stroke-width="2" stroke-linecap="round" stroke-linejoin="round"/>
</g>
<path d="M11.5254 9.388H18.5574V10.648H11.5254V9.388ZM10.2894 12.856H20.3574V14.128H10.2894V12.856ZM17.5974 9.388H19.1694V10.144C19.1694 10.544 19.1574 11 19.1334 11.512C19.1094 12.016 19.0254 12.592 18.8814 13.24L17.3094 13.096C17.4534 12.464 17.5374 11.912 17.5614 11.44C17.5854 10.968 17.5974 10.536 17.5974 10.144V9.388ZM11.4054 14.884H19.1454V18.004H13.0134V19.132H11.4174V16.828H17.5494V16.108H11.4054V14.884ZM11.4174 18.748H19.4334V19.984H11.4174V18.748ZM23.4765 9.748H24.7005V10.996C24.7005 11.628 24.6165 12.244 24.4485 12.844C24.2805 13.436 24.0165 13.968 23.6565 14.44C23.2965 14.904 22.8205 15.264 22.2285 15.52L21.4125 14.344C21.9085 14.128 22.3085 13.84 22.6125 13.48C22.9165 13.12 23.1365 12.724 23.2725 12.292C23.4085 11.86 23.4765 11.428 23.4765 10.996V9.748ZM23.8605 9.748H25.0725V10.996C25.0725 11.316 25.1085 11.644 25.1805 11.98C25.2605 12.308 25.3805 12.628 25.5405 12.94C25.7005 13.244 25.9125 13.524 26.1765 13.78C26.4485 14.036 26.7765 14.248 27.1605 14.416L26.4885 15.688C26.0005 15.488 25.5885 15.224 25.2525 14.896C24.9165 14.56 24.6445 14.18 24.4365 13.756C24.2365 13.332 24.0885 12.884 23.9925 12.412C23.9045 11.94 23.8605 11.468 23.8605 10.996V9.748ZM27.8925 9.748H29.1045V10.996C29.1045 11.636 29.0205 12.268 28.8525 12.892C28.6845 13.508 28.4085 14.064 28.0245 14.56C27.6485 15.048 27.1365 15.424 26.4885 15.688L25.8165 14.416C26.3285 14.192 26.7365 13.896 27.0405 13.528C27.3445 13.152 27.5605 12.744 27.6885 12.304C27.8245 11.864 27.8925 11.428 27.8925 10.996V9.748ZM28.2885 9.748H29.5125V10.996C29.5125 11.444 29.5805 11.884 29.7165 12.316C29.8525 12.748 30.0725 13.14 30.3765 13.492C30.6805 13.844 31.0805 14.128 31.5765 14.344L30.7605 15.52C30.1685 15.272 29.6925 14.916 29.3325 14.452C28.9725 13.988 28.7085 13.46 28.5405 12.868C28.3725 12.268 28.2885 11.644 28.2885 10.996V9.748ZM21.4605 17.392H31.5285V18.7H21.4605V17.392ZM40.3115 8.944H41.9075V20.056H40.3115V8.944ZM37.0355 10.096H38.6075C38.6075 10.944 38.5235 11.756 38.3555 12.532C38.1955 13.3 37.9235 14.024 37.5395 14.704C37.1635 15.384 36.6435 16.016 35.9795 16.6C35.3235 17.176 34.5035 17.704 33.5195 18.184L32.6795 16.924C33.7515 16.404 34.6035 15.832 35.2355 15.208C35.8755 14.576 36.3355 13.864 36.6155 13.072C36.8955 12.272 37.0355 11.376 37.0355 10.384V10.096ZM33.2795 10.096H37.7795V11.368H33.2795V10.096Z" fill="#FAFAFE"/>
<defs>
<clipPath id="clip0_2026_29045">
<rect width="20" height="20" fill="white" transform="translate(53 4)"/>
</clipPath>
</defs>
</svg>
