<svg width="53" height="35" viewBox="0 0 53 35" fill="none" xmlns="http://www.w3.org/2000/svg">
<rect width="53" height="35" rx="8" fill="#585CE5"/>
<path d="M15.5733 11.612H17.3173V12.54C17.3173 13.4787 17.1626 14.364 16.8533 15.196C16.5546 16.028 16.0959 16.7587 15.4773 17.388C14.8693 18.0067 14.0959 18.4707 13.1573 18.78L12.0533 17.132C12.8746 16.8547 13.5413 16.476 14.0533 15.996C14.5759 15.516 14.9599 14.9773 15.2053 14.38C15.4506 13.772 15.5733 13.1587 15.5733 12.54V11.612ZM15.9893 11.612H17.7173V12.54C17.7173 13.116 17.8346 13.692 18.0693 14.268C18.3039 14.8333 18.6719 15.3453 19.1733 15.804C19.6853 16.252 20.3359 16.604 21.1253 16.86L20.0533 18.524C19.1253 18.2253 18.3626 17.772 17.7653 17.164C17.1679 16.556 16.7199 15.8573 16.4213 15.068C16.1333 14.268 15.9893 13.4253 15.9893 12.54V11.612ZM12.6133 10.972H20.6293V12.668H12.6133V10.972ZM21.7973 10.108H23.9253V19.02H21.7973V10.108ZM23.3493 13.676H25.8933V15.436H23.3493V13.676ZM14.0373 19.676H23.9253V24.924H21.7973V21.372H14.0373V19.676ZM30.756 10.876H32.516V12.188C32.516 13.18 32.3613 14.1133 32.052 14.988C31.7533 15.8627 31.2947 16.6253 30.676 17.276C30.0573 17.9267 29.2627 18.4173 28.292 18.748L27.172 17.036C28.0253 16.7693 28.7133 16.3853 29.236 15.884C29.7587 15.3827 30.1427 14.812 30.388 14.172C30.6333 13.532 30.756 12.8707 30.756 12.188V10.876ZM31.188 10.876H32.916V12.092C32.916 12.7427 33.028 13.372 33.252 13.98C33.476 14.5773 33.8333 15.1107 34.324 15.58C34.8147 16.0387 35.4493 16.396 36.228 16.652L35.124 18.316C34.2173 17.996 33.4707 17.532 32.884 16.924C32.308 16.316 31.8813 15.6013 31.604 14.78C31.3267 13.948 31.188 13.052 31.188 12.092V10.876ZM37.572 10.108H39.716V18.78H37.572V10.108ZM34.692 19.164C36.26 19.164 37.4973 19.42 38.404 19.932C39.3107 20.4333 39.764 21.132 39.764 22.028C39.764 22.9453 39.3107 23.6547 38.404 24.156C37.4973 24.668 36.26 24.924 34.692 24.924C33.124 24.924 31.8867 24.668 30.98 24.156C30.0733 23.6547 29.62 22.9453 29.62 22.028C29.62 21.132 30.0733 20.4333 30.98 19.932C31.8867 19.42 33.124 19.164 34.692 19.164ZM34.692 20.812C34.052 20.812 33.5133 20.8547 33.076 20.94C32.6387 21.0253 32.3027 21.164 32.068 21.356C31.844 21.5373 31.732 21.7613 31.732 22.028C31.732 22.3053 31.844 22.54 32.068 22.732C32.3027 22.9133 32.6387 23.052 33.076 23.148C33.5133 23.2333 34.052 23.276 34.692 23.276C35.332 23.276 35.8707 23.2333 36.308 23.148C36.7453 23.052 37.076 22.9133 37.3 22.732C37.524 22.54 37.636 22.3053 37.636 22.028C37.636 21.7613 37.524 21.5373 37.3 21.356C37.076 21.164 36.7453 21.0253 36.308 20.94C35.8707 20.8547 35.332 20.812 34.692 20.812ZM34.868 12.796H37.892V14.524H34.868V12.796Z" fill="white"/>
</svg>
