<svg width="23" height="26" viewBox="0 0 23 26" fill="none" xmlns="http://www.w3.org/2000/svg">
<path d="M17 2H14V1C14 0.734784 13.8946 0.48043 13.7071 0.292893C13.5196 0.105357 13.2652 0 13 0H9C8.73478 0 8.48043 0.105357 8.29289 0.292893C8.10536 0.48043 8 0.734784 8 1V2H5C4.73478 2 4.48043 2.10536 4.29289 2.29289C4.10536 2.48043 4 2.73478 4 3V7C4 7.26522 4.10536 7.51957 4.29289 7.70711C4.48043 7.89464 4.73478 8 5 8H17C17.2652 8 17.5196 7.89464 17.7071 7.70711C17.8946 7.51957 18 7.26522 18 7V3C18 2.73478 17.8946 2.48043 17.7071 2.29289C17.5196 2.10536 17.2652 2 17 2Z" fill="#FEDA00"/>
<path d="M20.4474 21L21.9974 7.11C22.0145 6.97042 22.002 6.82881 21.9606 6.6944C21.9192 6.56 21.85 6.43583 21.7574 6.33C21.6617 6.22388 21.5443 6.13951 21.4132 6.08259C21.2821 6.02566 21.1403 5.9975 20.9974 6H0.99741C0.856183 5.99893 0.71633 6.02778 0.587058 6.08466C0.457787 6.14154 0.342031 6.22515 0.24741 6.33C0.154812 6.43583 0.0855757 6.56 0.0442209 6.6944C0.00286609 6.82881 -0.00967701 6.97042 0.00741001 7.11L1.54741 21H20.4474Z" fill="#FF4B57"/>
<path d="M1.76562 23L1.99563 25.11C2.02281 25.3557 2.14006 25.5827 2.32473 25.747C2.5094 25.9114 2.74841 26.0015 2.99563 26H18.9956C19.2428 26.0015 19.4818 25.9114 19.6665 25.747C19.8512 25.5827 19.9684 25.3557 19.9956 25.11L20.2256 23H1.76562Z" fill="#FF4B57"/>
<path d="M11 19C13.2091 19 15 17.2091 15 15C15 12.7909 13.2091 11 11 11C8.79086 11 7 12.7909 7 15C7 17.2091 8.79086 19 11 19Z" fill="white"/>
</svg>
