<svg width="24" height="24" viewBox="0 0 24 24" fill="none" xmlns="http://www.w3.org/2000/svg">
<path d="M12 0C9.08262 0 6.28473 1.33703 4.22183 3.71695C2.15893 6.09687 1 9.32473 1 12.6904C1 12.9964 1.10536 13.2899 1.29289 13.5062C1.48043 13.7226 1.73478 13.8441 2 13.8441H22C22.2652 13.8441 22.5196 13.7226 22.7071 13.5062C22.8946 13.2899 23 12.9964 23 12.6904C23 9.32473 21.8411 6.09687 19.7782 3.71695C17.7153 1.33703 14.9174 0 12 0Z" fill="#FFF9CF"/>
<path d="M9 6.9221H8C7.73478 6.9221 7.48043 6.80055 7.29289 6.5842C7.10536 6.36784 7 6.0744 7 5.76842C7 5.46245 7.10536 5.16901 7.29289 4.95265C7.48043 4.73629 7.73478 4.61475 8 4.61475H9C9.26522 4.61475 9.51957 4.73629 9.70711 4.95265C9.89464 5.16901 10 5.46245 10 5.76842C10 6.0744 9.89464 6.36784 9.70711 6.5842C9.51957 6.80055 9.26522 6.9221 9 6.9221Z" fill="white"/>
<path d="M16 6.9221H15C14.7348 6.9221 14.4804 6.80055 14.2929 6.5842C14.1054 6.36784 14 6.0744 14 5.76842C14 5.46245 14.1054 5.16901 14.2929 4.95265C14.4804 4.73629 14.7348 4.61475 15 4.61475H16C16.2652 4.61475 16.5196 4.73629 16.7071 4.95265C16.8946 5.16901 17 5.46245 17 5.76842C17 6.0744 16.8946 6.36784 16.7071 6.5842C16.5196 6.80055 16.2652 6.9221 16 6.9221Z" fill="white"/>
<path d="M6 10.383H5C4.73478 10.383 4.48043 10.2615 4.29289 10.0451C4.10536 9.82878 4 9.53533 4 9.22936C4 8.92339 4.10536 8.62994 4.29289 8.41359C4.48043 8.19723 4.73478 8.07568 5 8.07568H6C6.26522 8.07568 6.51957 8.19723 6.70711 8.41359C6.89464 8.62994 7 8.92339 7 9.22936C7 9.53533 6.89464 9.82878 6.70711 10.0451C6.51957 10.2615 6.26522 10.383 6 10.383Z" fill="white"/>
<path d="M10 10.383H9C8.73478 10.383 8.48043 10.2615 8.29289 10.0451C8.10536 9.82878 8 9.53533 8 9.22936C8 8.92339 8.10536 8.62994 8.29289 8.41359C8.48043 8.19723 8.73478 8.07568 9 8.07568H10C10.2652 8.07568 10.5196 8.19723 10.7071 8.41359C10.8946 8.62994 11 8.92339 11 9.22936C11 9.53533 10.8946 9.82878 10.7071 10.0451C10.5196 10.2615 10.2652 10.383 10 10.383Z" fill="white"/>
<path d="M15 10.383H14C13.7348 10.383 13.4804 10.2615 13.2929 10.0451C13.1054 9.82878 13 9.53533 13 9.22936C13 8.92339 13.1054 8.62994 13.2929 8.41359C13.4804 8.19723 13.7348 8.07568 14 8.07568H15C15.2652 8.07568 15.5196 8.19723 15.7071 8.41359C15.8946 8.62994 16 8.92339 16 9.22936C16 9.53533 15.8946 9.82878 15.7071 10.0451C15.5196 10.2615 15.2652 10.383 15 10.383Z" fill="white"/>
<path d="M19 10.383H18C17.7348 10.383 17.4804 10.2615 17.2929 10.0451C17.1054 9.82878 17 9.53533 17 9.22936C17 8.92339 17.1054 8.62994 17.2929 8.41359C17.4804 8.19723 17.7348 8.07568 18 8.07568H19C19.2652 8.07568 19.5196 8.19723 19.7071 8.41359C19.8946 8.62994 20 8.92339 20 9.22936C20 9.53533 19.8946 9.82878 19.7071 10.0451C19.5196 10.2615 19.2652 10.383 19 10.383Z" fill="white"/>
<path d="M23.31 17.3053H15C14.7348 17.3053 14.4804 17.1837 14.2929 16.9673C14.1054 16.751 14 16.4575 14 16.1516C14 15.8456 14.1054 15.5522 14.2929 15.3358C14.4804 15.1194 14.7348 14.9979 15 14.9979H23.83C23.9424 14.2356 23.9993 13.4638 24 12.6905C24 12.3846 23.8946 12.0911 23.7071 11.8748C23.5196 11.6584 23.2652 11.5369 23 11.5369H1C0.734784 11.5369 0.48043 11.6584 0.292893 11.8748C0.105357 12.0911 0 12.3846 0 12.6905C0.00134202 15.3872 0.685325 18.0247 1.96795 20.2792C3.25057 22.5336 5.07598 24.3068 7.22 25.381H7C6.73478 25.381 6.48043 25.5025 6.29289 25.7189C6.10536 25.9353 6 26.2287 6 26.5347C6 26.8406 6.10536 27.1341 6.29289 27.3504C6.48043 27.5668 6.73478 27.6883 7 27.6883H17C17.2652 27.6883 17.5196 27.5668 17.7071 27.3504C17.8946 27.1341 18 26.8406 18 26.5347C18 26.2287 17.8946 25.9353 17.7071 25.7189C17.5196 25.5025 17.2652 25.381 17 25.381H16.78C18.2883 24.6198 19.6457 23.5107 20.7686 22.1219C21.8916 20.7331 22.7565 19.094 23.31 17.3053Z" fill="#F7A676"/>
</svg>
