<svg width="24" height="24" viewBox="0 0 24 24" fill="none" xmlns="http://www.w3.org/2000/svg">
<g id="Icon/General/Search">
<path id="Union" fill-rule="evenodd" clip-rule="evenodd" d="M4.07902 11.4319C4.07902 7.35186 7.46015 4.04437 11.631 4.04437C15.8018 4.04437 19.1829 7.35186 19.1829 11.4319C19.1829 15.5118 15.8018 18.8193 11.631 18.8193C7.46015 18.8193 4.07902 15.5118 4.07902 11.4319ZM11.631 2.40039C6.53198 2.40039 2.39844 6.44391 2.39844 11.4319C2.39844 16.4198 6.53198 20.4633 11.631 20.4633C13.7668 20.4633 15.7332 19.7539 17.2974 18.5628L20.1647 21.3604C20.4933 21.681 21.0254 21.6803 21.3531 21.3589C21.6808 21.0375 21.6801 20.517 21.3515 20.1964L18.5253 17.4389C19.9797 15.8428 20.8635 13.7383 20.8635 11.4319C20.8635 6.44391 16.73 2.40039 11.631 2.40039Z" fill="black"/>
</g>
</svg>
