<svg width="58" height="58" viewBox="0 0 58 58" fill="none" xmlns="http://www.w3.org/2000/svg">
<circle cx="29" cy="29" r="29" fill="#3F46D6" fill-opacity="0.5"/>
<path d="M19.5523 23.4897L15.1581 27.8839C14.7537 28.2883 14.7537 28.9441 15.1581 29.3486L19.5523 33.7427C19.9568 34.1472 20.6126 34.1472 21.017 33.7427L25.4112 29.3486C25.8157 28.9441 25.8157 28.2883 25.4112 27.8839L21.017 23.4897C20.6126 23.0852 19.9568 23.0852 19.5523 23.4897Z" stroke="white" stroke-width="2" stroke-linecap="round" stroke-linejoin="round"/>
<path d="M28.2906 32.228L23.8964 36.6221C23.492 37.0266 23.492 37.6824 23.8964 38.0869L28.2906 42.481C28.6951 42.8855 29.3508 42.8855 29.7553 42.481L34.1495 38.0869C34.5539 37.6824 34.5539 37.0266 34.1495 36.6221L29.7553 32.228C29.3508 31.8235 28.6951 31.8235 28.2906 32.228Z" stroke="white" stroke-width="2" stroke-linecap="round" stroke-linejoin="round"/>
<path d="M28.3394 14.7016L23.9453 19.0958C23.5408 19.5002 23.5408 20.156 23.9453 20.5605L28.3394 24.9546C28.7439 25.3591 29.3997 25.3591 29.8041 24.9546L34.1983 20.5605C34.6028 20.156 34.6028 19.5002 34.1983 19.0958L29.8041 14.7016C29.3997 14.2971 28.7439 14.2971 28.3394 14.7016Z" stroke="white" stroke-width="2" stroke-linecap="round" stroke-linejoin="round"/>
<path d="M36.9761 23.4409L32.582 27.835C32.1775 28.2395 32.1775 28.8953 32.582 29.2997L36.9761 33.6939C37.3806 34.0984 38.0364 34.0984 38.4409 33.6939L42.835 29.2997C43.2395 28.8953 43.2395 28.2395 42.835 27.835L38.4409 23.4409C38.0364 23.0364 37.3806 23.0364 36.9761 23.4409Z" stroke="white" stroke-width="2" stroke-linecap="round" stroke-linejoin="round"/>
</svg>
