<svg width="44" height="44" viewBox="0 0 44 44" fill="none" xmlns="http://www.w3.org/2000/svg">
<circle cx="22" cy="22" r="22" fill="white"/>
<path d="M11.5714 11.3146C11.5714 10.1291 12.0531 8.99217 12.9104 8.15391C13.7677 7.31565 14.9304 6.84473 16.1429 6.84473C17.3553 6.84473 18.518 7.31565 19.3753 8.15391C20.2327 8.99217 20.7143 10.1291 20.7143 11.3146C20.7143 12.5 20.2327 13.637 19.3753 14.4752C18.518 15.3135 17.3553 15.7844 16.1429 15.7844C14.9304 15.7844 13.7677 15.3135 12.9104 14.4752C12.0531 13.637 11.5714 12.5 11.5714 11.3146ZM27.0663 14.8547L27.1623 14.9262C28.1321 15.6291 29.3469 15.9284 30.5415 15.7587C31.7362 15.5891 32.8137 14.9643 33.539 14.0207C34.2643 13.0771 34.5783 11.8913 34.4127 10.7221C34.2471 9.55289 33.6153 8.4952 32.655 7.77984C31.6948 7.06449 30.4841 6.74956 29.2873 6.90377C28.0904 7.05798 27.0046 7.66881 26.2666 8.60297C25.5287 9.53713 25.1986 10.7188 25.3484 11.89C25.4983 13.0612 26.1158 14.127 27.0663 14.8547ZM19.0411 18.0193C19.3282 17.4878 19.722 17.0183 20.199 16.639C20.6759 16.2597 21.2262 15.9784 21.8169 15.8118C22.4076 15.6453 23.0266 15.5969 23.6368 15.6697C24.2471 15.7425 24.8361 15.9348 25.3685 16.2353C25.901 16.5358 26.366 16.9382 26.7358 17.4184C27.1055 17.8987 27.3724 18.4469 27.5204 19.0303C27.6685 19.6137 27.6946 20.2204 27.5973 20.8139C27.5001 21.4075 27.2814 21.9757 26.9543 22.4847C26.3251 23.4639 25.3322 24.1665 24.1843 24.445C23.0364 24.7235 21.8228 24.5561 20.7985 23.978C19.7741 23.4 19.0187 22.4563 18.6911 21.3451C18.3634 20.234 18.4888 19.0419 19.0411 18.0193ZM10.4286 18.0193H16.5314C16.1252 19.1537 16.0369 20.3737 16.2756 21.5527C16.5144 22.7317 17.0715 23.8267 17.8891 24.7241H17.2857C16.1073 24.7239 14.9576 25.0799 13.994 25.7432C13.0304 26.4065 12.3001 27.3448 11.9029 28.4296C11.1356 28.1282 10.4173 27.7194 9.77029 27.216C8.05143 25.8639 7 23.8659 7 21.3717C7 20.4826 7.36122 19.6299 8.00421 19.0012C8.64719 18.3725 9.51926 18.0193 10.4286 18.0193ZM28.7143 24.7241C29.8924 24.7241 31.0417 25.0801 32.0049 25.7434C32.9681 26.4067 33.6981 27.345 34.0949 28.4296C34.872 28.1189 35.592 27.7144 36.2297 27.216C37.9486 25.8639 39 23.8659 39 21.3717C39 20.4826 38.6388 19.6299 37.9958 19.0012C37.3528 18.3725 36.4807 18.0193 35.5714 18.0193H29.4686C29.72 18.7189 29.8571 19.472 29.8571 20.2543C29.8593 21.9039 29.2373 23.496 28.1109 24.7241H28.7143ZM31.8846 29.033C32.0514 29.4264 32.1429 29.8599 32.1429 30.3114C32.1429 32.8056 31.0937 34.8036 29.3726 36.1557C27.6789 37.4855 25.4069 38.1336 23 38.1336C20.5931 38.1336 18.3211 37.4855 16.6274 36.1557C14.9086 34.8036 13.8571 32.8056 13.8571 30.3114C13.8559 29.8708 13.9438 29.4344 14.1157 29.0271C14.2875 28.6198 14.54 28.2498 14.8587 27.9383C15.1773 27.6267 15.5557 27.3798 15.9722 27.2118C16.3887 27.0437 16.8351 26.9578 17.2857 26.959H28.7143C29.3934 26.9589 30.0572 27.1559 30.6216 27.5251C31.1861 27.8944 31.6256 28.4192 31.8846 29.033Z" fill="#3F46D6"/>
</svg>
