<svg width="58" height="58" viewBox="0 0 58 58" fill="none" xmlns="http://www.w3.org/2000/svg">
<ellipse cx="19.3967" cy="30.0019" rx="7.8967" ry="7.00188" fill="white"/>
<path d="M22.9263 27.8877C22.0835 27.8877 21.2753 28.2225 20.6793 28.8184C20.0834 29.4144 19.7486 30.2227 19.7486 31.0655C19.7486 31.9083 20.0834 32.7166 20.6793 33.3125C21.2753 33.9085 22.0835 34.2433 22.9263 34.2433C23.7691 34.2433 24.5774 33.9085 25.1734 33.3125C25.7693 32.7166 26.1041 31.9083 26.1041 31.0655C26.1041 30.2227 25.7693 29.4144 25.1734 28.8184C24.5774 28.2225 23.7691 27.8877 22.9263 27.8877ZM18.9613 35.0377C18.752 35.0369 18.5447 35.0773 18.3512 35.1568C18.1576 35.2363 17.9816 35.3532 17.8334 35.5008C17.6851 35.6484 17.5674 35.8238 17.4871 36.017C17.4067 36.2102 17.3653 36.4174 17.3652 36.6266C17.3652 37.97 18.027 38.9829 19.0614 39.6431C20.0799 40.2922 21.4527 40.5988 22.9263 40.5988C24.4 40.5988 25.7728 40.2922 26.7913 39.6431C27.8257 38.9837 28.4875 37.97 28.4875 36.6266C28.4875 36.2052 28.3201 35.801 28.0221 35.5031C27.7241 35.2051 27.32 35.0377 26.8986 35.0377H18.9613V35.0377Z" fill="#E35F47"/>
<ellipse cx="27.3967" cy="19.0019" rx="7.8967" ry="7.00188" fill="white"/>
<path d="M25.2896 17.6587C25.2896 17.066 25.5304 16.4976 25.9591 16.0784C26.3877 15.6593 26.9691 15.4238 27.5753 15.4238C28.1815 15.4238 28.7629 15.6593 29.1916 16.0784C29.6202 16.4976 29.8611 17.066 29.8611 17.6587C29.8611 18.2515 29.6202 18.8199 29.1916 19.2391C28.7629 19.6582 28.1815 19.8937 27.5753 19.8937C26.9691 19.8937 26.3877 19.6582 25.9591 19.2391C25.5304 18.8199 25.2896 18.2515 25.2896 17.6587ZM33.0371 19.4288L33.0851 19.4646C33.57 19.816 34.1774 19.9657 34.7747 19.8808C35.372 19.796 35.9108 19.4836 36.2734 19.0118C36.636 18.54 36.7931 17.9471 36.7103 17.3625C36.6275 16.7779 36.3115 16.2491 35.8314 15.8914C35.3513 15.5337 34.746 15.3762 34.1476 15.4533C33.5491 15.5305 33.0062 15.8359 32.6372 16.303C32.2683 16.77 32.1032 17.3608 32.1781 17.9465C32.253 18.5321 32.5618 19.065 33.0371 19.4288ZM29.0245 21.0111C29.168 20.7454 29.3649 20.5106 29.6034 20.321C29.8419 20.1313 30.117 19.9907 30.4124 19.9074C30.7077 19.8241 31.0172 19.7999 31.3223 19.8363C31.6275 19.8727 31.9219 19.9689 32.1882 20.1191C32.4544 20.2693 32.6869 20.4705 32.8718 20.7107C33.0567 20.9508 33.1901 21.2249 33.2641 21.5166C33.3381 21.8083 33.3512 22.1117 33.3026 22.4084C33.2539 22.7052 33.1446 22.9893 32.9811 23.2438C32.6664 23.7334 32.17 24.0847 31.5961 24.224C31.0221 24.3632 30.4153 24.2795 29.9031 23.9905C29.391 23.7015 29.0133 23.2296 28.8494 22.674C28.6856 22.1185 28.7483 21.5224 29.0245 21.0111ZM24.7182 21.0111H27.7696C27.5665 21.5783 27.5223 22.1883 27.6417 22.7778C27.7611 23.3673 28.0396 23.9148 28.4485 24.3635H28.1468C27.5575 24.3634 26.9827 24.5414 26.5009 24.8731C26.0191 25.2047 25.6539 25.6739 25.4553 26.2163C25.0717 26.0656 24.7125 25.8612 24.389 25.6095C23.5296 24.9334 23.0039 23.9344 23.0039 22.6873C23.0039 22.2428 23.1845 21.8164 23.506 21.5021C23.8275 21.1877 24.2635 21.0111 24.7182 21.0111ZM33.8611 24.3635C34.4501 24.3635 35.0248 24.5415 35.5064 24.8732C35.988 25.2048 36.3529 25.6739 36.5513 26.2163C36.9399 26.0609 37.2999 25.8587 37.6188 25.6095C38.4782 24.9334 39.0039 23.9344 39.0039 22.6873C39.0039 22.2428 38.8233 21.8164 38.5018 21.5021C38.1803 21.1877 37.7443 21.0111 37.2896 21.0111H34.2382C34.3639 21.3609 34.4325 21.7375 34.4325 22.1286C34.4335 22.9534 34.1225 23.7495 33.5593 24.3635H33.8611ZM35.4462 26.518C35.5296 26.7146 35.5753 26.9314 35.5753 27.1572C35.5753 28.4042 35.0508 29.4033 34.1902 30.0793C33.3433 30.7442 32.2073 31.0683 31.0039 31.0683C29.8005 31.0683 28.6645 30.7442 27.8176 30.0793C26.9582 29.4033 26.4325 28.4042 26.4325 27.1572C26.4319 26.9369 26.4758 26.7186 26.5617 26.515C26.6477 26.3114 26.7739 26.1264 26.9332 25.9706C27.0925 25.8148 27.2818 25.6914 27.49 25.6074C27.6983 25.5233 27.9215 25.4804 28.1468 25.481H33.8611C34.2006 25.4809 34.5325 25.5794 34.8147 25.764C35.0969 25.9487 35.3167 26.2111 35.4462 26.518Z" fill="#0500FF"/>
<ellipse cx="41.3967" cy="22.0019" rx="7.8967" ry="7.00188" fill="white"/>
<path d="M50.3662 28.624C50.6462 27.8917 50.7982 27.1078 50.7982 26.2464C50.7982 25.6261 50.7102 25.0317 50.5582 24.4804C50.0382 24.6096 49.4942 24.6786 48.9262 24.6786C47.763 24.6799 46.6165 24.3801 45.5835 23.8044C44.5504 23.2287 43.661 22.394 42.9902 21.3706C42.2727 23.2401 40.9191 24.7439 39.2062 25.5745C39.1742 25.7898 39.1742 26.0224 39.1742 26.2464C39.1742 27.0688 39.3247 27.8832 39.617 28.643C39.9092 29.4028 40.3376 30.0932 40.8777 30.6748C41.9684 31.8492 43.4477 32.5091 44.9902 32.5091C45.8302 32.5091 46.6382 32.3109 47.3662 31.9577C47.8222 32.8967 48.0302 33.3619 48.0142 33.3619C46.7022 33.8357 45.6862 34.0683 44.9902 34.0683C43.0542 34.0683 41.2062 33.2499 39.8462 31.7768C39.019 30.8888 38.4041 29.7981 38.0542 28.5981H36.9902V24.6786H37.8622C38.1264 23.2938 38.7338 22.0119 39.62 20.9688C40.5061 19.9258 41.638 19.1605 42.8955 18.7542C44.1529 18.3479 45.4891 18.3157 46.7621 18.6611C48.0352 19.0065 49.1977 19.7166 50.1262 20.7159C51.1344 21.7972 51.8221 23.1763 52.1022 24.6786H52.9902V28.5981H52.9422L50.0942 31.415L45.8542 30.8982V29.4596H49.7182L50.3662 28.624ZM42.8062 26.0482C43.0462 26.0482 43.2782 26.1516 43.4462 26.3411C43.6151 26.5244 43.7098 26.7721 43.7098 27.0303C43.7098 27.2885 43.6151 27.5362 43.4462 27.7194C43.2782 27.9003 43.0462 28.0037 42.8062 28.0037C42.3022 28.0037 41.8942 27.573 41.8942 27.0303C41.8942 26.4876 42.3022 26.0482 42.8062 26.0482ZM47.1662 26.0482C47.6702 26.0482 48.0702 26.4876 48.0702 27.0303C48.0702 27.573 47.6702 28.0037 47.1662 28.0037C46.6622 28.0037 46.2542 27.573 46.2542 27.0303C46.2542 26.7698 46.3503 26.52 46.5214 26.3359C46.6924 26.1517 46.9244 26.0482 47.1662 26.0482Z" fill="#117639"/>
<circle cx="29" cy="29" r="29" fill="#0500FF"/>
<path d="M25.8203 18.4883H19.606C19.034 18.4883 18.5703 18.9499 18.5703 19.5194V25.7061C18.5703 26.2755 19.034 26.7372 19.606 26.7372H25.8203C26.3923 26.7372 26.856 26.2755 26.856 25.7061V19.5194C26.856 18.9499 26.3923 18.4883 25.8203 18.4883Z" stroke="white" stroke-width="2" stroke-linecap="round" stroke-linejoin="round"/>
<path d="M25.8203 30.791H19.606C19.034 30.791 18.5703 31.2527 18.5703 31.8221V38.0088C18.5703 38.5783 19.034 39.0399 19.606 39.0399H25.8203C26.3923 39.0399 26.856 38.5783 26.856 38.0088V31.8221C26.856 31.2527 26.3923 30.791 25.8203 30.791Z" stroke="white" stroke-width="2" stroke-linecap="round" stroke-linejoin="round"/>
<path d="M38.248 18.4883H32.0338C31.4618 18.4883 30.998 18.9499 30.998 19.5194V25.7061C30.998 26.2755 31.4618 26.7372 32.0338 26.7372H38.248C38.8201 26.7372 39.2838 26.2755 39.2838 25.7061V19.5194C39.2838 18.9499 38.8201 18.4883 38.248 18.4883Z" stroke="white" stroke-width="2" stroke-linecap="round" stroke-linejoin="round"/>
<path d="M38.1758 30.7197H31.9615C31.3895 30.7197 30.9258 31.1814 30.9258 31.7508V37.9375C30.9258 38.507 31.3895 38.9686 31.9615 38.9686H38.1758C38.7478 38.9686 39.2115 38.507 39.2115 37.9375V31.7508C39.2115 31.1814 38.7478 30.7197 38.1758 30.7197Z" stroke="white" stroke-width="2" stroke-linecap="round" stroke-linejoin="round"/>
</svg>
