<svg width="44" height="44" viewBox="0 0 44 44" fill="none" xmlns="http://www.w3.org/2000/svg">
<circle cx="22" cy="22" r="22" fill="white"/>
<path d="M22.8546 9.77832C21.169 9.77832 19.5525 10.4479 18.3606 11.6398C17.1687 12.8317 16.4991 14.4483 16.4991 16.1339C16.4991 17.8195 17.1687 19.436 18.3606 20.6279C19.5525 21.8198 21.169 22.4894 22.8546 22.4894C24.5402 22.4894 26.1568 21.8198 27.3487 20.6279C28.5406 19.436 29.2102 17.8195 29.2102 16.1339C29.2102 14.4483 28.5406 12.8317 27.3487 11.6398C26.1568 10.4479 24.5402 9.77832 22.8546 9.77832ZM14.9245 24.0783C14.506 24.0766 14.0914 24.1576 13.7043 24.3165C13.3172 24.4755 12.9652 24.7092 12.6687 25.0045C12.3721 25.2997 12.1368 25.6506 11.9761 26.037C11.8154 26.4233 11.7326 26.8376 11.7324 27.2561C11.7324 29.9429 13.056 31.9687 15.1247 33.2891C17.1617 34.5872 19.9073 35.2005 22.8546 35.2005C25.802 35.2005 28.5476 34.5872 30.5846 33.2891C32.6533 31.9703 33.9769 29.9429 33.9769 27.2561C33.9769 26.4133 33.6421 25.605 33.0461 25.0091C32.4502 24.4131 31.6419 24.0783 30.7991 24.0783H14.9245V24.0783Z" fill="#E35F47"/>
</svg>
