<svg width="44" height="44" viewBox="0 0 44 44" fill="none" xmlns="http://www.w3.org/2000/svg">
<circle cx="22" cy="22" r="22" fill="white"/>
<path d="M33.7305 27.245C34.2905 25.7805 34.5945 24.2127 34.5945 22.4898C34.5945 21.2493 34.4185 20.0606 34.1145 18.9579C33.0745 19.2163 31.9865 19.3542 30.8505 19.3542C28.5241 19.3569 26.2311 18.7572 24.165 17.6058C22.0988 16.4544 20.32 14.785 18.9785 12.7383C17.5435 16.4773 14.8363 19.4848 11.4105 21.146C11.3465 21.5767 11.3465 22.0419 11.3465 22.4898C11.3465 24.1347 11.6474 25.7634 12.2319 27.2831C12.8165 28.8027 13.6733 30.1835 14.7534 31.3466C16.9349 33.6956 19.8935 35.0152 22.9785 35.0152C24.6585 35.0152 26.2745 34.6189 27.7305 33.9125C28.6425 35.7905 29.0585 36.7209 29.0265 36.7209C26.4025 37.6684 24.3705 38.1336 22.9785 38.1336C19.1065 38.1336 15.4105 36.4969 12.6905 33.5507C11.0361 31.7748 9.80631 29.5933 9.10652 27.1933H6.97852V19.3542H8.72252C9.2509 16.5847 10.4657 14.0208 12.238 11.9347C14.0103 9.84863 16.274 8.31808 18.789 7.50548C21.3039 6.69288 23.9762 6.62855 26.5223 7.31932C29.0684 8.01008 31.3934 9.43017 33.2505 11.4289C35.2669 13.5916 36.6422 16.3496 37.2025 19.3542H38.9785V27.1933H38.8825L33.1865 32.8271L24.7065 31.7934V28.9162H32.4345L33.7305 27.245ZM18.6105 22.0936C19.0905 22.0936 19.5545 22.3003 19.8905 22.6793C20.2282 23.0459 20.4177 23.5413 20.4177 24.0576C20.4177 24.574 20.2282 25.0694 19.8905 25.436C19.5545 25.7978 19.0905 26.0045 18.6105 26.0045C17.6025 26.0045 16.7865 25.1431 16.7865 24.0576C16.7865 22.9722 17.6025 22.0936 18.6105 22.0936ZM27.3305 22.0936C28.3385 22.0936 29.1385 22.9722 29.1385 24.0576C29.1385 25.1431 28.3385 26.0045 27.3305 26.0045C26.3225 26.0045 25.5065 25.1431 25.5065 24.0576C25.5065 23.5367 25.6987 23.0372 26.0408 22.6688C26.3828 22.3005 26.8468 22.0936 27.3305 22.0936Z" fill="#117639"/>
</svg>
