<svg width="20" height="20" viewBox="0 0 20 20" fill="none" xmlns="http://www.w3.org/2000/svg">
<path d="M10.9004 1.53373C10.5784 1.28324 10.4174 1.158 10.2396 1.10986C10.0827 1.06738 9.91732 1.06738 9.76043 1.10986C9.58263 1.158 9.4216 1.28324 9.09955 1.53373L2.88244 6.36926C2.46685 6.69249 2.25906 6.85411 2.10936 7.05651C1.97675 7.2358 1.87797 7.43778 1.81786 7.65252C1.75 7.89495 1.75 8.1582 1.75 8.68469V15.3167C1.75 16.3435 1.75 16.8569 1.94982 17.249C2.12559 17.594 2.40605 17.8745 2.75102 18.0502C3.14319 18.25 3.65657 18.25 4.68333 18.25H6.51667C6.77336 18.25 6.9017 18.25 6.99975 18.2001C7.08599 18.1562 7.1561 18.086 7.20004 17.9998C7.25 17.9018 7.25 17.7734 7.25 17.5167V11.4667C7.25 10.9533 7.25 10.6966 7.34991 10.5006C7.43779 10.3281 7.57803 10.1878 7.75051 10.1C7.94659 10 8.20329 10 8.71667 10H11.2833C11.7967 10 12.0534 10 12.2495 10.1C12.422 10.1878 12.5622 10.3281 12.6501 10.5006C12.75 10.6966 12.75 10.9533 12.75 11.4667V17.5167C12.75 17.7734 12.75 17.9018 12.8 17.9998C12.8439 18.086 12.914 18.1562 13.0003 18.2001C13.0983 18.25 13.2266 18.25 13.4833 18.25H15.3167C16.3434 18.25 16.8568 18.25 17.249 18.0502C17.5939 17.8745 17.8744 17.594 18.0502 17.249C18.25 16.8569 18.25 16.3435 18.25 15.3167V8.68469C18.25 8.1582 18.25 7.89495 18.1821 7.65252C18.122 7.43778 18.0232 7.2358 17.8906 7.05651C17.7409 6.85411 17.5331 6.69249 17.1176 6.36926L10.9004 1.53373Z" stroke="#DDDDDD" stroke-width="2" stroke-linecap="round" stroke-linejoin="round"/>
</svg>
