<svg xmlns="http://www.w3.org/2000/svg" width="33" height="35" viewBox="0 0 33 35" fill="none">
  <g clip-path="url(#clip0_3381_48727)">
    <path d="M26.4743 5.35229H7.10955C5.44527 5.35229 4.08594 6.32925 4.08594 7.5395V10.7736C4.08594 13.6736 4.18167 26.2878 4.21654 30.2028C4.22542 30.9403 4.93996 31.5583 5.9417 31.703C7.63262 31.9425 11.4063 32.6238 16.7916 32.6238C22.1776 32.6238 25.9512 31.9429 27.6415 31.703C28.6375 31.5644 29.3597 30.9365 29.3673 30.2028C29.4022 26.2816 29.4979 13.6674 29.4979 10.7736V7.5395C29.4979 6.32925 28.1386 5.35229 26.4743 5.35229Z" fill="#EA3B3B"/>
    <path d="M21.8454 5.76169C21.8454 5.76169 21.2704 13.4717 24.3555 16.97C27.0304 20.0023 17.375 33.7768 17.375 33.7768L25.07 33.3102C25.07 33.3102 28.8697 21.3135 25.6362 16.3587C22.9955 12.3119 27.0304 5.32654 27.0304 5.32654L21.8454 5.76169Z" fill="white"/>
    <path d="M11.5698 6.37976C11.5698 6.37976 8.66793 8.44127 8.66793 11.5745V30.1714L1.53906 29.1435L1.87002 5.32043L11.5698 6.37976Z" fill="#F25353"/>
    <path d="M25.4893 5.35228C27.7027 5.35228 29.4982 6.6506 29.4982 8.2522V10.7736C29.4982 13.6735 29.4025 26.2878 29.3676 30.2028C29.3587 30.9403 28.6442 31.5582 27.6418 31.703C25.9515 31.9424 22.1779 32.6237 16.7919 32.6237C11.4148 32.6237 7.63293 31.9429 5.94201 31.703C4.94597 31.5644 4.22383 30.9364 4.21685 30.2028C4.18198 26.2816 4.08625 13.6674 4.08625 10.7736V8.2522C4.08625 6.6506 5.88114 5.35228 8.09512 5.35228H25.4893V5.35228ZM25.4893 2.97559H8.09512C4.06849 2.97559 0.800781 5.34609 0.800781 8.2522V10.7736C0.800781 13.6797 0.896518 26.3887 0.931388 30.2156C0.949141 32.0691 2.78778 33.6764 5.31497 34.0359C5.50707 34.0611 5.73342 34.0987 5.98639 34.1368C7.99051 34.4391 11.7293 35.0004 16.8014 35.0004C21.8729 35.0004 25.6028 34.4391 27.6164 34.1368C27.8694 34.0992 28.0869 34.0678 28.2872 34.0359C30.8144 33.6764 32.6537 32.0753 32.6708 30.2156C32.7057 26.3887 32.8014 13.6735 32.8014 10.7736V8.2522C32.7837 5.34609 29.5071 2.97559 25.4893 2.97559Z" fill="#4C2F1B"/>
    <path d="M16.7897 6.20938C3.57813 6.20938 3.57812 4.38734 3.57812 3.70033C3.57812 3.01284 3.57813 1.19128 16.7897 1.19128C30.0013 1.19128 30.0013 3.01284 30.0013 3.70033C30.0013 4.38782 30.0013 6.20938 16.7897 6.20938Z" fill="#E4F1F7"/>
    <path d="M16.7907 2.37669C23.179 2.37669 28.3551 2.96943 28.3551 3.70072C28.3551 4.43201 23.179 5.02476 16.7907 5.02476C10.403 5.02476 5.22624 4.43201 5.22624 3.70072C5.22624 2.96943 10.403 2.37669 16.7907 2.37669ZM16.7907 0C13.5312 0 10.4461 0.14521 8.10213 0.416111C6.25461 0.624167 1.94141 1.12217 1.94141 3.70072C1.94141 6.27928 6.26349 6.77681 8.10276 6.98534C10.4467 7.25624 13.5407 7.40145 16.7913 7.40145C20.0419 7.40145 23.1359 7.25624 25.4798 6.98534C27.3274 6.77728 31.6412 6.27928 31.6412 3.70072C31.6412 1.12217 27.3185 0.624167 25.4798 0.416111C23.1353 0.14521 20.0501 0 16.7907 0Z" fill="#4C2F1B"/>
    <path d="M16.7915 33.8087C11.8937 33.8087 8.26017 33.2603 6.31691 32.9703C6.05506 32.9327 5.82872 32.8946 5.62837 32.8694C3.86771 32.6237 2.587 31.5016 2.57812 30.209V29.9823C2.57812 29.6167 2.81334 29.2696 3.21404 29.043C3.50188 28.8792 3.85884 28.7906 4.2253 28.7906C4.36478 28.7906 4.50426 28.8035 4.63487 28.8283C4.68749 28.8411 10.1166 29.8433 16.7744 29.8433C23.4328 29.8433 28.8967 28.8411 28.9576 28.8283C29.0971 28.803 29.2277 28.7906 29.3672 28.7906C29.7247 28.7906 30.0817 28.8787 30.3784 29.043C30.7791 29.2696 31.0143 29.6167 31.0143 29.9823V30.1966C31.0143 31.4892 29.7336 32.6109 27.9641 32.8632C27.7637 32.8884 27.5374 32.9261 27.2755 32.9641C25.3145 33.2665 21.6892 33.8087 16.7915 33.8087Z" fill="#E4F1F7"/>
    <path d="M4.21622 29.9886C4.21622 29.9886 9.79364 31.0412 16.7653 31.0412C23.7369 31.0412 29.3581 29.9886 29.3581 29.9886V30.2028C29.3581 30.9403 28.6347 31.5583 27.6323 31.703C25.942 31.9425 22.1683 32.6238 16.7824 32.6238C11.3971 32.6238 7.62341 31.943 5.93249 31.703C4.93646 31.5645 4.21431 30.9365 4.20734 30.2028V29.9886H4.21622ZM4.21622 27.6057C3.49281 27.6057 2.78715 27.7762 2.20322 28.1037C1.40119 28.5512 0.921875 29.2511 0.921875 29.9886V30.2028C0.938993 32.0753 2.77827 33.6765 5.30545 34.0359C5.49756 34.0612 5.7239 34.0988 5.97624 34.1368C7.981 34.4392 11.7198 35.0005 16.7913 35.0005C21.8634 35.0005 25.5933 34.4392 27.6063 34.1368C27.8593 34.0992 28.0774 34.0678 28.2777 34.0359C30.8138 33.6765 32.6613 32.0625 32.6613 30.2028V29.9886C32.6613 29.2511 32.1909 28.5574 31.3888 28.1099C30.8049 27.7823 30.0992 27.6119 29.3758 27.6119C29.0969 27.6119 28.8268 27.6371 28.5567 27.6876C28.5047 27.6938 23.2233 28.6646 16.7919 28.6646C10.3167 28.6646 5.11462 27.7 5.07087 27.6938C4.77415 27.6309 4.49518 27.6057 4.21622 27.6057Z" fill="#4C2F1B"/>
    <path d="M19.1641 3.7008C19.1641 3.896 20.6426 4.05359 22.4666 4.05359C24.2907 4.05359 25.7692 3.89552 25.7692 3.7008C25.7692 3.5056 24.2907 3.34753 22.4666 3.34753C20.6432 3.34753 19.1641 3.5056 19.1641 3.7008Z" fill="#BECFD3"/>
  </g>
  <defs>
    <clipPath id="clip0_3381_48727">
      <rect width="32" height="35" fill="white" transform="translate(0.800781)"/>
    </clipPath>
  </defs>
</svg>