<svg xmlns="http://www.w3.org/2000/svg" width="32" height="35" viewBox="0 0 32 35" fill="none">
  <g clip-path="url(#clip0_3381_48762)">
    <path d="M4.91704 34.4866L0.888809 32.7142C0.775868 32.6628 0.734095 32.5471 0.790823 32.4532L8.27537 20.7022C8.33674 20.6084 8.47598 20.5736 8.58944 20.6208L12.6172 22.3931C12.7306 22.4446 12.7719 22.5603 12.7151 22.6542L5.23111 34.4051C5.16923 34.4994 5.02999 34.538 4.91704 34.4866Z" fill="#ED9E48"/>
    <path d="M4.07314 35C3.4548 35 2.83182 34.8804 2.24958 34.6233C0.343502 33.784 -0.382622 31.8192 0.627144 30.2355L5.9787 21.832C6.98795 20.2479 9.35714 19.6444 11.2581 20.4836C12.1796 20.8861 12.8547 21.5667 13.1585 22.397C13.4674 23.2272 13.3642 24.105 12.8805 24.8714L7.52893 33.2748C6.8286 34.3751 5.47382 35 4.07314 35ZM3.55794 32.5775C3.82044 32.6932 4.11955 32.7142 4.40784 32.6418C4.69612 32.5689 4.92819 32.4107 5.06743 32.1926L10.4185 23.7887C10.5577 23.5705 10.5835 23.3219 10.4958 23.0823C10.4082 22.8427 10.2179 22.6503 9.95536 22.5345C9.40922 22.2949 8.73467 22.4702 8.44587 22.9199L3.08916 31.3229C2.80603 31.7725 3.0118 32.3374 3.55794 32.5775Z" fill="#4C2F1B"/>
    <path d="M10.5287 21.6246C16.5471 24.273 24.0095 22.3648 27.196 17.3624C30.3821 12.36 28.0862 6.15836 22.0678 3.50994C16.0494 0.861514 8.58705 2.76972 5.40046 7.7721C2.21387 12.7745 4.50983 18.9766 10.5287 21.6246Z" fill="#FFC2DB"/>
    <path d="M16.3109 2.31582C18.2583 2.31582 20.2309 2.70114 22.0694 3.51037C28.0903 6.16008 30.3827 12.363 27.1997 17.3633C24.9852 20.8351 20.71 22.817 16.2903 22.817C14.3435 22.817 12.3709 22.4317 10.5319 21.6224C4.51091 18.9727 2.21856 12.7698 5.40155 7.76954C7.61653 4.29817 11.8918 2.31582 16.3109 2.31582ZM16.3109 0C10.6917 0 5.56657 2.56442 2.93437 6.68685C-0.964934 12.8126 1.85292 20.4326 9.22349 23.6729C11.3972 24.6318 13.8438 25.1371 16.2903 25.1371C21.91 25.1371 27.0347 22.5727 29.6669 18.4502C33.5657 12.3245 30.7483 4.7045 23.3778 1.46373C21.204 0.505339 18.7575 0 16.3109 0Z" fill="#4C2F1B"/>
    <path d="M28.3174 21.6953L0.467303 9.43899C0.313105 9.37084 0.251219 9.21225 0.333218 9.0841L3.25886 4.49489C3.34137 4.36674 3.53219 4.3153 3.68639 4.38388L31.5364 16.6398C31.6912 16.7079 31.7525 16.8665 31.6705 16.9951L28.7449 21.5839C28.6624 21.7124 28.4721 21.7639 28.3174 21.6953Z" fill="#FF73AC"/>
    <path d="M27.1522 21.9691C26.3745 21.9691 25.6071 21.811 24.9011 21.5024L2.57281 11.678C0.213943 10.6421 -0.687524 8.20195 0.564112 6.24575C1.81059 4.28954 4.74655 3.53603 7.10026 4.57628L29.4286 14.401C30.5668 14.9017 31.4012 15.7452 31.7823 16.7726C32.1634 17.8 32.0396 18.8874 31.4373 19.8333C30.8349 20.7793 29.82 21.4728 28.5838 21.7895C28.1156 21.9096 27.6313 21.9691 27.1522 21.9691ZM4.83886 6.42534C4.10242 6.42534 3.39177 6.75494 3.02561 7.32886C2.49546 8.15909 2.88173 9.1912 3.87551 9.62753L26.2038 19.4519C26.6829 19.6619 27.2394 19.7043 27.7592 19.5719C28.2847 19.439 28.7123 19.1437 28.9696 18.7455C29.2223 18.3473 29.2739 17.8848 29.114 17.4485C28.9541 17.0122 28.5988 16.6569 28.1197 16.4468L5.7919 6.6225C5.48814 6.48963 5.16376 6.42534 4.83886 6.42534Z" fill="#4C2F1B"/>
    <path d="M26.798 11.8834C26.3705 11.8834 26.0048 11.6138 25.9636 11.2499C25.5928 7.88098 22.7084 6.48112 22.5846 6.42111C22.1829 6.23295 22.0436 5.80905 22.2654 5.47515C22.4918 5.14126 22.9967 5.02125 23.3984 5.20555C23.5531 5.27842 27.1739 6.99503 27.6272 11.1218C27.6685 11.5028 27.3286 11.841 26.8702 11.8795C26.849 11.8795 26.8238 11.8834 26.798 11.8834Z" fill="white"/>
    <path d="M20.0117 4.82877C20.0117 5.07651 20.1706 5.30539 20.4284 5.42969C20.6868 5.55356 21.005 5.55356 21.2628 5.42969C21.5212 5.30582 21.6801 5.07694 21.6801 4.82877C21.6801 4.58103 21.5212 4.35215 21.2628 4.22828C21.005 4.10441 20.6868 4.10441 20.4284 4.22828C20.1711 4.35215 20.0117 4.58103 20.0117 4.82877Z" fill="white"/>
  </g>
  <defs>
    <clipPath id="clip0_3381_48762">
      <rect width="32" height="35" fill="white"/>
    </clipPath>
  </defs>
</svg>