<svg width="24" height="24" viewBox="0 0 24 24" fill="none" xmlns="http://www.w3.org/2000/svg">
<path d="M19.7664 9.96596C19.7662 9.97323 19.7657 9.98825 19.7643 10.0116C19.7617 10.0584 19.7559 10.1383 19.7434 10.2562C19.7185 10.4922 19.6671 10.8785 19.5611 11.4531C19.3493 12.6021 18.9211 14.4961 18.0566 17.4363L18.0541 17.4442C18.0509 17.454 18.0458 17.4696 18.0389 17.4901C18.0251 17.5311 18.0041 17.5913 17.9768 17.6642C17.9216 17.8119 17.8438 18.0028 17.7507 18.1885C17.6541 18.3813 17.5584 18.5331 17.4765 18.6259C17.4707 18.6325 17.4652 18.6385 17.4603 18.6438H10.5277C10.4 18.6438 10.0851 18.5889 9.82233 18.4503C9.55799 18.3108 9.53516 18.1996 9.53516 18.1446V9.26134C9.55284 9.24975 9.57101 9.23774 9.58963 9.22532C9.85112 9.05085 10.2061 8.79208 10.5886 8.44972C11.3471 7.77068 12.2511 6.72922 12.7126 5.32905L12.734 5.26409L12.7382 5.23328C12.7449 5.2203 12.7635 5.18623 12.8057 5.13399C12.8788 5.04359 12.9893 4.94267 13.1286 4.86264C13.3886 4.71323 13.7471 4.63283 14.2072 4.84326L14.3558 4.91121H14.3913C14.404 4.93152 14.4201 4.96242 14.4371 5.00791C14.5621 5.34362 14.6664 6.30361 13.9356 8.61427L13.6268 9.59044H14.6507H19.3386H19.3696L19.3909 9.58868C19.3921 9.58865 19.3937 9.58862 19.3958 9.58861C19.4071 9.58851 19.4282 9.58882 19.4552 9.59126C19.5136 9.59653 19.5762 9.60955 19.6275 9.63193C19.674 9.65223 19.6969 9.67342 19.7116 9.69511C19.7246 9.71435 19.7665 9.78528 19.7665 9.96687V9.96693H20.5165M19.7664 9.96596L19.7665 9.96622C19.7665 9.96652 19.7665 9.96682 20.2227 9.9669L20.5165 9.96693M19.7664 9.96596L19.7665 9.96556L19.7665 9.96437L19.7665 9.9625L19.7666 9.96082C19.7666 9.96064 19.7665 9.96233 19.7664 9.96596ZM20.5165 9.96693C20.5165 9.96693 20.5165 11.7299 18.774 17.6553L20.5165 9.96693ZM17.4181 18.6823C17.4181 18.682 17.4206 18.68 17.4256 18.677C17.4206 18.6811 17.4181 18.6826 17.4181 18.6823ZM14.3638 4.877C14.3639 4.87685 14.3655 4.87799 14.3683 4.88085C14.3651 4.87859 14.3637 4.87715 14.3638 4.877Z" stroke="#898D9E" stroke-width="1.5"/>
<path fill-rule="evenodd" clip-rule="evenodd" d="M6.86058 8.8435H4.05348C3.47378 8.8435 3.46484 9.4129 3.46484 9.4129L4.46683 18.8373C4.46683 19.4345 5.0651 19.4345 5.0651 19.4345L7.07245 19.3937C7.57855 19.3937 7.57402 18.9987 7.57402 18.9987V9.55512C7.57402 8.83446 6.86058 8.8435 6.86058 8.8435Z" fill="#898D9E"/>
</svg>
