<svg width="32" height="32" viewBox="0 0 32 32" fill="none" xmlns="http://www.w3.org/2000/svg">
<path d="M16.375 3C14.6511 3 12.9978 3.68482 11.7788 4.90381C10.5598 6.12279 9.875 7.77609 9.875 9.5C9.875 11.2239 10.5598 12.8772 11.7788 14.0962C12.9978 15.3152 14.6511 16 16.375 16C18.0989 16 19.7522 15.3152 20.9712 14.0962C22.1902 12.8772 22.875 11.2239 22.875 9.5C22.875 7.77609 22.1902 6.12279 20.9712 4.90381C19.7522 3.68482 18.0989 3 16.375 3ZM8.26463 17.625C7.83666 17.6233 7.41257 17.7061 7.01667 17.8686C6.62076 18.0312 6.26084 18.2703 5.95755 18.5722C5.65425 18.8741 5.41354 19.233 5.24922 19.6281C5.0849 20.0233 5.00021 20.447 5 20.875C5 23.6229 6.35363 25.6948 8.46938 27.0451C10.5526 28.3728 13.3606 29 16.375 29C19.3894 29 22.1974 28.3728 24.2806 27.0451C26.3964 25.6964 27.75 23.6229 27.75 20.875C27.75 20.013 27.4076 19.1864 26.7981 18.5769C26.1886 17.9674 25.362 17.625 24.5 17.625H8.26463Z" fill="#E35F47"/>
<g clip-path="url(#clip0_3432_2698)">
<path fill-rule="evenodd" clip-rule="evenodd" d="M22.0615 24.2763C22.0615 24.4143 22.1734 24.5263 22.3115 24.5263H23.6865C23.8245 24.5263 23.9365 24.4143 23.9365 24.2762V23.1874C23.9365 23.0494 24.0484 22.9374 24.1865 22.9374H25.2753C25.4134 22.9374 25.5253 22.8255 25.5253 22.6874V21.3124C25.5253 21.1744 25.4134 21.0624 25.2753 21.0624H24.1865C24.0484 21.0624 23.9365 20.9505 23.9365 20.8124V19.7236C23.9365 19.5856 23.8245 19.4736 23.6865 19.4736H22.3115C22.1734 19.4736 22.0615 19.5856 22.0615 19.7236V20.8124C22.0615 20.9505 21.9495 21.0624 21.8115 21.0624H20.7227C20.5846 21.0624 20.4727 21.1744 20.4727 21.3124V22.6874C20.4727 22.8255 20.5846 22.9374 20.7227 22.9374H21.8115C21.9495 22.9374 22.0615 23.0494 22.0615 23.1874V24.2763ZM23.6404 23.9802C23.6404 24.1183 23.5285 24.2302 23.3904 24.2302H22.6075C22.4695 24.2302 22.3575 24.1183 22.3575 23.9802V22.8914C22.3575 22.7533 22.2456 22.6414 22.1075 22.6414H21.0187C20.8806 22.6414 20.7687 22.5295 20.7687 22.3914V21.6085C20.7687 21.4704 20.8806 21.3585 21.0187 21.3585H22.1075C22.2456 21.3585 22.3575 21.2466 22.3575 21.1085V20.0197C22.3575 19.8816 22.4695 19.7697 22.6075 19.7697H23.3904C23.5285 19.7697 23.6404 19.8816 23.6404 20.0197V21.1085C23.6404 21.2466 23.7523 21.3585 23.8904 21.3585H24.9792C25.1173 21.3585 25.2292 21.4704 25.2292 21.6085V22.3914C25.2292 22.5295 25.1173 22.6414 24.9792 22.6414H23.8904C23.7523 22.6414 23.6404 22.7533 23.6404 22.8914V23.9802Z" fill="#FAE9E9"/>
<path d="M23.6865 24.4013H22.3115V24.6513H23.6865V24.4013ZM23.8115 23.1874V24.2762H24.0615V23.1874H23.8115ZM25.2753 22.8124H24.1865V23.0624H25.2753V22.8124ZM25.4003 21.3124V22.6874H25.6503V21.3124H25.4003ZM24.1865 21.1874H25.2753V20.9374H24.1865V21.1874ZM23.8115 19.7236V20.8124H24.0615V19.7236H23.8115ZM22.3115 19.5986H23.6865V19.3486H22.3115V19.5986ZM22.1865 20.8124V19.7236H21.9365V20.8124H22.1865ZM20.7227 21.1874H21.8115V20.9374H20.7227V21.1874ZM20.5977 22.6874V21.3124H20.3477V22.6874H20.5977ZM21.8115 22.8124H20.7227V23.0624H21.8115V22.8124ZM22.1865 24.2763V23.1874H21.9365V24.2763H22.1865ZM22.6075 24.3552H23.3904V24.1052H22.6075V24.3552ZM22.2325 22.8914V23.9802H22.4825V22.8914H22.2325ZM21.0187 22.7664H22.1075V22.5164H21.0187V22.7664ZM20.6437 21.6085V22.3914H20.8937V21.6085H20.6437ZM22.1075 21.2335H21.0187V21.4835H22.1075V21.2335ZM22.2325 20.0197V21.1085H22.4825V20.0197H22.2325ZM23.3904 19.6447H22.6075V19.8947H23.3904V19.6447ZM23.7654 21.1085V20.0197H23.5154V21.1085H23.7654ZM24.9792 21.2335H23.8904V21.4835H24.9792V21.2335ZM25.3542 22.3914V21.6085H25.1042V22.3914H25.3542ZM23.8904 22.7664H24.9792V22.5164H23.8904V22.7664ZM23.7654 23.9802V22.8914H23.5154V23.9802H23.7654ZM23.8904 22.5164C23.6833 22.5164 23.5154 22.6843 23.5154 22.8914H23.7654C23.7654 22.8224 23.8214 22.7664 23.8904 22.7664V22.5164ZM25.1042 22.3914C25.1042 22.4604 25.0483 22.5164 24.9792 22.5164V22.7664C25.1863 22.7664 25.3542 22.5985 25.3542 22.3914H25.1042ZM24.9792 21.4835C25.0483 21.4835 25.1042 21.5395 25.1042 21.6085H25.3542C25.3542 21.4014 25.1863 21.2335 24.9792 21.2335V21.4835ZM23.5154 21.1085C23.5154 21.3156 23.6833 21.4835 23.8904 21.4835V21.2335C23.8214 21.2335 23.7654 21.1775 23.7654 21.1085H23.5154ZM23.3904 19.8947C23.4595 19.8947 23.5154 19.9506 23.5154 20.0197H23.7654C23.7654 19.8126 23.5975 19.6447 23.3904 19.6447V19.8947ZM22.4825 20.0197C22.4825 19.9506 22.5385 19.8947 22.6075 19.8947V19.6447C22.4004 19.6447 22.2325 19.8126 22.2325 20.0197H22.4825ZM22.1075 21.4835C22.3146 21.4835 22.4825 21.3156 22.4825 21.1085H22.2325C22.2325 21.1775 22.1766 21.2335 22.1075 21.2335V21.4835ZM20.8937 21.6085C20.8937 21.5395 20.9497 21.4835 21.0187 21.4835V21.2335C20.8116 21.2335 20.6437 21.4014 20.6437 21.6085H20.8937ZM21.0187 22.5164C20.9497 22.5164 20.8937 22.4604 20.8937 22.3914H20.6437C20.6437 22.5985 20.8116 22.7664 21.0187 22.7664V22.5164ZM22.4825 22.8914C22.4825 22.6843 22.3146 22.5164 22.1075 22.5164V22.7664C22.1766 22.7664 22.2325 22.8224 22.2325 22.8914H22.4825ZM23.3904 24.3552C23.5975 24.3552 23.7654 24.1873 23.7654 23.9802H23.5154C23.5154 24.0492 23.4595 24.1052 23.3904 24.1052V24.3552ZM22.6075 24.1052C22.5385 24.1052 22.4825 24.0492 22.4825 23.9802H22.2325C22.2325 24.1873 22.4004 24.3552 22.6075 24.3552V24.1052ZM21.8115 23.0624C21.8805 23.0624 21.9365 23.1184 21.9365 23.1874H22.1865C22.1865 22.9803 22.0186 22.8124 21.8115 22.8124V23.0624ZM20.3477 22.6874C20.3477 22.8946 20.5155 23.0624 20.7227 23.0624V22.8124C20.6536 22.8124 20.5977 22.7565 20.5977 22.6874H20.3477ZM20.7227 20.9374C20.5155 20.9374 20.3477 21.1053 20.3477 21.3124H20.5977C20.5977 21.2434 20.6536 21.1874 20.7227 21.1874V20.9374ZM21.9365 20.8124C21.9365 20.8815 21.8805 20.9374 21.8115 20.9374V21.1874C22.0186 21.1874 22.1865 21.0196 22.1865 20.8124H21.9365ZM22.3115 19.3486C22.1044 19.3486 21.9365 19.5165 21.9365 19.7236H22.1865C22.1865 19.6546 22.2424 19.5986 22.3115 19.5986V19.3486ZM24.0615 19.7236C24.0615 19.5165 23.8936 19.3486 23.6865 19.3486V19.5986C23.7555 19.5986 23.8115 19.6546 23.8115 19.7236H24.0615ZM24.1865 20.9374C24.1174 20.9374 24.0615 20.8815 24.0615 20.8124H23.8115C23.8115 21.0196 23.9794 21.1874 24.1865 21.1874V20.9374ZM25.6503 21.3124C25.6503 21.1053 25.4824 20.9374 25.2753 20.9374V21.1874C25.3443 21.1874 25.4003 21.2434 25.4003 21.3124H25.6503ZM25.2753 23.0624C25.4824 23.0624 25.6503 22.8946 25.6503 22.6874H25.4003C25.4003 22.7565 25.3443 22.8124 25.2753 22.8124V23.0624ZM24.0615 23.1874C24.0615 23.1184 24.1174 23.0624 24.1865 23.0624V22.8124C23.9794 22.8124 23.8115 22.9803 23.8115 23.1874H24.0615ZM22.3115 24.4013C22.2424 24.4013 22.1865 24.3453 22.1865 24.2763H21.9365C21.9365 24.4834 22.1044 24.6513 22.3115 24.6513V24.4013ZM23.6865 24.6513C23.8936 24.6513 24.0615 24.4834 24.0615 24.2762H23.8115C23.8115 24.3453 23.7555 24.4013 23.6865 24.4013V24.6513Z" fill="#FAE9E9"/>
<rect x="22" y="19.5" width="2" height="5" fill="white"/>
<rect x="20.5" y="23" width="2" height="5" transform="rotate(-90 20.5 23)" fill="white"/>
</g>
<defs>
<clipPath id="clip0_3432_2698">
<rect width="6" height="6" fill="white" transform="translate(20 19)"/>
</clipPath>
</defs>
</svg>
