<svg width="32" height="32" viewBox="0 0 32 32" fill="none" xmlns="http://www.w3.org/2000/svg">
<path d="M26.752 20.8639C27.312 19.3662 27.616 17.7627 27.616 16.0007C27.616 14.732 27.44 13.5162 27.136 12.3885C26.096 12.6528 25.008 12.7938 23.872 12.7938C21.5456 12.7965 19.2526 12.1832 17.1864 11.0057C15.1203 9.8281 13.3415 8.12074 12 6.02751C10.565 9.85145 7.8578 12.9273 4.432 14.6263C4.368 15.0668 4.368 15.5425 4.368 16.0007C4.368 17.6829 4.66887 19.3487 5.25343 20.9029C5.838 22.457 6.6948 23.8692 7.77493 25.0587C9.95636 27.4611 12.915 28.8107 16 28.8107C17.68 28.8107 19.296 28.4054 20.752 27.683C21.664 29.6036 22.08 30.5551 22.048 30.5551C19.424 31.5243 17.392 32 16 32C12.128 32 8.432 30.3261 5.712 27.313C4.0576 25.4966 2.82779 23.2656 2.128 20.811H0V12.7938H1.744C2.27239 9.9613 3.48719 7.3392 5.2595 5.20568C7.03182 3.07217 9.29553 1.50683 11.8104 0.67577C14.3254 -0.155294 16.9977 -0.221085 19.5438 0.485378C22.0899 1.19184 24.4149 2.64421 26.272 4.68836C28.2884 6.90017 29.6637 9.72093 30.224 12.7938H32V20.811H31.904L26.208 26.5729L17.728 25.5157V22.5731H25.456L26.752 20.8639ZM11.632 15.5954C12.112 15.5954 12.576 15.8068 12.912 16.1945C13.2497 16.5694 13.4391 17.0761 13.4391 17.6041C13.4391 18.1322 13.2497 18.6388 12.912 19.0138C12.576 19.3838 12.112 19.5952 11.632 19.5952C10.624 19.5952 9.808 18.7142 9.808 17.6041C9.808 16.494 10.624 15.5954 11.632 15.5954ZM20.352 15.5954C21.36 15.5954 22.16 16.494 22.16 17.6041C22.16 18.7142 21.36 19.5952 20.352 19.5952C19.344 19.5952 18.528 18.7142 18.528 17.6041C18.528 17.0714 18.7202 16.5604 19.0622 16.1837C19.4043 15.807 19.8682 15.5954 20.352 15.5954Z" fill="#117639"/>
</svg>
