<svg xmlns="http://www.w3.org/2000/svg" width="32" height="35" viewBox="0 0 32 35" fill="none">
  <g clip-path="url(#clip0_3381_48747)">
    <path d="M7.99941 10.3762C7.20645 10.3762 6.57031 9.79793 6.57031 9.08387L6.58136 2.57377C6.58136 2.23166 6.73211 1.90496 6.99992 1.66379C7.26774 1.42262 7.63054 1.28687 8.01045 1.28687L23.7929 1.30178C24.1722 1.30178 24.5356 1.43753 24.8034 1.6787C25.0712 1.91987 25.222 2.24707 25.222 2.58869L25.2109 9.10376C25.2109 9.81733 24.5687 10.3907 23.7818 10.3907C23.7758 10.3966 7.99941 10.3762 7.99941 10.3762Z" fill="white"/>
    <path d="M8.01147 2.57878L23.7878 2.59419L23.7768 9.1043L8.00043 9.08938L8.01147 2.57878ZM8.01147 0C7.2522 0 6.52661 0.271503 5.99042 0.753843C5.45423 1.23668 5.15328 1.89008 5.14776 2.57381L5.13672 9.07894C5.13672 10.5016 6.41506 11.6577 7.99491 11.6577L23.7718 11.6731H23.7773C24.5366 11.6731 25.2622 11.4016 25.7984 10.9193C26.334 10.4365 26.6355 9.78305 26.6416 9.09932L26.6526 2.59419C26.6526 1.17154 25.3743 0.0149177 23.7945 0.0149177L8.01147 0Z" fill="#4C2F1B"/>
    <path d="M6.03559 7.75171L1.42969 12.6532V33.7071H21.8064V12.6532L25.7199 7.75171H6.03559V7.75171Z" fill="white"/>
    <path d="M21.8058 34.9945H1.42909C0.636687 34.9945 0 34.4167 0 33.7076V12.6537C0 12.3469 0.117066 12.0555 0.340707 11.8193L4.94661 6.92281C5.2205 6.63142 5.61643 6.46533 6.04107 6.46533H25.7259C26.2615 6.46533 26.753 6.73683 26.9987 7.16398C27.2445 7.5961 27.1997 8.11424 26.8872 8.50608L23.2416 13.0659V33.7076C23.2416 34.0497 23.0908 34.3764 22.823 34.6176C22.5485 34.8642 22.1857 34.9945 21.8058 34.9945ZM2.86371 32.4207H20.3767V12.6537C20.3767 12.3822 20.4717 12.1206 20.6446 11.8999L22.9279 9.04461H6.69929L2.86371 13.1266V32.4207Z" fill="#4C2F1B"/>
    <path d="M26.0533 7.66174L21.8047 13.0809V33.7076H30.5637V12.8849L26.0533 7.66174Z" fill="#EFEFEF"/>
    <path d="M30.5676 35.0001H21.808C21.0156 35.0001 20.3789 34.4217 20.3789 33.7131V13.0809C20.3789 12.8144 20.4684 12.5533 20.6412 12.337L24.8898 6.91741C25.1521 6.58574 25.5707 6.37938 26.0285 6.3744C26.4862 6.35899 26.9103 6.54993 27.1897 6.87216L31.7001 12.0954C31.8956 12.3216 32.0016 12.5981 32.0016 12.8845V33.7072C31.9967 34.4217 31.355 35.0001 30.5676 35.0001ZM23.2376 32.4208H29.1329V13.3271L26.1124 9.82786L23.2371 13.4927V32.4208H23.2376Z" fill="#4C2F1B"/>
    <path d="M21.8064 13.1818H1.42969V23.6485H21.8064V13.1818Z" fill="#526FFF"/>
    <path d="M21.8058 24.935H1.42909C0.636687 24.935 0 24.3572 0 23.6481V13.1818C0 12.4677 0.642209 11.8949 1.42909 11.8949H21.8058C22.5988 11.8949 23.2349 12.4732 23.2349 13.1818V23.6486C23.2355 24.3621 22.5988 24.935 21.8058 24.935ZM2.86371 22.3612H20.3767V14.4682H2.86371V22.3612Z" fill="#4C2F1B"/>
    <path d="M8.44531 16.3638H10.2488L11.6392 19.0938L13.0015 16.3539H14.7879V20.4662H13.7326V17.4548H13.6487L12.0578 20.4662H11.1478L9.5845 17.4548H9.50057V20.4712H8.45083V16.3638H8.44531V16.3638Z" fill="white"/>
  </g>
  <defs>
    <clipPath id="clip0_3381_48747">
      <rect width="32" height="35" fill="white"/>
    </clipPath>
  </defs>
</svg>