<svg width="28" height="28" viewBox="0 0 28 28" fill="none" xmlns="http://www.w3.org/2000/svg">
<g clip-path="url(#clip0_4829_25162)">
<path d="M14 28C21.732 28 28 21.732 28 14C28 6.26801 21.732 0 14 0C6.26801 0 0 6.26801 0 14C0 21.732 6.26801 28 14 28Z" fill="#FAE300"/>
<path d="M14.0004 8.78662C10.1924 8.78662 7.11244 11.2338 7.11524 14.2438C7.11524 16.2038 8.42844 17.9174 10.3912 18.875C10.2456 19.4126 9.87044 20.835 9.79484 21.115C9.70244 21.4902 9.93204 21.4846 10.0748 21.395C10.2176 21.3054 11.962 20.1098 12.7264 19.589C13.149 19.6526 13.5759 19.6835 14.0032 19.6814C17.8112 19.6814 20.8912 17.2342 20.8884 14.227C20.8856 11.2198 17.8 8.78382 14.0004 8.78662Z" fill="#391B1B"/>
</g>
<defs>
<clipPath id="clip0_4829_25162">
<rect width="28" height="28" fill="white"/>
</clipPath>
</defs>
</svg>
