<svg width="20" height="18" viewBox="0 0 20 18" fill="none" xmlns="http://www.w3.org/2000/svg">
<path d="M3.08691 15.7499L17.1494 2.24994" stroke="#898D9E" stroke-width="1.2" stroke-linecap="round" stroke-linejoin="round"/>
<path d="M7.72266 14.2882C8.45977 14.5171 9.22784 14.6307 9.99966 14.6249C13.0747 14.6767 16.1932 12.5152 18.1177 10.3972C18.545 9.92274 18.545 9.20214 18.1177 8.72769C17.4205 7.96285 16.6481 7.27011 15.8122 6.65994" stroke="#898D9E" stroke-width="1.2" stroke-linecap="round" stroke-linejoin="round"/>
<path d="M11.8095 4.71143C11.2177 4.56417 10.6095 4.49309 9.99975 4.49993C6.9765 4.44968 3.84975 6.56393 1.884 8.72618C1.45664 9.20063 1.45664 9.92123 1.884 10.3957C2.48169 11.05 3.13405 11.6522 3.834 12.1957" stroke="#898D9E" stroke-width="1.2" stroke-linecap="round" stroke-linejoin="round"/>
<path d="M7.1875 9.56244C7.1873 8.81646 7.48355 8.10097 8.01104 7.57348C8.53853 7.04599 9.25402 6.74974 10 6.74994" stroke="#898D9E" stroke-width="1.2" stroke-linecap="round" stroke-linejoin="round"/>
<path d="M12.8125 9.56168V9.56168C12.8127 10.3077 12.5165 11.0233 11.989 11.5509C11.4615 12.0785 10.7461 12.3749 10 12.3749" stroke="#898D9E" stroke-width="1.2" stroke-linecap="round" stroke-linejoin="round"/>
</svg>
