<svg width="20" height="18" viewBox="0 0 20 18" fill="none" xmlns="http://www.w3.org/2000/svg">
<path fill-rule="evenodd" clip-rule="evenodd" d="M9.99975 3.93825C6.9765 3.88725 3.84975 6 1.884 8.16375C1.45664 8.6382 1.45664 9.3588 1.884 9.83325C3.807 11.9513 6.92475 14.1128 9.99975 14.061C13.0747 14.1128 16.1932 11.9513 18.1177 9.83325C18.5451 9.3588 18.5451 8.6382 18.1177 8.16375C16.1497 6 13.023 3.88725 9.99975 3.93825Z" stroke="#898D9E" stroke-width="1.2" stroke-linecap="round" stroke-linejoin="round"/>
<path fill-rule="evenodd" clip-rule="evenodd" d="M12.8125 9.00002C12.8121 10.5532 11.5527 11.812 9.9995 11.8118C8.4463 11.8115 7.18736 10.5522 7.1875 8.99902C7.18764 7.44581 8.4468 6.18677 10 6.18677C10.7461 6.18657 11.4617 6.48292 11.9892 7.01058C12.5167 7.53823 12.8129 8.25391 12.8125 9.00002V9.00002Z" stroke="#898D9E" stroke-width="1.2" stroke-linecap="round" stroke-linejoin="round"/>
</svg>
