<svg width="32" height="40" viewBox="0 0 32 40" fill="none" xmlns="http://www.w3.org/2000/svg">
<g clip-path="url(#clip0_1956_24808)">
<path d="M25.6774 6.11694H6.31268C4.64839 6.11694 3.28906 7.23347 3.28906 8.6166V12.3128C3.28906 15.627 3.3848 30.0433 3.41967 34.5175C3.42855 35.3604 4.14308 36.0666 5.14482 36.232C6.83574 36.5057 10.6094 37.2843 15.9947 37.2843C21.3807 37.2843 25.1543 36.5063 26.8446 36.232C27.8407 36.0737 28.5628 35.356 28.5704 34.5175C28.6053 30.0362 28.701 15.6199 28.701 12.3128V8.6166C28.701 7.23347 27.3417 6.11694 25.6774 6.11694Z" fill="#EA3B3B"/>
<path d="M21.0486 6.58484C21.0486 6.58484 20.4735 15.3962 23.5586 19.3944C26.2335 22.8598 16.5781 38.6021 16.5781 38.6021L24.2732 38.0689C24.2732 38.0689 28.0728 24.3583 24.8393 18.6957C22.1987 14.0708 26.2335 6.08752 26.2335 6.08752L21.0486 6.58484Z" fill="white"/>
<path d="M10.7729 7.2911C10.7729 7.2911 7.87105 9.64711 7.87105 13.2279V34.4816L0.742188 33.3068L1.07314 6.08044L10.7729 7.2911Z" fill="#F25353"/>
<path d="M24.6885 6.11697C26.9019 6.11697 28.6974 7.60077 28.6974 9.43117V12.3128C28.6974 15.627 28.6017 30.0433 28.5668 34.5175C28.5579 35.3604 27.8434 36.0666 26.841 36.232C25.1507 36.5057 21.3771 37.2844 15.9911 37.2844C10.614 37.2844 6.83214 36.5063 5.14123 36.232C4.14519 36.0737 3.42305 35.356 3.41607 34.5175C3.3812 30.0362 3.28547 15.6199 3.28547 12.3128V9.43117C3.28547 7.60077 5.08036 6.11697 7.29434 6.11697H24.6885ZM24.6885 3.40076H7.29434C3.26771 3.40076 0 6.1099 0 9.43117V12.3128C0 15.6341 0.0957363 30.1586 0.130607 34.5322C0.148359 36.6505 1.987 38.4874 4.51419 38.8982C4.70629 38.927 4.93264 38.97 5.18561 39.0136C7.18973 39.3591 10.9285 40.0006 16.0006 40.0006C21.0721 40.0006 24.802 39.3591 26.8157 39.0136C27.0686 38.9706 27.2861 38.9347 27.4864 38.8982C30.0136 38.4874 31.8529 36.6575 31.87 34.5322C31.9049 30.1586 32.0006 15.627 32.0006 12.3128V9.43117C31.9829 6.1099 28.7063 3.40076 24.6885 3.40076Z" fill="#4C2F1B"/>
<path d="M15.9929 7.09629C2.78125 7.09629 2.78125 5.01396 2.78125 4.22881C2.78125 3.44311 2.78125 1.36133 15.9929 1.36133C29.2045 1.36133 29.2045 3.44311 29.2045 4.22881C29.2045 5.01451 29.2045 7.09629 15.9929 7.09629Z" fill="#E4F1F7"/>
<path d="M15.9899 2.71622C22.3782 2.71622 27.5543 3.39364 27.5543 4.2294C27.5543 5.06516 22.3782 5.74258 15.9899 5.74258C9.60219 5.74258 4.42546 5.06516 4.42546 4.2294C4.42546 3.39364 9.60219 2.71622 15.9899 2.71622ZM15.9899 0C12.7304 0 9.6453 0.165955 7.30135 0.475556C5.45383 0.713334 1.14062 1.28248 1.14062 4.2294C1.14062 7.17632 5.4627 7.74492 7.30198 7.98324C9.64594 8.29284 12.7399 8.4588 15.9905 8.4588C19.2411 8.4588 22.3351 8.29284 24.6791 7.98324C26.5266 7.74546 30.8404 7.17632 30.8404 4.2294C30.8404 1.28248 26.5177 0.713334 24.6791 0.475556C22.3345 0.165955 19.2494 0 15.9899 0Z" fill="#4C2F1B"/>
<path d="M15.9946 38.6387C11.0968 38.6387 7.46329 38.0118 5.52004 37.6805C5.25819 37.6375 5.03184 37.594 4.8315 37.5651C3.07084 37.2844 1.79013 36.0019 1.78125 34.5246V34.2656C1.78125 33.8477 2.01647 33.4511 2.41717 33.1921C2.70501 33.0049 3.06196 32.9037 3.42842 32.9037C3.5679 32.9037 3.70739 32.9184 3.83799 32.9467C3.89062 32.9614 9.31969 34.1067 15.9775 34.1067C22.6359 34.1067 28.0998 32.9614 28.1607 32.9467C28.3002 32.9178 28.4308 32.9037 28.5703 32.9037C28.9279 32.9037 29.2848 33.0043 29.5815 33.1921C29.9822 33.4511 30.2174 33.8477 30.2174 34.2656V34.5105C30.2174 35.9877 28.9367 37.2697 27.1672 37.558C26.9669 37.5869 26.7405 37.6299 26.4787 37.6734C24.5177 38.0189 20.8924 38.6387 15.9946 38.6387Z" fill="#E4F1F7"/>
<path d="M3.41934 34.2726C3.41934 34.2726 8.99677 35.4756 15.9684 35.4756C22.94 35.4756 28.5612 34.2726 28.5612 34.2726V34.5175C28.5612 35.3603 27.8378 36.0665 26.8354 36.232C25.1451 36.5056 21.3715 37.2843 15.9855 37.2843C10.6002 37.2843 6.82654 36.5062 5.13562 36.232C4.13958 36.0736 3.41744 35.3559 3.41047 34.5175V34.2726H3.41934ZM3.41934 31.5493C2.69593 31.5493 1.99027 31.7441 1.40634 32.1185C0.604315 32.6299 0.125 33.4298 0.125 34.2726V34.5175C0.142118 36.6575 1.9814 38.4873 4.50858 38.8981C4.70069 38.927 4.92703 38.9699 5.17937 39.0135C7.18412 39.359 10.9229 40.0005 15.9944 40.0005C21.0665 40.0005 24.7964 39.359 26.8094 39.0135C27.0624 38.9705 27.2805 38.9346 27.4808 38.8981C30.0169 38.4873 31.8644 36.6428 31.8644 34.5175V34.2726C31.8644 33.4298 31.394 32.637 30.5919 32.1255C30.008 31.7512 29.3024 31.5564 28.579 31.5564C28.3 31.5564 28.0299 31.5852 27.7598 31.6429C27.7078 31.65 22.4265 32.7594 15.995 32.7594C9.51983 32.7594 4.31774 31.657 4.27399 31.65C3.97727 31.5782 3.69831 31.5493 3.41934 31.5493Z" fill="#4C2F1B"/>
<path d="M18.3594 4.22942C18.3594 4.4525 19.8379 4.6326 21.662 4.6326C23.486 4.6326 24.9645 4.45196 24.9645 4.22942C24.9645 4.00633 23.486 3.82568 21.662 3.82568C19.8385 3.82568 18.3594 4.00633 18.3594 4.22942Z" fill="#BECFD3"/>
</g>
<defs>
<clipPath id="clip0_1956_24808">
<rect width="32" height="40" fill="white"/>
</clipPath>
</defs>
</svg>
