<svg width="162" height="260" viewBox="0 0 162 260" fill="none" xmlns="http://www.w3.org/2000/svg">
<g clip-path="url(#clip0_4374_12229)">
<path d="M87.5252 259.991C118.834 259.991 144.214 256.409 144.214 251.99C144.214 247.571 118.834 243.99 87.5252 243.99C56.2166 243.99 30.8359 247.571 30.8359 251.99C30.8359 256.409 56.2166 259.991 87.5252 259.991Z" fill="#A1A3F6"/>
<path d="M81.136 231.47C81.136 231.47 77.5246 249.342 78.5247 250.008C79.4229 250.61 105.675 250.24 111.342 250.147C111.851 250.147 112.129 249.527 111.786 249.157C111.092 248.406 109.657 247.323 106.703 246.267C101.767 244.499 91.9608 242.804 91.2293 242.397C89.7199 241.554 93.8776 230.498 93.8776 230.498L81.136 231.461V231.47Z" fill="#F5DEDE"/>
<path d="M85.1264 237.323C84.9967 237.323 82.5151 242.323 83.3207 243.841C84.1263 245.36 86.0524 246.11 86.0524 246.11" stroke="#EEC1C1" stroke-linecap="round" stroke-linejoin="round"/>
<path d="M92.4046 234.748C92.988 232.933 93.5529 231.35 93.7751 230.757H90.5434L81.1261 231.47C81.1261 231.47 80.8112 233.035 80.3945 235.248L92.4046 234.748Z" fill="#EEC1C1"/>
<path d="M108.275 139.621L109.35 146.622C109.35 146.622 110.924 146.177 113.637 144.158C116.35 142.14 117.045 140.566 117.045 140.566L108.275 139.621Z" fill="#585CE5"/>
<path d="M62.9668 134.26C62.9668 134.26 33.9092 146.622 24.4548 154.27C20.8805 157.16 19.1119 163.308 27.3532 168.688C35.5945 174.068 61.9575 186.393 61.9575 186.393L73.0601 172.938C73.0601 172.938 60.1055 165.873 60.9482 165.54C61.7908 165.206 80.2921 160.326 80.2921 160.326L82.1441 162.845L77.9401 232.304L96.9415 231.97C96.9415 231.97 110.063 162.845 111.072 156.622C112.081 150.4 108.377 136.612 108.377 136.612L62.9668 134.26Z" fill="#0F2851"/>
<path d="M70.709 150.742L82.145 162.854L91.5623 157.974" stroke="#585CE5" stroke-linecap="round" stroke-linejoin="round"/>
<path d="M100.303 144.186L108.544 158.233" stroke="#585CE5" stroke-linecap="round" stroke-linejoin="round"/>
<path d="M64.8186 176.309L42.6133 159.326L77.1806 157.974" stroke="#585CE5" stroke-linecap="round" stroke-linejoin="round"/>
<path d="M84.9961 165.382L85.172 227.1" stroke="#585CE5" stroke-linecap="round" stroke-linejoin="round"/>
<path d="M63.8105 184.087L74.7465 188.754C74.7465 188.754 77.9227 208.098 78.1079 209.108C78.7005 212.349 80.9044 211.589 81.1544 209.256C81.9878 201.552 82.9878 192.356 83.6731 184.282C83.812 182.689 82.1267 181.874 81.4044 181.448C75.0799 177.661 71.2092 175.226 71.2092 175.226L63.8105 184.097V184.087Z" fill="#F5DEDE"/>
<path d="M82.4784 60.9396L80.8764 70.5236L75.0705 72.8756C75.0705 72.8756 74.7371 77.0796 80.1171 79.6076C85.4971 82.1355 94.2478 83.4782 97.6091 79.6076C100.97 75.7369 101.313 72.2089 101.313 72.2089L96.0997 69.2642L95.0904 58.9209L82.4784 60.9396Z" fill="#F5DEDE"/>
<path d="M95.3872 61.9211L95.0909 58.9209L82.4789 60.9396L81.627 66.0788C82.414 66.3288 83.1826 66.477 83.8956 66.5325C87.9052 66.8474 92.6833 64.9398 95.3872 61.9211Z" fill="#EEC1C1"/>
<path d="M70.6534 45.5217C70.6534 45.5217 69.2829 45.0125 68.681 45.5403C68.0791 46.0681 68.7551 49.1702 69.82 50.235C70.8849 51.2999 71.709 50.8369 71.709 50.8369L70.6534 45.5217Z" fill="#EEC1C1"/>
<path d="M53.0503 88.1821C53.0503 88.1821 39.2623 103.822 36.5676 109.202C33.873 114.582 32.5303 118.619 37.577 122.323C39.503 123.74 51.0316 124.842 51.0316 124.842L58.5136 106.507L62.3009 101.211L53.0503 88.1729V88.1821Z" fill="#EEC1C1"/>
<path d="M127.556 90.0342C127.556 90.0342 138.149 99.5349 140.511 103.239C142.872 106.943 147.826 112.99 141.52 118.379C136.575 122.592 124.361 122.166 124.361 122.166L118.305 101.479L115.527 98.7015L127.556 90.0434V90.0342Z" fill="#EEC1C1"/>
<path d="M69.2819 37.827C69.2819 37.827 70.7171 50.689 73.1432 56.1431C75.5693 61.5972 80.366 64.1159 83.894 64.3937C88.6629 64.7733 94.5337 62.0046 96.682 57.958C99.2099 53.1984 98.7932 41.855 98.0432 39.1882C97.1727 36.1046 90.0241 28.8912 90.0241 28.8912L80.4864 28.1318L68.8281 34.1878L69.2819 37.8177V37.827Z" fill="#F5DEDE"/>
<path d="M47.3281 89.3581L62.1255 102.137L59.4308 135.602C59.4308 135.602 67.1721 139.714 81.2102 141.325C98.8688 143.343 117.037 140.565 117.037 140.565L112.416 101.628L130.751 90.3582C130.751 90.3582 120.657 79.2555 111.916 74.7182C103.175 70.1808 101.156 70.0049 101.156 70.0049C101.156 70.0049 96.4427 77.0702 91.2294 77.7369C86.0161 78.4036 81.9417 78.3759 78.1081 75.6349C75.1634 73.5329 74.4041 70.6716 74.4041 70.6716C74.4041 70.6716 68.4685 71.0605 59.0141 78.4962C49.5598 85.9319 47.3281 89.3396 47.3281 89.3396V89.3581Z" fill="#58C6CD"/>
<path opacity="0.2" d="M115.092 124.203L60.2733 125.166L59.9492 129.259L116.074 132.398L115.092 124.203Z" fill="#585CE5"/>
<path d="M63.2455 93.9604L62.125 102.137" stroke="#99D7DB" stroke-linecap="round" stroke-linejoin="round"/>
<path d="M110.924 93.7754L112.415 101.637" stroke="#99D7DB" stroke-linecap="round" stroke-linejoin="round"/>
<path d="M83.2383 80.5889L86.5163 86.33L89.7295 80.7833" stroke="#99D7DB" stroke-linecap="round" stroke-linejoin="round"/>
<path d="M74.7187 76.5518C73.5798 78.1074 63.8105 91.1824 63.8105 91.1824" stroke="#99D7DB" stroke-linecap="round" stroke-linejoin="round"/>
<path d="M100.812 79.0981L110.23 91.312" stroke="#99D7DB" stroke-linecap="round" stroke-linejoin="round"/>
<path d="M98.0442 39.1878C98.0442 39.1878 98.3591 29.5205 97.3034 27.1777C96.3774 25.1313 93.3957 22.9552 88.3491 22.0107C85.1359 21.4088 74.5888 20.5754 69.8941 20.2698C66.4031 20.0476 62.0972 20.2513 62.2454 21.3254C62.3565 22.131 64.2918 23.446 64.2918 23.446C64.2918 23.446 60.9119 22.131 59.597 22.9922C58.134 23.9552 62.1713 25.4183 62.1713 25.4183C62.1713 25.4183 58.6988 25.3535 58.5414 26.4739C58.4025 27.4277 58.9118 28.2241 60.9119 29.3816C62.9121 30.5391 66.7179 31.465 66.7179 31.465C66.7179 31.465 56.4209 30.7057 57.032 32.5207C57.6432 34.3356 61.8009 36.4561 66.6438 37.2155C71.4868 37.9748 79.0058 36.3172 81.8579 35.2431C87.0805 33.2707 89.8029 30.0946 89.8029 30.0946C89.8029 30.0946 91.4234 32.854 92.905 34.7894C94.6458 37.058 98.0535 39.1786 98.0535 39.1786L98.0442 39.1878Z" fill="#EF8B8B"/>
<path d="M77.9134 45.54C77.9134 45.54 77.5245 53.2906 78.0616 53.5591C78.8209 53.9388 81.4692 53.0313 81.923 52.5776" stroke="#0F2851" stroke-linecap="round" stroke-linejoin="round"/>
<path d="M48.2069 106.174C51.772 106.174 120.527 101.461 123.388 100.961C126.249 100.461 127.092 101.97 127.425 103.656C127.759 105.341 128.435 122.833 128.268 124.509C128.101 126.185 113.471 125.685 91.7748 126.528C70.0788 127.37 50.9108 127.537 48.3828 127.537C45.8549 127.537 44.8548 121.314 45.0215 115.258C45.1881 109.202 43.1695 106.174 48.2161 106.174H48.2069Z" fill="white" stroke="#A1A3F6" stroke-miterlimit="10"/>
<path d="M83.9961 39.5493C83.9961 39.5493 84.811 39.1696 86.6074 39.1882C87.876 39.1974 88.6168 39.4752 88.6168 39.4752" stroke="#0F2851" stroke-linecap="round" stroke-linejoin="round"/>
<path d="M86.6738 45.1512L86.3867 42.7529" stroke="#0F2851" stroke-linecap="round" stroke-linejoin="round"/>
<path d="M72.8379 45.4663L73.449 48.1146" stroke="#0F2851" stroke-linecap="round" stroke-linejoin="round"/>
<path d="M72.4778 41.7715C72.4778 41.7715 71.3759 41.9289 70.0332 42.966" stroke="#0F2851" stroke-linecap="round" stroke-linejoin="round"/>
<path d="M94.4883 41.2251C94.4883 41.2251 98.7664 38.3545 101.072 38.7249C103.378 39.0953 102.665 41.901 102.054 44.6327C101.683 46.2902 101.452 47.5866 99.0256 48.1144C97.3403 48.4848 95.8495 45.6143 95.8495 45.6143L94.4883 41.2251Z" fill="#F5DEDE"/>
<path d="M97.0156 43.9475L101.016 41.9937" stroke="#EEC1C1" stroke-linecap="round" stroke-linejoin="round"/>
<path d="M80.8672 56.9671C80.8672 56.9671 82.6544 58.4765 84.8767 57.1153C86.1083 56.3652 86.2379 55.0688 86.2379 55.0688" stroke="#0F2851" stroke-linecap="round" stroke-linejoin="round"/>
<path d="M83.6445 47.0404C83.6445 47.0404 84.3853 46.2348 86.617 45.7718C88.4319 45.3922 90.3024 45.7533 90.3024 45.7533" stroke="#EEC1C1" stroke-linecap="round" stroke-linejoin="round"/>
<path d="M75.7927 48.0774C75.7927 48.0774 74.2463 47.7903 72.3851 48.6793C71.3665 49.1608 70.9961 49.596 70.9961 49.596" stroke="#EEC1C1" stroke-linecap="round" stroke-linejoin="round"/>
<path d="M42.1134 111.434C41.0392 112.378 41.4837 115.656 41.9282 116.545C42.3727 117.434 42.3727 118.055 42.5579 119.129C42.7431 120.203 42.8727 122.722 43.2524 123.546C43.632 124.37 43.632 127.074 45.4562 127.268C46.2711 127.351 52.5678 125.379 53.3364 125.185C54.5958 124.87 55.7347 122.916 53.4012 122.981C51.0677 123.046 47.9101 123.046 47.9101 123.046C47.9101 123.046 47.4656 122.101 48.1601 121.786C48.8546 121.471 54.5958 121.027 57.3089 119.703C58.0682 119.332 58.8183 118.443 57.809 117.814C57.5682 117.666 57.2441 117.314 57.2441 117.314C57.2441 117.314 58.3182 116.434 58.7535 116.054C59.1887 115.675 59.7628 114.665 57.809 114.415C55.8551 114.165 46.9656 114.665 46.9656 114.665C46.9656 114.665 52.8271 112.202 53.9013 111.702C54.9754 111.202 56.7348 109.813 53.4568 109.498C50.1788 109.184 46.9008 109.313 45.0673 109.813C43.2338 110.313 42.1041 111.452 42.1041 111.452L42.1134 111.434Z" fill="#F5DEDE"/>
<path d="M61.3464 120.324C61.0964 120.324 68.0321 115.277 68.0321 115.277" stroke="#585CE5" stroke-linecap="round" stroke-linejoin="round"/>
<path d="M61.8555 115.536L67.6522 119.194" stroke="#585CE5" stroke-linecap="round" stroke-linejoin="round"/>
<path d="M64.2539 113.258L65.2632 121.083" stroke="#585CE5" stroke-linecap="round" stroke-linejoin="round"/>
<path d="M74.9961 119.212C76.6351 117.953 80.5891 114.832 80.5891 114.712" stroke="#585CE5" stroke-linecap="round" stroke-linejoin="round"/>
<path d="M74.4043 114.962L81.1733 119.249" stroke="#585CE5" stroke-linecap="round" stroke-linejoin="round"/>
<path d="M77.7657 112.943L77.2656 121.064" stroke="#585CE5" stroke-linecap="round" stroke-linejoin="round"/>
<path d="M88.3203 118.453C90.0427 117.147 94.08 113.953 94.08 113.953" stroke="#585CE5" stroke-linecap="round" stroke-linejoin="round"/>
<path d="M87.4785 114.962L94.1271 118.62" stroke="#585CE5" stroke-linecap="round" stroke-linejoin="round"/>
<path d="M90.6367 112.526L90.933 120.092" stroke="#585CE5" stroke-linecap="round" stroke-linejoin="round"/>
<path d="M108.331 122.536C112.371 122.536 115.646 119.261 115.646 115.221C115.646 111.181 112.371 107.906 108.331 107.906C104.291 107.906 101.016 111.181 101.016 115.221C101.016 119.261 104.291 122.536 108.331 122.536Z" stroke="#585CE5" stroke-linecap="round" stroke-linejoin="round"/>
<path d="M104.305 113.703L107.749 118.157L115.778 108.536" stroke="#58C6CD" stroke-width="2" stroke-linecap="round" stroke-linejoin="round"/>
<path d="M130.029 106.137C128.223 104.878 126.325 105.887 123.343 106.008C120.565 106.128 118.296 106.554 118.046 107.434C117.796 108.313 118.426 108.739 119.935 108.86C121.445 108.98 127.001 109.915 127.001 109.915C127.001 109.915 119.306 112.064 118.046 112.184C116.787 112.305 116.407 113.064 116.787 113.823C117.167 114.582 123.936 114.323 123.936 114.323C123.936 114.323 119.111 115.286 118.593 115.833C117.88 116.592 118.509 117.472 120.278 117.601C121.38 117.675 125.204 117.194 127.427 117.305C128.779 117.37 128.482 118.314 128.482 118.314C128.482 118.314 124.065 121.009 124.278 122.222C124.399 122.944 126.13 122.768 127.769 121.972C128.899 121.416 134.325 119.24 134.075 116.712C133.825 114.184 131.677 107.258 130.038 106.119L130.029 106.137Z" fill="#F5DEDE"/>
<path opacity="0.52" d="M92.8301 53.4298C94.2518 53.4298 95.4044 52.2772 95.4044 50.8555C95.4044 49.4338 94.2518 48.2812 92.8301 48.2812C91.4084 48.2812 90.2559 49.4338 90.2559 50.8555C90.2559 52.2772 91.4084 53.4298 92.8301 53.4298Z" fill="#EF8B8B"/>
<path opacity="0.52" d="M73.1911 52.5132C72.7559 52.5132 72.3577 52.6428 72.0059 52.8465C72.3577 54.0874 72.7374 55.2263 73.1448 56.1431C73.293 56.4857 73.4597 56.8098 73.6263 57.1246C74.7005 56.9209 75.5154 55.9764 75.5154 54.8374C75.5154 53.5503 74.4783 52.5132 73.1911 52.5132Z" fill="#EF8B8B"/>
<path d="M86.8948 29.1318C86.8948 29.1318 83.0612 32.3635 78.1905 33.5488C70.4307 35.4378 65.5137 33.9285 65.5137 33.9285" stroke="#EEC1C1" stroke-linecap="round" stroke-linejoin="round"/>
<path d="M71.8848 72.8384C71.8848 72.8384 73.3015 76.7275 79.2649 79.274C86.0802 82.1724 94.2104 80.3482 97.6829 77.9499" stroke="#99D7DB" stroke-linecap="round" stroke-linejoin="round"/>
<path d="M48.041 117.99L57.2546 117.295" stroke="#EEC1C1" stroke-linecap="round" stroke-linejoin="round"/>
<path d="M122.332 114.462L127.379 113.573" stroke="#EEC1C1" stroke-linecap="round" stroke-linejoin="round"/>
<path d="M75.6621 180.809C75.6621 180.809 79.4494 182.448 79.8291 183.207C80.2087 183.967 80.5884 184.596 80.5884 184.596" stroke="#EEC1C1" stroke-linecap="round" stroke-linejoin="round"/>
<path d="M66.6904 185.319L72.7001 176.142C71.7278 175.54 71.2092 175.216 71.2092 175.216L63.8105 184.087L66.6996 185.319H66.6904Z" fill="#EEC1C1"/>
<path d="M0.925781 53.2354L7.42624 58.1617C8.29668 58.8192 9.55603 58.3839 9.82456 57.3283L14.6768 38.4844" stroke="#58C6CD" stroke-width="2" stroke-linecap="round" stroke-linejoin="round"/>
<path d="M141.557 76.9779L143.483 84.784C143.705 85.7007 144.788 86.0897 145.548 85.5341L160.604 74.5796" stroke="#EF8B8B" stroke-width="2" stroke-linecap="round" stroke-linejoin="round"/>
<path d="M16.1121 107.97C19.3809 103.757 18.7049 97.766 14.612 94.5898L2.78711 109.869C6.87999 113.045 12.8526 112.193 16.1121 107.98V107.97Z" fill="#EEC1C1"/>
<path d="M10.5753 185.226C14.3071 186.939 18.687 185.393 20.3538 181.772L6.8343 175.559C5.16752 179.179 6.84356 183.513 10.5753 185.226Z" fill="#A1A3F6"/>
<path d="M43.0952 67.8935C46.3989 67.8935 49.0771 65.2153 49.0771 61.9116C49.0771 58.6079 46.3989 55.9297 43.0952 55.9297C39.7915 55.9297 37.1133 58.6079 37.1133 61.9116C37.1133 65.2153 39.7915 67.8935 43.0952 67.8935Z" fill="#F2D382"/>
<path d="M135.631 217.117C140.018 217.117 143.576 213.56 143.576 209.172C143.576 204.784 140.018 201.227 135.631 201.227C131.243 201.227 127.686 204.784 127.686 209.172C127.686 213.56 131.243 217.117 135.631 217.117Z" fill="#58C6CD"/>
<path fill-rule="evenodd" clip-rule="evenodd" d="M146.937 157.613C145.539 154.335 141.52 152.9 137.964 154.419L136.482 150.946C142.122 148.539 148.502 150.807 150.715 156.011C152.928 161.215 150.15 167.373 144.511 169.781L143.029 166.308C146.585 164.79 148.344 160.901 146.946 157.623L146.937 157.613Z" fill="#A1A3F6"/>
<path fill-rule="evenodd" clip-rule="evenodd" d="M136.518 42.7902C132.462 46.9108 132.805 53.828 137.277 58.2357L132.981 62.6064C125.879 55.6244 125.341 44.6607 131.777 38.1232C138.213 31.5856 149.176 31.9375 156.279 38.9195L151.982 43.2902C147.5 38.8825 140.583 38.6602 136.527 42.7809L136.518 42.7902Z" fill="#C9EBED"/>
<path d="M35.8164 214.589L40.0945 217.015C40.5945 217.302 41.2242 216.988 41.2983 216.414L42.7613 205.107" stroke="#F2D382" stroke-width="2" stroke-linecap="round" stroke-linejoin="round"/>
<path d="M99.127 5.85206L101.692 10.0468C101.988 10.5376 102.692 10.5654 103.035 10.1024L109.785 0.925781" stroke="#A6D0EE" stroke-width="2" stroke-linecap="round" stroke-linejoin="round"/>
</g>
<defs>
<clipPath id="clip0_4374_12229">
<rect width="161.53" height="260" fill="white"/>
</clipPath>
</defs>
</svg>
