<svg width="118" height="114" viewBox="0 0 118 114" fill="none" xmlns="http://www.w3.org/2000/svg">
<path opacity="0.1" d="M47.6255 14.7613L2.95207 73.3326C1.54796 75.1718 0.602916 77.374 0.208123 79.7268C-0.186671 82.0795 -0.017884 84.5033 0.698197 86.7643C1.41428 89.0253 2.65348 91.0472 4.29622 92.6348C5.93896 94.2225 7.92977 95.3223 10.0766 95.8281L82.5671 112.89C84.8343 113.425 87.1926 113.278 89.3891 112.465C91.5857 111.652 93.5375 110.203 95.0352 108.274C96.533 106.345 97.5202 104.008 97.891 101.515C98.2618 99.021 98.0021 96.4644 97.1399 94.1192L69.3477 18.4774C68.5267 16.2329 67.1831 14.2599 65.4492 12.7524C63.7153 11.245 61.6509 10.255 59.459 9.88005C57.2671 9.50508 55.0233 9.75797 52.9484 10.6138C50.8735 11.4697 49.039 12.8991 47.6255 14.7613Z" fill="#263238"/>
<path d="M32.3868 82.9257C31.0002 82.7204 29.6817 82.1449 28.5488 81.2505C27.4159 80.356 26.5037 79.1704 25.8934 77.7992C25.2642 76.503 24.9684 75.0457 25.0371 73.5815C25.1058 72.1173 25.5365 70.7005 26.2837 69.4809L68.1588 3.27849C68.9159 2.09758 69.9631 1.17272 71.1805 0.609847C72.3979 0.046974 73.7364 -0.131156 75.0425 0.0958505C76.4296 0.299611 77.7487 0.874503 78.8818 1.76913C80.015 2.66375 80.9268 3.85022 81.5359 5.22242L116.61 82.5731C117.239 83.8693 117.535 85.3265 117.467 86.7907C117.398 88.2549 116.967 89.6717 116.22 90.8914C115.465 92.0747 114.418 93.002 113.2 93.5666C111.983 94.1312 110.643 94.3102 109.336 94.0831L32.3868 82.9257Z" fill="white"/>
<path d="M71.4828 23.4952L76.3736 24.2005C77.9027 24.4353 79.2989 25.2748 80.2959 26.5589C81.2929 27.8429 81.8209 29.4816 81.7793 31.1625L81.4471 38.1064C81.4391 38.3582 81.4141 38.609 81.3724 38.8569L77.8932 59.7881C77.6441 61.2307 76.8876 62.5104 75.7849 63.3548C74.6822 64.1992 73.3204 64.5415 71.9893 64.3089C70.5766 64.0902 69.2733 63.3573 68.2918 62.2295C67.3103 61.1016 66.7082 59.6452 66.5837 58.0973L65.1804 36.4699C65.1638 36.2201 65.1638 35.9693 65.1804 35.7194L65.5042 28.7665C65.5392 27.9766 65.7271 27.2037 66.0555 26.4983C66.3839 25.793 66.8454 25.1712 67.4098 24.6735C67.9742 24.1759 68.6288 23.8137 69.3307 23.6106C70.0326 23.4076 70.766 23.3682 71.4828 23.4952ZM71.0925 70.1136L72.4211 70.3035C73.7896 70.5138 75.0392 71.2649 75.9319 72.4137C76.8247 73.5625 77.2981 75.0288 77.2621 76.5331C77.2329 77.2425 77.0663 77.9371 76.7732 78.5715C76.4801 79.2058 76.0671 79.7654 75.5614 80.2137C75.0556 80.6619 74.4685 80.9887 73.8385 81.1725C73.2086 81.3562 72.5501 81.3929 71.9063 81.28L70.5777 81.081C69.2099 80.8727 67.9604 80.1234 67.0676 78.9761C66.1747 77.8288 65.701 76.3638 65.7367 74.8604C65.7646 74.1505 65.9303 73.4552 66.2231 72.8201C66.5158 72.1851 66.9288 71.6248 67.4349 71.1763C67.9409 70.7278 68.5286 70.4011 69.1591 70.218C69.7896 70.0348 70.4485 69.9992 71.0925 70.1136Z" fill="#2567FB"/>
</svg>
