<svg width="170" height="260" viewBox="0 0 170 260" fill="none" xmlns="http://www.w3.org/2000/svg">
<g clip-path="url(#clip0_4374_20134)">
<path d="M48.513 96.1681C48.513 96.1681 43.8572 102.231 42.0259 109.411C40.6705 114.719 40.9913 120.595 45.6885 125.199C50.3856 129.804 59.5006 131.821 59.5006 131.821L64.3633 116.457C64.3633 116.457 60.6594 113.777 60.349 111.801C59.9248 109.121 61.9009 106.162 61.9009 106.162L48.513 96.1577V96.1681Z" fill="#F5DEDE"/>
<path d="M61.0426 107.818C61.4668 106.835 61.9013 106.173 61.9013 106.173L48.5133 96.168C48.5133 96.168 47.1476 97.9579 45.5957 100.731L61.0426 107.818Z" fill="#EEC1C1"/>
<path d="M61.6229 145.778C61.6229 145.778 61.1367 191.539 61.9023 199.754C63.6922 218.926 68.8032 223.426 68.8032 223.426L79.6564 223.281C79.6564 223.281 85.6675 215.998 86.847 201.999C87.4781 194.447 88.1196 179.734 88.1196 179.734C88.1196 179.734 92.3822 208.217 93.4789 214.032C95.3619 223.995 101.373 228.506 101.373 228.506L112.93 226.251C112.93 226.251 117.389 220.002 117.254 206.893C117.12 193.784 116.178 164.805 116.178 164.805L112.94 141.971L61.6436 145.778H61.6229Z" fill="#58C6CD"/>
<path d="M79.666 156.486L86.5669 164.246L88.1189 179.745" stroke="#99D7DB" stroke-linecap="round" stroke-linejoin="round"/>
<path d="M75.7136 149.306L75.8585 162.694L74.8652 170.019" stroke="#99D7DB" stroke-linecap="round" stroke-linejoin="round"/>
<path d="M76.8403 170.298L75.8574 162.694" stroke="#99D7DB" stroke-linecap="round" stroke-linejoin="round"/>
<path d="M96.9961 149.161V154.934L98.1238 160.294" stroke="#99D7DB" stroke-linecap="round" stroke-linejoin="round"/>
<path d="M95.5879 159.735L96.995 154.935" stroke="#99D7DB" stroke-linecap="round" stroke-linejoin="round"/>
<path d="M91.5953 259.99C126.577 259.99 154.935 255.987 154.935 251.05C154.935 246.114 126.577 242.111 91.5953 242.111C56.6139 242.111 28.2559 246.114 28.2559 251.05C28.2559 255.987 56.6139 259.99 91.5953 259.99Z" fill="#A1A3F6"/>
<path d="M69.6498 227.803L70.3947 236.897L66.9805 238.377C66.9805 238.377 73.0433 240.632 75.8575 239.928C78.6717 239.225 78.113 239.328 78.113 239.328L78.8165 228.155L69.6601 227.803H69.6498Z" fill="#F5DEDE"/>
<path d="M103.762 233.162L105.128 244.108C105.128 244.108 108.139 245.991 110.105 244.864C112.07 243.736 112.919 243.177 112.919 243.177L112.163 231.807L103.752 233.172L103.762 233.162Z" fill="#F5DEDE"/>
<path d="M79.6653 64.881L77.5547 75.31L71.916 77.1412C71.916 77.1412 76.427 87.0115 87.1353 87.5702C97.8436 88.1289 102.499 76.9964 102.499 76.9964L94.7501 74.0374L91.6462 64.5913L79.6653 64.8707V64.881Z" fill="#F5DEDE"/>
<path d="M71.45 52.0519C71.45 52.0519 72.557 62.1291 77.2645 67.5608C83.3584 74.5962 91.5009 72.7753 95.1635 66.5779C98.826 60.3806 98.4949 43.9715 98.4949 43.9715L77.2438 38.9019L74.947 42.761C74.947 42.761 70.8395 42.0368 70.9637 44.2095C71.0879 46.3822 71.45 52.0622 71.45 52.0622V52.0519Z" fill="#F5DEDE"/>
<path d="M86.8676 59.0975C79.8736 59.6769 76.149 61.8289 74.5039 63.1222C75.2488 64.7362 76.1593 66.2778 77.2767 67.5607C83.3706 74.5961 91.5131 72.7752 95.1756 66.5778C96.1482 64.9224 96.8414 62.6255 97.338 60.1218C94.7307 59.5527 90.4784 58.8078 86.878 59.1078L86.8676 59.0975Z" fill="#A1A3F6"/>
<path d="M6.37305 57.6905L13.6361 63.1947C14.6086 63.9292 16.0157 63.443 16.3157 62.2635L21.7372 41.209" stroke="#58C6CD" stroke-width="2" stroke-linecap="round" stroke-linejoin="round"/>
<path d="M147.029 60.0908L149.181 68.8126C149.43 69.8369 150.64 70.2715 151.489 69.6507L168.311 57.4111" stroke="#EF8B8B" stroke-width="2" stroke-linecap="round" stroke-linejoin="round"/>
<path d="M84.8496 41.5505C84.8496 41.5505 91.0056 43.8473 95.2372 42.6368C99.4688 41.4263 102.728 39.6157 102.728 39.6157" stroke="#EF8B8B" stroke-miterlimit="10"/>
<path d="M71.4824 74.8856C71.4824 74.8856 74.0897 81.0209 81.2078 83.7627C87.6846 86.2664 93.7474 83.204 96.4271 80.9485C99.1068 78.693 101.497 74.4614 101.497 74.4614C101.497 74.4614 106.597 75.0718 112.495 77.9895C124.476 83.9075 131.666 94.202 131.666 94.202L116.871 108.997L112.505 104.631L118.847 145.498C118.847 145.498 113.209 149.865 87.7053 149.73C62.2019 149.596 57.1219 147.899 57.1219 147.899L63.3193 107.455L44.7168 96.3229C44.7168 96.3229 48.4414 87.6114 58.1048 80.6795C65.5747 75.3202 71.4928 74.9063 71.4928 74.9063L71.4824 74.8856Z" fill="#585CE5"/>
<path d="M110.662 96.5923L112.493 104.621" stroke="#A1A3F6" stroke-linecap="round" stroke-linejoin="round"/>
<path d="M65.4296 95.1851L63.3086 107.445" stroke="#A1A3F6" stroke-linecap="round" stroke-linejoin="round"/>
<path d="M61.3421 113.643C61.3421 113.643 64.1873 118.06 73.5299 119.778C77.7615 120.554 81.7758 119.985 81.7758 119.985C81.7758 119.985 83.6071 113.994 84.0313 113.011C84.4555 112.029 83.6071 108.718 84.3106 108.573C85.0142 108.428 85.4694 108.262 86.2868 109.276C87.1041 110.29 87.4145 111.532 87.5593 113.643C87.7042 115.753 87.5593 116.881 87.5593 116.881C87.5593 116.881 91.5944 115.65 93.198 114.905C95.0293 114.056 95.4535 113.353 96.3019 113.922C97.1503 114.491 97.9883 116.322 98.278 117.305C98.5677 118.288 99.5506 118.991 99.4057 121.247C99.2609 123.502 99.1264 126.606 98.4229 127.444C97.7193 128.282 97.2951 128.851 92.7842 129.979C88.2732 131.107 85.4591 130.403 83.7623 130.259C82.0655 130.114 77.2752 132.307 68.3982 132.307C61.2076 132.307 56.9863 131.034 56.9863 131.034L61.3524 113.632L61.3421 113.643Z" fill="#F5DEDE"/>
<path d="M84.2079 50.1582C84.2079 50.1582 82.3456 57.0902 82.5215 57.4005C82.6663 57.6799 83.6492 58.2489 84.9632 58.1662C86.3703 58.0834 86.6289 57.7213 86.6289 57.7213" stroke="#0F2851" stroke-linecap="round" stroke-linejoin="round"/>
<path d="M83.8867 62.1599C83.8867 62.1599 86.8975 63.6187 89.5254 61.4356C90.7669 60.401 91.2946 59.3457 91.2946 59.3457" stroke="#0F2851" stroke-linecap="round" stroke-linejoin="round"/>
<path d="M90.168 57.856C90.168 57.856 91.037 58.1663 91.9372 59.3044C92.3303 59.801 92.4234 60.6701 92.4234 60.6701" stroke="#0F2851" stroke-linecap="round" stroke-linejoin="round"/>
<path d="M76.3242 48.5547L80.0385 47.7373" stroke="#0F2851" stroke-linecap="round" stroke-linejoin="round"/>
<path d="M90.002 47.9028L93.3852 48.3891" stroke="#0F2851" stroke-linecap="round" stroke-linejoin="round"/>
<path d="M78.3203 50.9966L78.5376 53.4693" stroke="#0F2851" stroke-linecap="round" stroke-linejoin="round"/>
<path d="M91.8544 50.7173L91.6992 53.0555" stroke="#0F2851" stroke-linecap="round" stroke-linejoin="round"/>
<path d="M71.6992 51.5653C71.6992 51.5653 68.9989 50.4893 67.4676 50.7272C65.9364 50.9652 65.4501 52.0102 66.3399 54.2656C67.2297 56.5211 69.1127 58.7455 70.199 58.6938C71.813 58.611 72.4545 56.5211 72.4545 56.5211L71.6992 51.5653Z" fill="#F5DEDE"/>
<path d="M97.8444 51.2861C97.8444 51.2861 100.296 49.8583 101.341 49.6204C102.386 49.3824 103.793 49.879 103.39 51.731C102.986 53.583 102.066 56.5006 100.41 57.649C98.7549 58.7974 97.2754 56.5213 97.2754 56.5213L97.8341 51.2861H97.8444Z" fill="#F5DEDE"/>
<path d="M67.8203 53.6553L71.3897 54.8761" stroke="#EEC1C1" stroke-linecap="round" stroke-linejoin="round"/>
<path d="M101.931 52.2485L98.7344 53.7487" stroke="#EEC1C1" stroke-linecap="round" stroke-linejoin="round"/>
<path d="M69.9395 212.863L71.6259 223.571" stroke="#99D7DB" stroke-linecap="round" stroke-linejoin="round"/>
<path d="M77.1211 223.995L78.673 215.967" stroke="#99D7DB" stroke-linecap="round" stroke-linejoin="round"/>
<path d="M103.059 218.501L105.035 227.658" stroke="#99D7DB" stroke-linecap="round" stroke-linejoin="round"/>
<path d="M101.361 228.506L102.396 233.772L113.104 231.983L112.918 226.251L101.361 228.506Z" fill="#99D7DB"/>
<path d="M68.8125 223.437L69.3298 228.227L79.0966 228.185L79.6657 223.292L68.8125 223.437Z" fill="#99D7DB"/>
<path d="M67.075 236.773C67.075 236.773 69.7029 238.935 73.0861 239.214C76.4693 239.494 79.3766 238.366 79.3766 238.366L79.9353 245.132H49.3105C49.3105 245.132 49.9831 242.111 52.0316 241.377C55.4148 240.156 67.0646 236.773 67.0646 236.773H67.075Z" fill="#F2D382"/>
<path d="M66.4428 237.963C66.4428 237.963 58.4245 232.924 59.2626 230.886C60.1006 228.848 66.4428 237.963 66.4428 237.963Z" stroke="#585CE5" stroke-linecap="round" stroke-linejoin="round"/>
<path d="M64.9939 228.465C63.4833 228.351 66.1113 238.169 66.4423 237.963C66.7734 237.756 67.1355 230.844 66.3803 229.406C65.625 227.968 64.9939 228.465 64.9939 228.465V228.465Z" stroke="#585CE5" stroke-linecap="round" stroke-linejoin="round"/>
<path d="M54.6172 235.811L66.4429 237.963" stroke="#585CE5" stroke-linecap="round" stroke-linejoin="round"/>
<path d="M103.906 243.26L103.999 248.33C103.999 248.33 105.075 250.213 114.997 254.341C121.857 257.207 126.647 257.445 126.647 257.445C126.647 257.445 127.02 255.655 125.892 253.689C124.764 251.723 114.242 241.377 114.242 241.377C114.242 241.377 111.614 243.726 108.324 244.005C105.034 244.284 103.906 243.25 103.906 243.25V243.26Z" fill="#F2D382"/>
<path d="M116.023 245.132C116.023 245.132 115.485 239.949 119.644 234.941C120.441 233.979 121.848 233.11 122.696 233.907C123.638 234.797 123.513 236.017 121.848 238.366C120.441 240.352 116.023 245.132 116.023 245.132V245.132Z" stroke="#585CE5" stroke-linecap="round" stroke-linejoin="round"/>
<path d="M120.626 242.887L116.021 245.133L120.067 253.968" stroke="#585CE5" stroke-linecap="round" stroke-linejoin="round"/>
<path d="M115.929 244.76C115.929 244.76 114.139 242.784 110.477 241.946C106.814 241.108 106.628 244.481 110.104 244.863C113.581 245.246 115.929 244.77 115.929 244.77V244.76Z" stroke="#585CE5" stroke-linecap="round" stroke-linejoin="round"/>
<path d="M15.3224 126.017C18.9746 121.309 18.2193 114.615 13.6463 111.066L0.423828 128.127C4.99685 131.676 11.6701 130.724 15.312 126.017H15.3224Z" fill="#EEC1C1"/>
<path d="M133.445 20.3717C137.615 22.2858 142.509 20.558 144.371 16.5126L129.265 9.57031C127.403 13.6157 129.276 18.4577 133.445 20.3717Z" fill="#A1A3F6"/>
<path d="M42.9376 24.5826C46.6288 24.5826 49.6212 21.5903 49.6212 17.899C49.6212 14.2077 46.6288 11.2153 42.9376 11.2153C39.2463 11.2153 36.2539 14.2077 36.2539 17.899C36.2539 21.5903 39.2463 24.5826 42.9376 24.5826Z" fill="#F2D382"/>
<path d="M155.627 226.83C160.53 226.83 164.504 222.856 164.504 217.953C164.504 213.05 160.53 209.076 155.627 209.076C150.724 209.076 146.75 213.05 146.75 217.953C146.75 222.856 150.724 226.83 155.627 226.83Z" fill="#58C6CD"/>
<path fill-rule="evenodd" clip-rule="evenodd" d="M157.251 161.07C155.689 157.407 151.199 155.803 147.226 157.5L145.57 153.62C151.871 150.93 159 153.465 161.472 159.28C163.945 165.094 160.841 171.975 154.54 174.665L152.885 170.785C156.858 169.088 158.824 164.743 157.262 161.08L157.251 161.07Z" fill="#A1A3F6"/>
<path fill-rule="evenodd" clip-rule="evenodd" d="M10.3263 188.477C5.79471 193.081 6.17752 200.809 11.1747 205.734L6.3741 210.618C-1.56144 202.817 -2.16151 190.567 5.02909 183.262C12.2197 175.958 24.4696 176.351 32.4051 184.152L27.6045 189.036C22.5969 184.111 14.8683 183.862 10.3367 188.466L10.3263 188.477Z" fill="#C9EBED"/>
<path d="M78.942 39.9777C78.942 39.9777 81.2388 43.5989 89.8055 45.0474C98.3722 46.4958 104.652 42.9988 106.949 40.5778C109.246 38.1568 109.722 35.5082 109.722 35.5082L102.355 37.4429L108.315 32.4146L101.88 34.2977L103.525 31.4731L99.5827 32.9733L78.9316 39.9777H78.942Z" fill="#0F2851"/>
<path d="M69.4238 45.4817L70.9447 50.4065C71.0792 50.8307 71.6896 50.7893 71.7621 50.3547L73.0243 43.4849L69.4238 45.4817Z" fill="#0F2851"/>
<path d="M68.5137 46.5163L112.361 25.5342" stroke="#EF8B8B" stroke-linecap="round" stroke-linejoin="round"/>
<path d="M95.3925 33.6042C95.3925 33.6042 94.213 29.1243 89.102 26.7033C83.991 24.2823 78.3626 24.9134 73.7793 27.2102C69.1959 29.5071 67.8819 32.7144 66.837 36.5425C65.6885 40.7431 68.2751 46.5162 68.2751 46.5162L95.3821 33.6042H95.3925Z" fill="#EF8B8B"/>
<path d="M75.6719 28.1724L77.0272 30.9658" stroke="white" stroke-linecap="round" stroke-linejoin="round"/>
<path d="M79.3965 35.8184L80.7622 38.6015" stroke="white" stroke-linecap="round" stroke-linejoin="round"/>
<path d="M72.2793 26.9827L76.6764 24.9756" stroke="#EF8B8B" stroke-linecap="round" stroke-linejoin="round"/>
<path d="M118.185 107.683C118.185 107.683 122.365 112.236 124.476 116.612C126.586 120.988 126.379 126.172 124.621 129.296C122.717 132.68 117.854 138.318 116.592 139.022C115.33 139.725 111.802 140.15 110.953 140.998C110.105 141.846 103.628 152.555 104.611 152.834C105.594 153.113 106.866 152.979 107.57 152.275C108.274 151.572 113.343 147.909 113.343 147.909L116.157 164.825C116.157 164.825 116.633 164.443 117.989 161.721C118.972 159.745 120.668 145.509 120.668 145.509C120.668 145.509 125.738 142.695 128.987 139.736C132.235 136.777 137.957 131.573 139.416 122.261C140.688 114.16 139.695 108.449 133.073 98.5889C130.89 95.3299 130.539 95.3506 130.539 95.3506L118.185 107.704V107.683Z" fill="#F5DEDE"/>
<path d="M137.49 121.713L137.708 115.909" stroke="#EEC1C1" stroke-linecap="round" stroke-linejoin="round"/>
<path d="M46.6309 122.592L43.7754 117.533" stroke="#EEC1C1" stroke-linecap="round" stroke-linejoin="round"/>
<path d="M113.342 147.888L114.894 145.354" stroke="#EEC1C1" stroke-linecap="round" stroke-linejoin="round"/>
<path d="M31.0898 156.073L35.8698 158.783C36.4285 159.104 37.132 158.752 37.2148 158.111L38.8495 145.478" stroke="#F2D382" stroke-width="2" stroke-linecap="round" stroke-linejoin="round"/>
<path d="M99.0645 6.53885L101.93 11.2257C102.261 11.774 103.048 11.8051 103.431 11.2878L110.973 1.03467" stroke="#A6D0EE" stroke-width="2" stroke-linecap="round" stroke-linejoin="round"/>
<path d="M68.3883 73.7578C68.3883 73.7578 68.0779 77.8859 73.251 82.5003C81.0728 89.4737 88.8945 87.4355 88.8945 87.4355" stroke="#A1A3F6" stroke-linecap="round" stroke-linejoin="round"/>
<path d="M87.2695 41.3432C87.2695 41.3432 92.2978 43.071 97.5537 42.1916C104.32 41.0638 108.262 35.001 108.262 35.001" stroke="#585CE5" stroke-linecap="round" stroke-linejoin="round"/>
<path d="M97.1816 44.7678L97.6783 49.8995C97.7196 50.3444 98.3301 50.4272 98.4956 50.0133L101.113 43.5366L97.1816 44.7678Z" fill="#0F2851"/>
<path d="M130.539 95.3193L118.186 107.673C118.186 107.673 118.713 108.252 119.489 109.194L132.981 98.4232C130.88 95.309 130.539 95.3193 130.539 95.3193Z" fill="#EEC1C1"/>
</g>
<defs>
<clipPath id="clip0_4374_20134">
<rect width="169.347" height="260" fill="white"/>
</clipPath>
</defs>
</svg>
