<svg width="219" height="300" viewBox="0 0 219 300" fill="none" xmlns="http://www.w3.org/2000/svg">
<path d="M107.373 38.9192C102.552 39.9916 101.607 42.943 101.607 42.943C101.607 42.943 93.8059 44.0153 92.3597 47.7636C89.6838 54.7289 93.1664 55.5356 89.4083 58.487C85.6502 61.4384 75.4285 68.0102 82.0397 77.6514C85.2567 82.3442 89.5461 80.7307 92.0941 85.5612C94.6421 90.3917 89.5461 99.4623 100.673 103.791C110.324 107.539 135.381 115.046 139.405 126.576C141.806 133.462 150.256 136.896 156.425 132.469C162.593 128.042 157.231 124.431 166.076 119.601C174.92 114.77 183.174 106.496 176.258 98.4293C169.824 90.9229 160.173 102.856 158.835 87.3025C157.497 71.7486 162.19 60.2283 150.66 56.4801C141.235 53.4106 139.267 59.2937 132.302 55.5455C124.973 51.6004 125.445 34.9152 107.373 38.9291V38.9192Z" fill="#0F2851"/>
<path d="M142.721 84.2627L176.819 67.3217C176.819 67.3217 178.531 62.1764 180.253 60.0317C181.6 58.3494 184.286 55.9981 185.378 55.0537C185.634 54.8274 186.037 54.9159 186.175 55.2308C186.411 55.7719 186.647 56.5884 186.254 57.2377C185.614 58.3101 183.647 61.0253 183.647 61.0253C183.647 61.0253 183.46 61.6353 187.582 59.4906C189.146 58.6741 194.98 55.8899 195.807 55.5751C198.345 54.611 197.823 56.9032 197.164 57.3263C195.944 58.1133 196.446 57.9559 195.246 58.5757C192.865 59.8054 191.625 60.4547 191.625 60.4547C191.625 60.4547 200.204 56.5195 201.276 57.4345C202.349 58.3494 200.43 60.4547 200.43 60.4547C200.43 60.4547 201.119 62.1961 198.335 63.2684C195.551 64.3407 195.206 64.7441 193.691 65.2754C193.347 65.3934 193.052 65.6394 193.918 65.541C194.724 65.4524 198.473 64.3801 199.407 64.7343C200.411 65.118 199.496 67.0757 196.141 67.7152C190.15 68.8662 190.779 70.5289 184.768 71.6012C179.456 72.5456 179.446 72.6834 179.446 72.6834C179.446 72.6834 165.929 82.4525 161.255 85.8269C157.301 88.68 144.452 95.6158 144.452 95.6158L142.74 84.2529L142.721 84.2627Z" fill="#F5DEDE"/>
<path d="M144.657 95.4975C145.198 95.2024 146.684 94.3957 148.583 93.343L144.52 83.3574L142.916 84.1543L144.657 95.4975Z" fill="#EEC1C1"/>
<path d="M67.2336 96.4813C67.2336 96.4813 59.7272 93.9038 51.5813 84.6856C43.4354 75.4674 39.7659 70.0761 39.7659 70.0761C39.7659 70.0761 36.7259 69.9187 31.5905 66.6623C27.006 63.7503 22.2345 60.366 21.6738 59.4904C21.0737 58.5558 21.8705 57.5425 22.7461 57.818C23.2774 57.9852 27.1043 60.4939 27.1043 60.4939L27.2421 59.9627C27.2421 59.9627 23.9267 57.9459 22.3526 55.9389C20.7785 53.932 21.9492 53.322 21.9492 53.322C21.9492 53.322 21.723 52.1808 21.8115 51.7774C21.9099 51.3446 22.0673 51.0199 22.7855 50.8035C23.5036 50.587 24.271 50.7838 26.701 52.7121C29.131 54.6403 30.3902 55.8602 30.3902 55.8602L30.8625 55.2896C30.8625 55.2896 27.6651 51.3544 27.3798 50.4985C27.0945 49.6426 27.7241 48.2751 29.1507 49.495C30.5772 50.7149 33.2137 53.7942 33.9319 54.4337C34.6501 55.0732 36.4308 56.48 37.2965 57.267C38.1623 58.0541 37.9458 57.8376 38.2311 55.1912C38.5164 52.5448 38.9395 51.7184 39.5789 51.2167C40.2184 50.7149 40.9071 51.1675 40.9071 51.1675L41.4383 55.1912C41.4383 55.1912 42.432 58.8706 43.1403 60.73C43.5535 61.8024 43.9765 63.9667 43.9765 63.9667C43.9765 63.9667 48.7873 70.3024 54.8573 74.8771C60.9274 79.4517 71.582 84.8823 71.582 84.8823L67.2237 96.4616L67.2336 96.4813Z" fill="#F5DEDE"/>
<path d="M61.7031 93.5691C63.4051 94.671 64.8119 95.4187 65.7761 95.8712L69.9966 84.0755C69.5834 83.859 69.1013 83.6032 68.57 83.3081L61.7031 93.5593V93.5691Z" fill="#EEC1C1"/>
<path d="M83.6321 146.448C83.6321 146.448 81.4383 146.232 76.7652 143.231C72.4168 140.427 72.043 138.942 72.043 138.942L84.5372 141.677L83.6223 146.448H83.6321Z" fill="#0F2851"/>
<path d="M85.5608 135.086C85.5608 135.086 84.272 139.267 83.6325 143.123C82.9931 146.98 82.3438 150.197 82.3438 150.197C82.3438 150.197 86.5249 151.485 95.5365 149.872C104.548 148.268 116.767 145.051 116.767 145.051L85.5608 135.076V135.086Z" fill="#F5DEDE"/>
<path d="M83.7415 142.375L83.043 146.291C83.043 146.291 86.5453 147.452 92.4776 147.521C101.273 147.629 109.31 146.773 109.31 146.773L83.7415 142.375Z" fill="#EEC1C1"/>
<path d="M73.2148 224.779C73.2148 224.779 99.1872 245.537 104.205 248.744C109.222 251.951 114.033 257.765 115.833 257.165C117.633 256.565 109.92 236.004 108.917 232.797C107.913 229.589 104.608 229.589 103.103 232.196C102.237 233.692 100.801 235.502 99.3938 234.902C97.9869 234.302 90.3723 223.736 89.2705 221.67C86.3584 216.259 82.5511 213.652 82.5511 213.652L73.2247 224.779H73.2148Z" fill="#F5DEDE"/>
<path d="M78.3789 228.891C79.6185 229.875 81.0155 230.987 82.5109 232.157L88.8859 221.001C87.7939 219.102 86.6133 217.587 85.5705 216.426L78.3789 228.881V228.891Z" fill="#EEC1C1"/>
<path d="M100.15 227.405C100.15 227.405 127.923 249.6 133.285 253.033C138.646 256.467 143.792 262.684 145.72 262.045C147.648 261.405 139.394 239.418 138.322 235.994C137.249 232.57 133.708 232.56 132.104 235.354C131.179 236.948 129.635 238.896 128.139 238.247C126.644 237.598 118.498 226.304 117.308 224.09C114.199 218.295 110.126 215.511 110.126 215.511L100.15 227.415V227.405Z" fill="#F5DEDE"/>
<path d="M128.131 238.237C128.131 238.237 133.493 242.743 134.132 243.815C134.772 244.887 134.565 245.743 134.565 245.743" stroke="#EEC1C1" stroke-linecap="round" stroke-linejoin="round"/>
<path d="M110.795 216.023L101.439 228.439C101.735 228.675 102.089 228.95 102.472 229.265L105.827 232.02L113.186 218.512C111.799 216.83 111.533 216.633 110.786 216.033L110.795 216.023Z" fill="#EEC1C1"/>
<path d="M93.4512 92.1425L101.223 92.782L102.296 79.0088L111.514 79.2252L112.212 91.9851L120.899 90.7455L117.2 102.6L108.838 106.024L96.7174 106.565L93.5004 102.492L93.4512 92.1425Z" fill="#F5DEDE"/>
<path d="M111.582 80.5044C109.988 80.829 106.86 81.38 105.079 81.1439C103.81 80.9766 102.826 80.7602 102.167 80.5831L101.744 86.0235C102.757 86.358 104.253 86.6728 106.368 86.722C108.591 86.7712 110.49 86.5253 111.897 86.24L111.582 80.5044Z" fill="#EEC1C1"/>
<path d="M107.342 300C130.673 300 149.586 297.529 149.586 294.481C149.586 291.433 130.673 288.962 107.342 288.962C84.0111 288.962 65.0977 291.433 65.0977 294.481C65.0977 297.529 84.0111 300 107.342 300Z" fill="#A1A3F6"/>
<path d="M94.7695 60.897C94.7695 60.897 95.2122 68.305 95.468 71.5516C95.7238 74.7981 98.1243 81.5076 104.155 82.6489C111.691 84.0754 115.764 80.5829 117.584 76.1754C119.404 71.768 120.466 58.0145 120.466 58.0145L102.276 45.7563C102.276 45.7563 99.5213 54.0498 98.3899 56.4798C97.4553 58.4867 94.7695 60.9069 94.7695 60.9069V60.897Z" fill="#F5DEDE"/>
<path d="M98.5271 45.2254C98.5271 45.2254 94.3361 51.1774 103.082 55.5454C107.106 57.5524 111.612 55.7029 115.006 57.0211C119.157 58.6247 119.571 61.586 127.067 62.6485C127.874 62.7665 127.038 58.2312 126.91 57.4442C126.428 54.2468 124.45 46.2289 116.708 43.4152C105.945 39.4997 98.5271 45.2352 98.5271 45.2352V45.2254Z" fill="#0F2851"/>
<path d="M106.683 65.9443C106.683 65.9443 105.118 70.942 104.804 71.5717C104.489 72.2013 105.738 72.8211 106.683 73.0277" stroke="#0F2851" stroke-linecap="round" stroke-linejoin="round"/>
<path opacity="0.52" d="M99.2261 74.2178C100.362 74.2178 101.282 73.2972 101.282 72.1616C101.282 71.026 100.362 70.1055 99.2261 70.1055C98.0905 70.1055 97.1699 71.026 97.1699 72.1616C97.1699 73.2972 98.0905 74.2178 99.2261 74.2178Z" fill="#EF8B8B"/>
<path opacity="0.52" d="M115.065 75.3982C116.451 75.3982 117.574 74.2751 117.574 72.8895C117.574 71.504 116.451 70.3809 115.065 70.3809C113.68 70.3809 112.557 71.504 112.557 72.8895C112.557 74.2751 113.68 75.3982 115.065 75.3982Z" fill="#EF8B8B"/>
<path d="M102.07 66.6524C102.07 66.6524 101.293 66.0818 100.358 66.0523C99.4237 66.0228 98.6465 66.6524 98.6465 66.6524" stroke="#0F2851" stroke-linecap="round" stroke-linejoin="round"/>
<path d="M112.223 67.0458C112.223 67.0458 112.764 66.3571 113.944 66.4063C115.125 66.4555 115.646 67.2426 115.646 67.2426" stroke="#0F2851" stroke-linecap="round" stroke-linejoin="round"/>
<path d="M113.01 60.5039C113.01 60.5039 113.856 60.6318 114.79 61.1631C115.725 61.6943 116.168 62.1665 116.168 62.1665" stroke="#0F2851" stroke-linecap="round" stroke-linejoin="round"/>
<path d="M98.1445 61.694C98.1445 61.694 98.4298 61.2218 99.6891 60.6315C100.948 60.0412 101.578 60.1003 101.578 60.1003" stroke="#0F2851" stroke-linecap="round" stroke-linejoin="round"/>
<path d="M80.957 149.242L78.3795 162.966C78.3795 162.966 59.0773 192.992 56.9326 197.065C54.7879 201.138 51.5709 207.149 58.7527 214.33C63.3667 218.945 78.0548 232.236 78.0548 232.236L87.1648 219.584L100.672 230.524L114.613 213.366L102.817 206.716C102.817 206.716 127.904 176.267 130.914 173.05C133.925 169.833 132.42 165.19 131.701 162.966C130.314 158.677 121.263 142.592 121.263 142.592C121.263 142.592 112.901 146.448 100.466 148.809C89.6833 150.856 80.9472 149.242 80.9472 149.242H80.957Z" fill="#EF8B8B"/>
<path d="M87.1737 219.574C87.1737 219.574 82.6679 215.826 79.8837 211.743C77.4931 208.251 78.8114 204.985 79.8837 201.345C80.9561 197.705 93.3913 167.463 93.3913 167.463L87.2819 163.39" stroke="#F5DEDE" stroke-linecap="round" stroke-linejoin="round"/>
<path d="M102.827 206.716L98.9707 211.005" stroke="#F5DEDE" stroke-linecap="round" stroke-linejoin="round"/>
<path d="M170.453 47.6751H170.404C169.322 47.6554 168.348 46.9963 167.777 45.9042C167.256 44.8909 167.02 43.3562 167.571 41.605C166.498 42.1363 165.406 42.2445 164.413 41.91C162.927 41.4083 161.874 39.9719 161.658 38.1716C161.323 35.3284 163.065 32.4163 166.311 30.3996C166.38 30.3602 166.449 30.3307 166.528 30.3209C166.606 30.311 166.675 30.311 166.754 30.3209C166.833 30.3405 166.902 30.37 166.961 30.4094C167.02 30.4487 167.079 30.5078 167.118 30.5766C167.157 30.6455 167.187 30.7144 167.197 30.7832C167.207 30.8619 167.207 30.9308 167.197 31.0095C167.177 31.0882 167.148 31.1571 167.098 31.2161C167.059 31.2751 167 31.3342 166.931 31.3735C162.701 34.0101 162.711 37.1386 162.819 38.0338C162.976 39.3915 163.734 40.454 164.786 40.8082C165.485 41.0443 166.931 41.1623 168.731 39.2931C168.83 39.1849 168.968 39.1259 169.115 39.116C169.263 39.116 169.4 39.1554 169.518 39.2439C169.627 39.3325 169.705 39.4604 169.725 39.6079C169.745 39.7555 169.715 39.8932 169.637 40.0211C168.141 42.2347 168.23 44.2318 168.82 45.3632C169.194 46.0813 169.784 46.5044 170.443 46.5142H170.473C171.447 46.5142 172.499 45.6386 173.365 44.1137C173.444 43.976 173.572 43.8776 173.709 43.8383C173.857 43.7989 174.014 43.8186 174.152 43.8875C174.29 43.9662 174.388 44.0842 174.428 44.2416C174.467 44.3892 174.447 44.5466 174.378 44.6843C172.913 47.2717 171.319 47.6751 170.473 47.6751H170.453Z" fill="#A6D0EE"/>
<path d="M14.1477 125.001C14.0591 125.001 13.9804 124.982 13.9017 124.952C13.823 124.913 13.7542 124.864 13.705 124.805C11.2553 121.903 10.3502 118.892 11.1963 116.551C11.7177 115.124 12.8294 114.16 14.2559 113.914C15.6726 113.668 17.1778 114.15 18.5256 115.272C18.4469 112.143 19.9127 111.081 20.6211 110.756C22.1952 110.028 24.2808 110.756 25.8155 112.547C25.9139 112.665 25.9631 112.812 25.9533 112.97C25.9434 113.127 25.8647 113.265 25.7467 113.363C25.6286 113.462 25.4811 113.511 25.3236 113.501C25.1662 113.491 25.0285 113.412 24.9301 113.304C23.7397 111.907 22.1952 111.307 21.1031 111.809C19.8931 112.369 19.411 114.209 19.8242 116.738C19.8439 116.865 19.8242 116.993 19.7652 117.102C19.7061 117.21 19.6078 117.298 19.4897 117.357C19.3717 117.407 19.2438 117.426 19.1159 117.397C18.988 117.367 18.8798 117.298 18.8011 117.2C17.4631 115.587 15.8693 114.809 14.4428 115.065C13.4295 115.242 12.6425 115.931 12.2686 116.954C11.5701 118.872 12.4359 121.529 14.5707 124.067C14.6396 124.155 14.6888 124.254 14.6986 124.362C14.7084 124.47 14.6986 124.578 14.6494 124.687C14.6002 124.795 14.5314 124.874 14.433 124.933C14.3444 124.992 14.2362 125.021 14.1182 125.021L14.1477 125.001Z" fill="#58C6CD"/>
<path d="M177.124 226.796C177.026 226.796 176.927 226.776 176.849 226.727C176.76 226.678 176.691 226.609 176.642 226.53C176.593 226.451 176.564 226.353 176.554 226.255C176.554 226.156 176.563 226.058 176.603 225.969C178.147 222.644 177.557 220.135 176.367 219.211C175.383 218.453 173.947 218.699 172.53 219.87C172.432 219.948 172.323 219.998 172.205 219.998C172.087 219.998 171.959 219.978 171.861 219.909C171.753 219.85 171.674 219.752 171.625 219.643C171.576 219.535 171.566 219.407 171.595 219.289C172.136 216.938 171.94 215.354 171.054 214.96C170.375 214.656 169.234 214.96 167.936 215.787C166.509 216.702 165.063 218.128 163.872 219.811C163.833 219.87 163.774 219.929 163.705 219.968C163.646 220.007 163.568 220.037 163.499 220.047C163.42 220.057 163.341 220.057 163.272 220.047C163.204 220.027 163.125 219.998 163.066 219.958C163.007 219.919 162.948 219.86 162.908 219.791C162.869 219.722 162.839 219.653 162.83 219.575C162.82 219.496 162.82 219.427 162.83 219.348C162.849 219.27 162.879 219.201 162.928 219.142C165.712 215.206 169.411 212.954 171.526 213.898C172.422 214.292 173.327 215.364 172.973 218.158C174.458 217.371 175.924 217.39 177.075 218.276C178.679 219.515 179.485 222.516 177.656 226.441C177.606 226.54 177.537 226.628 177.439 226.687C177.351 226.746 177.242 226.776 177.124 226.776V226.796Z" fill="#F2D382"/>
<path d="M59.8537 58.7525C57.7877 58.7525 55.1413 57.6998 53.4885 55.9585C53.3901 55.8503 53.3311 55.7027 53.3409 55.5453C53.3409 55.3977 53.4098 55.2502 53.518 55.1419C53.6262 55.0337 53.7738 54.9845 53.9214 54.9845C54.0689 54.9845 54.2165 55.0436 54.3247 55.1518C56.5284 57.4736 60.3554 58.1032 61.4081 57.1686C62.0574 56.5881 61.5753 55.1911 60.1095 53.44C60.0209 53.3318 59.9717 53.2039 59.9717 53.0661C59.9717 52.9284 60.0209 52.8005 60.0996 52.6923C60.1882 52.5841 60.3062 52.5152 60.4341 52.4955C60.562 52.466 60.6997 52.4955 60.8178 52.5545C63.5724 54.0696 67.2617 54.6205 68.6783 52.6529C69.7015 51.2166 68.8358 48.9538 66.4058 46.7403C66.2877 46.6321 66.2287 46.4943 66.2188 46.3369C66.2188 46.1795 66.268 46.032 66.3664 45.9237C66.4746 45.8057 66.6124 45.7467 66.7698 45.7368C66.9272 45.7368 67.0748 45.786 67.183 45.8844C68.6685 47.242 69.6326 48.6095 70.0458 49.9376C70.4394 51.2166 70.2918 52.3873 69.6228 53.3219C68.4619 54.9452 65.6679 55.7027 62.2148 54.4533C62.8936 55.683 63.2183 57.08 62.1558 58.0245C61.6048 58.5164 60.7784 58.7328 59.8242 58.7328L59.8537 58.7525Z" fill="#EF8B8B"/>
<path d="M193.544 124.077C193.288 124.077 193.032 124.047 192.786 123.988C190.838 123.545 189.068 121.273 188.871 117.623C188.015 118.715 186.962 119.453 185.821 118.971C183.716 118.075 183.057 113.255 184.09 110.166C184.139 110.018 184.247 109.9 184.385 109.831C184.522 109.762 184.68 109.753 184.827 109.802C184.975 109.851 185.093 109.959 185.162 110.097C185.231 110.235 185.241 110.392 185.191 110.54C184.749 111.868 184.64 113.599 184.906 115.163C185.152 116.58 185.683 117.662 186.274 117.908C186.962 118.203 187.985 117.21 188.999 115.252C189.058 115.134 189.166 115.036 189.284 114.986C189.402 114.937 189.55 114.927 189.678 114.967C189.805 115.006 189.923 115.085 189.992 115.203C190.071 115.311 190.101 115.449 190.091 115.586C189.756 118.715 190.681 122.326 193.052 122.867C194.764 123.26 196.525 121.578 197.617 118.489C197.666 118.341 197.774 118.223 197.912 118.164C198.05 118.095 198.207 118.085 198.355 118.144C198.502 118.194 198.62 118.302 198.679 118.44C198.748 118.577 198.758 118.735 198.699 118.882C198.02 120.781 197.145 122.198 196.072 123.083C195.275 123.752 194.41 124.087 193.534 124.087L193.544 124.077Z" fill="#EF8B8B"/>
<path d="M80.1016 110.963C80.1016 110.963 76.8845 122.867 74.9563 128.976C73.028 135.085 72.0639 138.952 72.0639 138.952C72.0639 138.952 81.3903 143.458 99.4037 146.025C117.417 148.593 135.43 143.448 135.43 143.448C135.43 143.448 132.213 128.651 130.925 122.217C129.636 115.783 129.636 113.855 129.636 113.855L147.974 106.132L143.153 82.6489L118.381 89.7224C118.381 89.7224 119.021 103.555 105.838 104.519C92.645 105.483 94.5831 90.4701 94.5831 90.4701L70.7751 82.3242L63.377 101.951L80.1016 110.963Z" fill="#58C6CD"/>
<path d="M101.823 118.784C101.823 118.784 99.4618 113.855 97.1794 112.635C95.0347 111.494 92.6736 113.55 93.1065 116.069C93.5984 118.971 97.7795 125.228 99.7078 127.992C100.219 128.72 101.252 128.829 101.892 128.209C104.381 125.818 109.949 120.358 111.11 118.213C112.901 114.927 110.53 110.353 106.466 113.786C102.817 116.856 101.823 118.794 101.823 118.794V118.784Z" fill="#585CE5"/>
<path d="M82.1675 104.775L80.1016 110.963" stroke="#C9EBED" stroke-linecap="round" stroke-linejoin="round"/>
<path d="M129.635 113.855L128.779 107.529" stroke="#C9EBED" stroke-linecap="round" stroke-linejoin="round"/>
<path d="M120.201 152.666C120.201 152.666 125.779 163.389 124.491 167.679C123.202 171.968 101.332 199.416 101.332 199.416" stroke="#F5DEDE" stroke-linecap="round" stroke-linejoin="round"/>
<path d="M37.4918 57.7393C37.4918 57.7393 36.9901 59.7069 37.2065 61.4187C37.3738 62.7173 38.0624 63.5634 38.0624 63.5634" stroke="#EEC1C1" stroke-linecap="round" stroke-linejoin="round"/>
<path d="M34.6299 57.562L31.3145 63.1402" stroke="#EEC1C1" stroke-linecap="round" stroke-linejoin="round"/>
<path d="M101.223 92.7822L101.115 94.9859" stroke="#EEC1C1" stroke-linecap="round" stroke-linejoin="round"/>
<path d="M183.636 61.0249L183.026 62.4908C183.026 62.4908 183.243 63.6713 182.81 65.7078C182.377 67.7443 181.846 68.0689 181.846 68.0689" stroke="#EEC1C1" stroke-linecap="round" stroke-linejoin="round"/>
<path d="M187.434 61.7432C187.434 61.7432 187.542 63.6714 188.181 65.2848C188.821 66.8983 189.362 67.8624 189.362 67.8624" stroke="#EEC1C1" stroke-linecap="round" stroke-linejoin="round"/>
<path d="M104.066 76.1757C104.066 76.1757 105.847 77.7104 107.647 77.3169C109.448 76.9233 110.058 75.8608 110.058 75.8608" stroke="#0F2851" stroke-linecap="round" stroke-linejoin="round"/>
<path d="M95.213 62.8946C95.213 62.8946 91.2975 61.5763 90.1366 62.9143C88.6707 64.6162 89.8021 69.2696 92.1337 70.0468C93.1077 70.3813 95.5377 68.7187 95.5377 68.7187L95.2032 62.8847L95.213 62.8946Z" fill="#F5DEDE"/>
<path d="M119.265 64.2915C119.265 64.2915 122.905 62.0189 124.322 63.6717C126.083 65.7278 123.741 69.8008 122.836 70.3418C121.459 71.1682 118.793 69.4171 118.793 69.4171L119.275 64.2915H119.265Z" fill="#F5DEDE"/>
<path d="M91.9844 64.8521L94.4734 66.5343" stroke="#EEC1C1" stroke-linecap="round" stroke-linejoin="round"/>
<path d="M123.339 65.5015L120.467 67.292" stroke="#EEC1C1" stroke-linecap="round" stroke-linejoin="round"/>
<path d="M184.698 177.172C188.171 172.696 187.453 166.331 183.104 162.957L170.531 179.179C174.88 182.554 181.225 181.649 184.688 177.172H184.698Z" fill="#EEC1C1"/>
<path d="M68.6694 15.0717C72.6341 16.8917 77.2875 15.2487 79.0584 11.4021L64.6949 4.80078C62.924 8.64744 64.7047 13.2516 68.6694 15.0717Z" fill="#A1A3F6"/>
<path d="M20.8277 229.757C25.4896 229.757 29.2687 225.977 29.2687 221.316C29.2687 216.654 25.4896 212.875 20.8277 212.875C16.1659 212.875 12.3867 216.654 12.3867 221.316C12.3867 225.977 16.1659 229.757 20.8277 229.757Z" fill="#F2D382"/>
<path d="M136.394 17.3346C141.056 17.3346 144.835 13.5555 144.835 8.89364C144.835 4.2318 141.056 0.452637 136.394 0.452637C131.732 0.452637 127.953 4.2318 127.953 8.89364C127.953 13.5555 131.732 17.3346 136.394 17.3346Z" fill="#58C6CD"/>
<path fill-rule="evenodd" clip-rule="evenodd" d="M175.47 257.136C173.985 253.653 169.715 252.128 165.937 253.742L164.363 250.053C170.355 247.495 177.133 249.905 179.484 255.434C181.836 260.963 178.884 267.505 172.893 270.063L171.319 266.374C175.097 264.76 176.966 260.628 175.48 257.146L175.47 257.136Z" fill="#A1A3F6"/>
<path fill-rule="evenodd" clip-rule="evenodd" d="M45.6182 152.774C41.3092 157.152 41.6732 164.501 46.425 169.184L41.8601 173.827C34.3144 166.41 33.7438 154.761 40.5812 147.816C47.4186 140.87 59.0668 141.244 66.6125 148.662L62.0477 153.305C57.2861 148.622 49.9371 148.386 45.6281 152.764L45.6182 152.774Z" fill="#C9EBED"/>
<path d="M99.4629 47.3701C99.4629 47.3701 102.542 53.1352 107.776 53.5385C113.01 53.9419 118.362 52.0628 123.32 57.0212C128.278 61.9795 130.344 70.214 137.526 68.5415C144.708 66.869 148.653 62.6485 156.022 66.3968C163.39 70.1451 167.817 66.1312 167.817 66.1312" stroke="#585CE5" stroke-linecap="round" stroke-linejoin="round"/>
<path d="M91.5522 91.7197C91.5522 91.7197 91.1488 96.8158 92.8901 99.8951C94.6314 102.974 96.5105 104.716 99.4521 106.329C101.823 107.618 105.217 107.933 105.217 107.933" stroke="#C9EBED" stroke-linecap="round" stroke-linejoin="round"/>
<path d="M193.268 62.5498L200.243 59.9624" stroke="#EEC1C1" stroke-linecap="round" stroke-linejoin="round"/>
<path d="M22.2734 52.8892L28.3041 57.3458" stroke="#EEC1C1" stroke-linecap="round" stroke-linejoin="round"/>
</svg>
