<svg width="10" height="18" viewBox="0 0 10 18" fill="none" xmlns="http://www.w3.org/2000/svg">
<path d="M10.002 9C9.99219 8.6582 9.86523 8.36523 9.60156 8.10156L2.00391 0.669922C1.7793 0.455078 1.51562 0.337891 1.19336 0.337891C0.539062 0.337891 0.03125 0.845703 0.03125 1.5C0.03125 1.8125 0.158203 2.10547 0.382812 2.33008L7.21875 9L0.382812 15.6699C0.158203 15.8945 0.03125 16.1777 0.03125 16.5C0.03125 17.1543 0.539062 17.6621 1.19336 17.6621C1.50586 17.6621 1.7793 17.5449 2.00391 17.3301L9.60156 9.88867C9.875 9.63477 10.002 9.3418 10.002 9Z" fill="#0F2851"/>
</svg>
