<svg width="18" height="17" viewBox="0 0 18 17" fill="none" xmlns="http://www.w3.org/2000/svg">
<path d="M16.3386 6.84051H16.38L16.4021 6.83867C16.4083 6.83874 16.4191 6.83908 16.4328 6.84031C16.462 6.84295 16.4878 6.8481 16.5072 6.85388C16.5116 6.87529 16.5161 6.90942 16.5165 6.95989C16.5163 6.96554 16.5159 6.97791 16.5147 6.99747C16.5123 7.03992 16.5069 7.11583 16.4948 7.23003C16.4707 7.45871 16.4202 7.83857 16.3153 8.40784C16.1054 9.54597 15.6797 11.4305 14.8176 14.3631L14.8162 14.3674C14.8134 14.3762 14.8086 14.3907 14.8021 14.4101C14.7889 14.449 14.7689 14.5066 14.7427 14.5767C14.6893 14.7193 14.615 14.9014 14.5272 15.0766C14.4589 15.213 14.395 15.3195 14.3416 15.3938H7.52772C7.50151 15.3938 7.41206 15.3871 7.28477 15.3561C7.16187 15.3262 7.03961 15.2823 6.939 15.2292C6.85123 15.1829 6.80519 15.1431 6.78516 15.1217V6.39513C7.04789 6.21675 7.38937 5.96361 7.7553 5.63605C8.53259 4.94023 9.46999 3.8638 9.95003 2.40737L9.97858 2.32076L9.97879 2.31926C9.98443 2.31131 9.99147 2.30191 10.0001 2.29123C10.0546 2.22389 10.1416 2.14353 10.2531 2.07947C10.4513 1.96559 10.7247 1.89756 11.1032 2.07067L11.2115 2.12019C11.3039 2.40355 11.4028 3.30819 10.6972 5.53894L10.2855 6.84051H11.6507H16.3386ZM16.4983 6.82414C16.4984 6.82408 16.499 6.82531 16.5001 6.82804C16.4987 6.82557 16.4982 6.82421 16.4983 6.82414ZM14.2572 15.4923C14.2572 15.4918 14.2616 15.4874 14.2704 15.4807C14.2616 15.4895 14.2572 15.4929 14.2572 15.4923Z" stroke="black" stroke-opacity="0.56" stroke-width="2"/>
<path fill-rule="evenodd" clip-rule="evenodd" d="M3.86058 5.84353H1.05348C0.473785 5.84353 0.464844 6.41293 0.464844 6.41293L1.46683 15.8374C1.46683 16.4346 2.0651 16.4346 2.0651 16.4346L4.07245 16.3938C4.57855 16.3938 4.57402 15.9987 4.57402 15.9987V6.55515C4.57402 5.83449 3.86058 5.84353 3.86058 5.84353Z" fill="black" fill-opacity="0.56"/>
</svg>
