<svg width="18" height="18" viewBox="0 0 18 18" fill="none" xmlns="http://www.w3.org/2000/svg">
<path d="M9.87316 1.42462C9.56087 1.19123 9.40473 1.07454 9.23231 1.02968C9.08018 0.990105 8.91983 0.990105 8.76769 1.02968C8.59527 1.07454 8.43913 1.19123 8.12684 1.42462L2.09812 5.93011C1.69513 6.23128 1.49363 6.38187 1.34847 6.57046C1.21988 6.73751 1.12409 6.9257 1.0658 7.12579C1 7.35167 1 7.59695 1 8.08751V14.2669C1 15.2236 1 15.7019 1.19377 16.0673C1.36421 16.3887 1.63617 16.65 1.97068 16.8138C2.35097 17 2.8488 17 3.84444 17H5.62222C5.87113 17 5.99559 17 6.09066 16.9535C6.17429 16.9125 6.24228 16.8472 6.28489 16.7668C6.33333 16.6755 6.33333 16.5559 6.33333 16.3167V10.6796C6.33333 10.2013 6.33333 9.96214 6.43022 9.77943C6.51544 9.61872 6.65142 9.48806 6.81868 9.40618C7.00882 9.31309 7.25773 9.31309 7.75556 9.31309H10.2444C10.7423 9.31309 10.9912 9.31309 11.1813 9.40618C11.3486 9.48806 11.4846 9.61872 11.5698 9.77943C11.6667 9.96214 11.6667 10.2013 11.6667 10.6796V16.3167C11.6667 16.5559 11.6667 16.6755 11.7151 16.7668C11.7577 16.8472 11.8257 16.9125 11.9093 16.9535C12.0044 17 12.1289 17 12.3778 17H14.1556C15.1512 17 15.649 17 16.0293 16.8138C16.3638 16.65 16.6358 16.3887 16.8062 16.0673C17 15.7019 17 15.2236 17 14.2669V8.08751C17 7.59695 17 7.35167 16.9342 7.12579C16.8759 6.9257 16.7801 6.73751 16.6515 6.57046C16.5064 6.38187 16.3049 6.23129 15.9019 5.93011L9.87316 1.42462Z" fill="white" stroke="#DDDDDD" stroke-width="2" stroke-linecap="round" stroke-linejoin="round"/>
</svg>
