<svg xmlns="http://www.w3.org/2000/svg" width="12" height="16" viewBox="0 0 12 16" fill="none">
  <path d="M2.62348 0.701904C2.42306 0.701904 2.24587 0.835101 2.18602 1.03075L0.0364984 8.06195C-0.00698238 8.20424 0.0182884 8.35932 0.104635 8.47953C0.191083 8.59965 0.328172 8.67059 0.473967 8.67059H2.19536L0.231918 15.0932C0.168284 15.3013 0.253403 15.5268 0.437244 15.6373C0.621085 15.7478 0.855054 15.714 1.00188 15.5558L9.48275 6.41522C9.60889 6.27931 9.64367 6.07968 9.57145 5.90745C9.49912 5.73533 9.33349 5.62379 9.15026 5.62379H7.0434L10.8891 1.494C11.0156 1.35819 11.0508 1.15835 10.9786 0.986013C10.9063 0.813686 10.7406 0.701953 10.5573 0.701953L2.62348 0.701904Z" fill="#344161"/>
</svg>