<svg xmlns="http://www.w3.org/2000/svg" width="32" height="36" viewBox="0 0 32 36" fill="none">
  <g clip-path="url(#clip0_3381_50547)">
    <path d="M12.4 32.8297C12.2947 32.8297 12.1899 32.8297 12.0845 32.8099C11.7429 32.7302 11.428 32.5715 11.2179 32.3526C11.0078 32.134 10.9554 31.8556 11.0602 31.5573L15.8938 16.5034L16.6294 16.5828C17.0234 16.6224 17.4174 16.6819 17.8115 16.7418L18.5995 16.881L13.7397 32.0345C13.582 32.4914 13.0303 32.8297 12.4 32.8297Z" fill="#FF5A5A"/>
    <path d="M16.4971 17.1789C16.8387 17.1987 17.2327 17.2781 17.5743 17.3181L12.8985 31.8552C12.8461 32.0539 12.6098 32.1733 12.3467 32.1733H12.2152C11.926 32.1336 11.7421 31.875 11.795 31.6763L16.4971 17.1789ZM15.2621 15.8069L14.9205 16.8806L10.2708 31.3776C10.1393 31.8151 10.2446 32.2724 10.5338 32.6302C10.8487 33.0082 11.3219 33.2863 11.8998 33.3858C12.0575 33.4057 12.2414 33.4255 12.3991 33.4255C13.4235 33.4255 14.3168 32.8884 14.527 32.153L19.2028 17.616L19.5968 16.4027L17.994 16.1044C17.5738 16.0251 17.1274 15.9652 16.7334 15.9453L15.2621 15.8069Z" fill="#4C2F1B"/>
    <path d="M26.2949 34.7784H6.82908C6.54037 34.7784 6.27734 34.5793 6.27734 34.3607V8.8465C6.27734 8.62794 6.53985 8.42883 6.82908 8.42883H26.2949C26.5841 8.42883 26.8466 8.62794 26.8466 8.8465V34.3607C26.8466 34.5995 26.6103 34.7784 26.2949 34.7784Z" fill="white"/>
    <path d="M6.33203 19.6051C6.33203 19.6051 12.19 15.9857 18.2585 17.4577C24.3265 18.9292 26.8751 17.1193 26.8751 17.1193V33.4461C26.8751 34.2017 26.0871 34.7784 25.1151 34.7784H8.09203C7.09387 34.7784 6.33203 34.1818 6.33203 33.4461V19.6051Z" fill="#FFFDAB"/>
    <path d="M12.4 32.8297C12.2947 32.8297 12.1899 32.8297 12.0845 32.8099C11.7429 32.7302 11.428 32.5715 11.2179 32.3526C11.0078 32.134 10.9554 31.8556 11.0602 31.5573L19.7821 4.45173C19.9136 4.1134 20.2285 3.83534 20.6749 3.69612L29.3968 1.48879C29.5546 1.44873 29.6856 1.44873 29.8433 1.44873C30.4474 1.44873 30.9467 1.74701 31.1568 2.14484C31.2884 2.40345 31.2622 2.70173 31.1044 2.94051C30.9467 3.1789 30.658 3.37801 30.3164 3.47756L22.3039 5.48618L13.7403 32.0345C13.582 32.4914 13.0303 32.8297 12.4 32.8297Z" fill="#FF5A5A"/>
    <path d="M29.7913 2.0655C30.0014 2.0655 30.2377 2.18489 30.2906 2.36378C30.3954 2.58233 30.2382 2.82111 29.949 2.90083L21.5163 5.04867L12.8997 31.8948C12.8473 32.0939 12.611 32.2129 12.348 32.2129H12.2165C11.9272 32.1733 11.7433 31.9147 11.7962 31.7159L20.5705 4.59094C20.5967 4.45172 20.7544 4.35256 20.9122 4.29267L29.6335 2.08533C29.6597 2.0655 29.7389 2.0655 29.7913 2.0655ZM29.7913 0.8125C29.5811 0.8125 29.3181 0.832333 29.0818 0.912056L20.3604 3.11939C19.6248 3.31811 19.0992 3.73578 18.9415 4.29267L10.2463 31.378C9.95764 32.2728 10.6933 33.1875 11.8753 33.4064C12.0331 33.4263 12.217 33.4461 12.3742 33.4461C13.3985 33.4461 14.2919 32.9091 14.502 32.1733L22.9347 5.98278L30.5002 4.05389C31.0781 3.91467 31.5245 3.61639 31.7609 3.21856C32.0234 2.80089 32.0758 2.38322 31.8924 1.94572C31.5775 1.26983 30.7632 0.8125 29.7913 0.8125Z" fill="#4C2F1B"/>
    <path d="M25.9265 35.8125H7.22303C5.96185 35.8125 4.9375 35.0371 4.9375 34.0823V9.14484C4.9375 8.19051 5.96237 7.41467 7.22303 7.41467H25.927C27.1882 7.41467 28.2125 8.19012 28.2125 9.14484V34.0823C28.212 35.0371 27.1876 35.8125 25.9265 35.8125ZM7.69565 33.7444H25.48V9.50301H7.69565V33.7444Z" fill="#4C2F1B"/>
    <path d="M23.7231 32.0738L22.016 32.5509C21.8583 32.5906 21.622 32.5311 21.5691 32.4117L20.9387 31.119C20.8863 30.9997 20.9649 30.8208 21.1226 30.7811L22.8297 30.3039C22.9874 30.2639 23.2237 30.3238 23.2767 30.4432L23.907 31.7358C23.9861 31.8949 23.8808 32.0341 23.7231 32.0738ZM16.2891 31.9548L16.3415 30.881C16.3415 30.7815 16.473 30.722 16.604 30.722L18.0223 30.7617C18.1539 30.7617 18.2325 30.8612 18.2325 30.9604L18.1795 32.0341C18.1795 32.1337 18.0485 32.1932 17.917 32.1932L16.4987 32.1535C16.3677 32.1535 16.2891 32.0539 16.2891 31.9548ZM19.2311 30.2048L18.0491 29.6082C17.9967 29.5685 17.9443 29.4888 18.0229 29.4492L18.8109 28.5543C18.8633 28.5147 18.9686 28.475 19.021 28.5345L20.2031 29.131C20.2555 29.1707 20.3084 29.2504 20.2293 29.2901L19.4412 30.1849C19.3888 30.2246 19.3097 30.2444 19.2311 30.2048Z" fill="#FFEE88"/>
    <path d="M22.7758 25.75H22.0664C21.8039 25.75 21.5938 25.591 21.5938 25.3923V20.1621C21.5938 19.9634 21.8039 19.8043 22.0664 19.8043H22.7758C23.0383 19.8043 23.2484 19.9634 23.2484 20.1621V25.3923C23.2484 25.591 23.0116 25.75 22.7758 25.75Z" fill="white"/>
    <path d="M12.4 32.8297C12.2947 32.8297 12.1899 32.8297 12.0845 32.8099C11.7429 32.7302 11.428 32.5715 11.2179 32.3526C11.0078 32.134 10.9554 31.8556 11.0602 31.5573L15.8938 16.5034L16.6294 16.5828C17.0234 16.6224 17.4174 16.6819 17.8115 16.7418L18.5995 16.881L13.7397 32.0345C13.582 32.4914 13.0303 32.8297 12.4 32.8297Z" fill="#FFB69C"/>
    <path d="M16.4971 17.1789C16.8387 17.1987 17.2327 17.2781 17.5743 17.3181L12.8985 31.8552C12.8461 32.0539 12.6098 32.1733 12.3467 32.1733H12.2152C11.926 32.1336 11.7421 31.875 11.795 31.6763L16.4971 17.1789ZM15.2621 15.8069L14.9205 16.8806L10.2708 31.3776C10.1393 31.8151 10.2446 32.2724 10.5338 32.6302C10.8487 33.0082 11.3219 33.2863 11.8998 33.3858C12.0575 33.4057 12.2414 33.4255 12.3991 33.4255C13.4235 33.4255 14.3168 32.8884 14.527 32.153L19.2028 17.616L19.5968 16.4027L17.994 16.1044C17.5738 16.0251 17.1274 15.9652 16.7334 15.9453L15.2621 15.8069Z" fill="#4C2F1B"/>
    <path d="M21.5938 27.4405C21.5938 27.7812 21.9585 28.0569 22.4085 28.0569C22.858 28.0569 23.2227 27.7812 23.2227 27.4405C23.2227 27.1002 22.858 26.8241 22.4085 26.8241C21.9585 26.8241 21.5938 27.0998 21.5938 27.4405Z" fill="white"/>
    <path d="M25.086 35.8125H8.08967C6.38207 35.8125 4.9375 34.7586 4.9375 33.4263V19.6052C4.9375 19.287 5.12141 19.0086 5.43683 18.7897C5.69934 18.6306 11.9513 14.8323 18.624 16.4629C23.7201 17.6957 25.8217 16.3836 25.9008 16.3237C26.321 16.0254 26.8989 15.9854 27.3721 16.125C27.8709 16.284 28.1863 16.6819 28.1863 17.0797V33.4064C28.212 34.7586 26.8198 35.8125 25.086 35.8125ZM7.69565 20.1422V33.4263C7.69565 33.5853 7.85336 33.7245 8.08967 33.7245H25.1127C25.3229 33.7245 25.5068 33.5853 25.5068 33.4263V18.7897C23.8783 19.1478 21.3821 19.3267 17.8359 18.4517C13.5274 17.4177 9.16643 19.3862 7.69565 20.1422Z" fill="#4C2F1B"/>
    <path d="M2.44413 11.0329C4.58788 12.6561 8.06472 12.6561 10.2085 11.0329C12.3527 9.4097 12.3527 6.77809 10.2085 5.15487C8.06472 3.53204 4.58788 3.53204 2.44413 5.15487C0.299873 6.77809 0.299873 9.4097 2.44413 11.0329Z" fill="#FFFA94"/>
    <path d="M6.48811 6.7586H6.14649C6.01498 6.7586 5.93638 6.67927 5.93638 6.59954V5.70471C5.93638 5.60515 6.04118 5.54565 6.14649 5.54565H6.48811C6.61963 5.54565 6.69823 5.62538 6.69823 5.70471V6.59954C6.69823 6.67888 6.61911 6.7586 6.48811 6.7586ZM4.54369 7.97154V8.23015C4.54369 8.32971 4.43889 8.38921 4.33358 8.38921H3.15152C3.02001 8.38921 2.94141 8.30949 2.94141 8.23015V7.97154C2.94141 7.87199 3.04672 7.81249 3.15152 7.81249H4.33358C4.46509 7.79265 4.54369 7.87199 4.54369 7.97154ZM6.14649 9.42327H6.48811C6.61963 9.42327 6.69823 9.50299 6.69823 9.58232V10.4772C6.69823 10.5767 6.59291 10.6362 6.48811 10.6362H6.14649C6.01498 10.6362 5.93638 10.5565 5.93638 10.4772V9.58232C5.91018 9.50299 6.01498 9.42327 6.14649 9.42327ZM8.0904 8.23015V7.97154C8.0904 7.87199 8.19571 7.81249 8.30051 7.81249H9.48258C9.61409 7.81249 9.69269 7.89182 9.69269 7.97154V8.23015C9.69269 8.32971 9.58789 8.38921 9.48258 8.38921H8.30051C8.16951 8.42888 8.0904 8.32932 8.0904 8.23015Z" fill="#242424"/>
    <path d="M6.33106 12.8638C4.64966 12.8638 3.04737 12.3664 1.8386 11.4716C0.630332 10.5569 0 9.34396 0 8.07113C0 6.7983 0.656531 5.58535 1.83911 4.6703C3.04737 3.75563 4.65017 3.27808 6.33157 3.27808C8.01297 3.27808 9.61526 3.77546 10.8235 4.6703C12.0323 5.58535 12.6626 6.7983 12.6626 8.07113C12.6626 9.34396 12.0061 10.5569 10.8235 11.472C9.61474 12.3862 8.01246 12.8638 6.33106 12.8638ZM6.33106 4.57113C5.12228 4.57113 3.94073 4.90947 3.02117 5.60519C1.20826 6.97719 1.20826 9.24441 3.02117 10.6164C4.83357 11.9884 7.82855 11.9884 9.64094 10.6164C11.4533 9.24441 11.4533 6.97719 9.64094 5.60519C8.72139 4.90908 7.51312 4.57113 6.33106 4.57113Z" fill="#4C2F1B"/>
  </g>
  <defs>
    <clipPath id="clip0_3381_50547">
      <rect width="32" height="35" fill="white" transform="translate(0 0.8125)"/>
    </clipPath>
  </defs>
</svg>