<svg xmlns="http://www.w3.org/2000/svg" width="12" height="16" viewBox="0 0 12 16" fill="none">
  <path d="M11.0194 9.99565C11.0194 12.2256 9.80857 14.3025 7.93476 15.2868L7.78271 15.3667L7.85432 15.2023C8.86747 12.8711 8.046 11.654 7.32129 10.5802C6.72664 9.69899 6.21335 8.93826 6.56601 7.67069C6.58153 7.61504 6.56236 7.55487 6.51839 7.52076C6.47558 7.48739 6.4142 7.48689 6.37058 7.5195C4.30254 9.06113 3.60827 11.0088 4.30687 13.3085L4.34591 13.4373L4.2282 13.3881C3.87627 13.2412 3.56594 12.7499 3.30582 11.9284C3.291 11.8816 3.25373 11.847 3.20834 11.8378C3.16342 11.8287 3.11662 11.8466 3.08687 11.8843C2.48634 12.6517 2.33243 13.658 2.62909 14.8748L2.66801 15.034L2.53878 14.9448C0.96121 13.8563 0.0195312 12.0061 0.0195312 9.99565C0.0195312 8.33203 0.719785 6.52765 1.80382 5.39872L1.88484 5.31437L1.90448 5.43346C2.06193 6.38556 2.38212 7.4161 2.71385 7.4288C2.86743 7.43585 2.97255 7.27169 3.02301 6.94174C3.02419 6.93457 3.02477 6.92714 3.02477 6.91984C3.02477 3.86628 4.52426 1.06668 6.5128 0.406984L6.63462 0.366699L6.58582 0.492841C6.35252 1.09472 6.00023 2.00402 6.21718 2.78667C6.43637 3.57762 6.87863 4.20619 7.30618 4.8141C7.99042 5.78659 8.63637 6.70521 8.50925 8.28049C8.50466 8.33852 8.53488 8.39353 8.58462 8.41733C8.63436 8.44087 8.69281 8.42815 8.72984 8.3856C9.20914 7.83583 9.22218 6.46781 9.07473 5.37056L9.04922 5.18009L9.17633 5.31618C10.2788 6.49551 11.0195 8.37602 11.0195 9.99561L11.0194 9.99565Z" fill="#344161"/>
</svg>