<svg width="15" height="11" viewBox="0 0 15 11" fill="none" xmlns="http://www.w3.org/2000/svg">
<path id="Vector" d="M0.815303 7.76874V7.07176C0.81462 7.00057 0.845096 6.93256 0.898661 6.8856C0.952222 6.83852 1.02353 6.81725 1.09415 6.82726L13.9735 8.65157C14.0951 8.66874 14.1851 8.77336 14.1839 8.89607V9.74056C14.1847 9.81232 14.1539 9.88078 14.0998 9.92786C14.0456 9.97494 13.9736 9.99587 13.9027 9.98518L1.0233 8.01167H1.02319C0.902643 7.99336 0.81394 7.88908 0.815305 7.76717L0.815303 7.76874ZM0.815303 5.75293V5.05434C0.814734 4.98349 0.844869 4.91594 0.897863 4.86909C0.950857 4.82224 1.02148 4.80052 1.09164 4.80973L13.971 6.48484H13.9712C14.0936 6.50098 14.185 6.60583 14.1839 6.72945V7.57645V7.57634C14.1846 7.64764 14.1541 7.71565 14.1006 7.76261C14.047 7.80958 13.9757 7.83096 13.9051 7.82095L1.02568 5.99664C0.904117 5.97947 0.814165 5.87484 0.8153 5.75203L0.815303 5.75293ZM14.9989 6.14094H14.9991C15.0003 6.12491 15.0003 6.10876 14.9991 6.09284C14.9991 6.08545 14.9991 6.07896 14.995 6.07169C14.9909 6.06429 14.986 6.03746 14.9803 6.02028L14.9754 6.00641C14.9676 5.98628 14.958 5.96695 14.9469 5.94853C14.9184 5.90122 14.8807 5.86016 14.836 5.82787L7.28186 0.0819207C7.20646 0.0251744 7.11366 -0.00371096 7.01939 0.000382263C5.47063 0.0590616 4.0074 0.41445 2.79923 1.0275C1.25047 1.81331 0.259274 2.95211 0.00739186 4.23338V4.24316V4.24305C0.00295686 4.26568 0.00045503 4.28853 0 4.31162V8.11838V8.11827C0.000227427 8.27407 0.056065 8.42462 0.157618 8.54267C0.259172 8.66083 0.399617 8.73873 0.553491 8.76227L14.248 10.8604H14.2482C14.2808 10.8653 14.3138 10.8678 14.3468 10.8678C14.5212 10.8678 14.6882 10.798 14.8108 10.6739C14.9333 10.5498 15.0011 10.3819 14.9989 10.2075V6.1536V6.13733L14.9989 6.14094Z" fill="#344161"/>
</svg>
