<svg width="80" height="21" viewBox="0 0 80 21" fill="none" xmlns="http://www.w3.org/2000/svg">
<path d="M7.504 7.628H10.528V9.126H7.504V7.628ZM9.548 4.296H11.41V13.746H9.548V4.296ZM2.856 15.538H11.704V17.022H2.856V15.538ZM2.856 12.948H4.718V16.42H2.856V12.948ZM3.556 5.99H5.068V6.802C5.068 9.238 3.92 11.492 1.428 12.318L0.49 10.834C2.632 10.134 3.556 8.44 3.556 6.802V5.99ZM3.948 5.99H5.446V6.802C5.446 8.314 6.328 9.924 8.372 10.61L7.462 12.066C5.054 11.268 3.948 9.112 3.948 6.802V5.99ZM0.994 5.164H7.966V6.634H0.994V5.164ZM18.8849 9.196H20.9429V10.694H18.8849V9.196ZM15.8749 7.88H17.2749V8.216C17.2749 10.918 16.4909 13.62 14.4189 14.81L13.3689 13.41C15.2169 12.332 15.8749 10.204 15.8749 8.216V7.88ZM16.2389 7.88H17.6389V8.216C17.6389 10.176 18.3109 12.15 20.1449 13.13L19.1369 14.502C17.0369 13.41 16.2389 10.876 16.2389 8.216V7.88ZM13.8589 6.452H19.6409V7.95H13.8589V6.452ZM15.8749 4.716H17.6389V7.67H15.8749V4.716ZM22.9729 4.282H24.7369V17.246H22.9729V4.282ZM20.3549 4.492H22.0909V16.658H20.3549V4.492ZM30.4725 14.236H42.2045V15.748H30.4725V14.236ZM35.3865 11.464H37.2485V14.6H35.3865V11.464ZM31.7045 5.108H33.5525V7.096H39.0825V5.108H40.9305V11.856H31.7045V5.108ZM33.5525 8.552V10.372H39.0825V8.552H33.5525ZM52.4374 4.282H54.3134V17.246H52.4374V4.282ZM48.6154 5.626H50.4634C50.4634 9.588 49.1194 12.836 44.5134 15.062L43.5474 13.578C47.2714 11.786 48.6154 9.434 48.6154 5.962V5.626ZM44.2334 5.626H49.4974V7.096H44.2334V5.626Z" fill="#585CE5"/>
<path fill-rule="evenodd" clip-rule="evenodd" d="M70.7428 4.35713C70.5067 4.60987 70.5075 5.01877 70.7447 5.27043L74.594 9.35459H63.94L63.8578 9.36049C63.562 9.40325 63.334 9.67345 63.334 10.0004C63.334 10.3571 63.6053 10.6462 63.94 10.6462H74.5928L70.7446 14.7303L70.6858 14.8026C70.5093 15.055 70.5282 15.4138 70.7429 15.6436C70.9791 15.8963 71.3628 15.8971 71.6 15.6455L76.4746 10.4726C76.588 10.3598 76.6607 10.2011 76.6668 10.0243C76.6729 9.85054 76.6135 9.67467 76.4887 9.54226L71.5999 4.35516L71.5318 4.29279C71.2942 4.10574 70.9575 4.12736 70.7428 4.35713Z" fill="#585CE5"/>
</svg>
