<svg width="24" height="24" viewBox="0 0 24 24" fill="none" xmlns="http://www.w3.org/2000/svg">
<path d="M3.50281 8.4341C4.96791 8.39291 6.40898 8.81264 7.62281 9.6341C8.15611 8.66533 8.99554 7.90069 10.0097 7.45983C11.0239 7.01898 12.1556 6.92679 13.2278 7.19769C14.3 7.46859 15.2521 8.08729 15.9352 8.95698C16.6182 9.82667 16.9937 10.8983 17.0028 12.0041C17.0028 12.6441 18.3628 13.5741 20.5028 13.5741C22.6428 13.5741 24.0028 12.6441 24.0028 12.0041C24.0038 9.08267 22.939 6.26121 21.0082 4.06883C19.0773 1.87646 16.4129 0.463762 13.5148 0.0956645C10.6166 -0.272433 7.68375 0.429356 5.26612 2.06942C2.84848 3.70949 1.11218 6.17518 0.382812 9.0041C1.3724 8.60105 2.43464 8.40699 3.50281 8.4341Z" fill="#866539"/>
<path d="M20.5 15.5741C19.0349 15.6153 17.5938 15.1956 16.38 14.3741C15.8467 15.3429 15.0073 16.1075 13.9931 16.5484C12.9789 16.9892 11.8472 17.0814 10.775 16.8105C9.70283 16.5396 8.75072 15.9209 8.06765 15.0512C7.38459 14.1815 7.00912 13.1099 7 12.0041C7 11.3641 5.64 10.4341 3.5 10.4341C1.36 10.4341 6.91637e-07 11.3641 6.91637e-07 12.0041C-0.000990674 14.9255 1.06379 17.747 2.99466 19.9394C4.92553 22.1317 7.58986 23.5444 10.488 23.9125C13.3862 24.2806 16.3191 23.5788 18.7367 21.9388C21.1543 20.2987 22.8906 17.833 23.62 15.0041C22.6304 15.4071 21.5682 15.6012 20.5 15.5741Z" fill="#FDBA55"/>
<path d="M10 4.0041H9C8.73478 4.0041 8.48043 3.89875 8.29289 3.71121C8.10536 3.52367 8 3.26932 8 3.0041C8 2.73889 8.10536 2.48453 8.29289 2.297C8.48043 2.10946 8.73478 2.0041 9 2.0041H10C10.2652 2.0041 10.5196 2.10946 10.7071 2.297C10.8946 2.48453 11 2.73889 11 3.0041C11 3.26932 10.8946 3.52367 10.7071 3.71121C10.5196 3.89875 10.2652 4.0041 10 4.0041Z" fill="#65F7C4"/>
<path d="M14 5.0041C13.7348 5.0041 13.4804 4.89875 13.2929 4.71121C13.1054 4.52367 13 4.26932 13 4.0041V3.0041C13 2.73889 13.1054 2.48453 13.2929 2.297C13.4804 2.10946 13.7348 2.0041 14 2.0041C14.2652 2.0041 14.5196 2.10946 14.7071 2.297C14.8946 2.48453 15 2.73889 15 3.0041V4.0041C15 4.26932 14.8946 4.52367 14.7071 4.71121C14.5196 4.89875 14.2652 5.0041 14 5.0041Z" fill="white"/>
<path d="M17 7.0041C16.7348 7.0041 16.4804 6.89875 16.2929 6.71121C16.1054 6.52367 16 6.26932 16 6.0041V5.0041C16 4.73889 16.1054 4.48453 16.2929 4.297C16.4804 4.10946 16.7348 4.0041 17 4.0041C17.2652 4.0041 17.5196 4.10946 17.7071 4.297C17.8946 4.48453 18 4.73889 18 5.0041V6.0041C18 6.26932 17.8946 6.52367 17.7071 6.71121C17.5196 6.89875 17.2652 7.0041 17 7.0041Z" fill="#E5B745"/>
<path d="M20 10.0041H19C18.7348 10.0041 18.4804 9.89875 18.2929 9.71121C18.1054 9.52367 18 9.26932 18 9.0041C18 8.73889 18.1054 8.48453 18.2929 8.297C18.4804 8.10946 18.7348 8.0041 19 8.0041H20C20.2652 8.0041 20.5196 8.10946 20.7071 8.297C20.8946 8.48453 21 8.73889 21 9.0041C21 9.26932 20.8946 9.52367 20.7071 9.71121C20.5196 9.89875 20.2652 10.0041 20 10.0041Z" fill="#65F7C4"/>
<path d="M6 7.0041C5.73478 7.0041 5.48043 6.89875 5.29289 6.71121C5.10536 6.52367 5 6.26932 5 6.0041V5.0041C5 4.73889 5.10536 4.48453 5.29289 4.297C5.48043 4.10946 5.73478 4.0041 6 4.0041C6.26522 4.0041 6.51957 4.10946 6.70711 4.297C6.89464 4.48453 7 4.73889 7 5.0041V6.0041C7 6.26932 6.89464 6.52367 6.70711 6.71121C6.51957 6.89875 6.26522 7.0041 6 7.0041Z" fill="#E5B745"/>
</svg>
