<svg width="24" height="27" viewBox="0 0 24 27" fill="none" xmlns="http://www.w3.org/2000/svg">
<path d="M1.00079 26.7538C0.869186 26.7547 0.738724 26.7256 0.616886 26.6682C0.495049 26.6107 0.384233 26.5261 0.290792 26.4192C0.104542 26.2031 0 25.9107 0 25.6059C0 25.3011 0.104542 25.0087 0.290792 24.7925L7.36079 16.6245C7.45403 16.5169 7.56472 16.4316 7.68654 16.3734C7.80836 16.3152 7.93893 16.2852 8.07079 16.2852C8.20265 16.2852 8.33322 16.3152 8.45504 16.3734C8.57686 16.4316 8.68755 16.5169 8.78079 16.6245C8.87403 16.7321 8.94799 16.8598 8.99845 17.0003C9.04891 17.1409 9.07488 17.2915 9.07488 17.4436C9.07488 17.5957 9.04891 17.7464 8.99845 17.8869C8.94799 18.0275 8.87403 18.1552 8.78079 18.2627L1.70079 26.4192C1.51453 26.6324 1.26313 26.7525 1.00079 26.7538Z" fill="#E4B780"/>
<path d="M20.5476 3.04571C19.2894 1.59232 17.6858 0.602141 15.9396 0.200459C14.1935 -0.201222 12.3833 0.00364287 10.7381 0.789135C9.09294 1.57463 7.68667 2.90545 6.69724 4.61322C5.70781 6.32099 5.17969 8.32897 5.17969 10.3831C5.17969 12.4372 5.70781 14.4452 6.69724 16.153C7.68667 17.8608 9.09294 19.1916 10.7381 19.9771C12.3833 20.7626 14.1935 20.9674 15.9396 20.5657C17.6858 20.1641 19.2894 19.1739 20.5476 17.7205C22.233 15.7737 23.1797 13.1346 23.1797 10.3831C23.1797 7.63157 22.233 4.99255 20.5476 3.04571Z" fill="#FF3776"/>
<path d="M18.4287 5.49122C17.8794 4.81114 17.217 4.26566 16.481 3.88733C15.745 3.509 14.9505 3.30556 14.1449 3.28916C13.3393 3.27276 12.5391 3.44374 11.7919 3.79188C11.0448 4.14002 10.3662 4.6582 9.79642 5.31551C9.22667 5.97282 8.77752 6.75579 8.47575 7.6177C8.17398 8.47962 8.02578 9.40283 8.04 10.3323C8.05421 11.2617 8.23054 12.1783 8.55848 13.0274C8.88642 13.8765 9.35923 14.6407 9.94873 15.2744C10.498 15.9545 11.1604 16.5 11.8964 16.8783C12.6324 17.2566 13.4269 17.4601 14.2325 17.4765C15.0382 17.4929 15.8384 17.3219 16.5855 16.9738C17.3326 16.6256 18.0113 16.1074 18.581 15.4501C19.1508 14.7928 19.5999 14.0098 19.9017 13.1479C20.2035 12.286 20.3517 11.3628 20.3375 10.4334C20.3232 9.50394 20.1469 8.58734 19.819 7.73824C19.491 6.88914 19.0182 6.12494 18.4287 5.49122Z" fill="#FFD3C7"/>
<path d="M16.3108 7.93769C15.7421 7.32634 14.9899 6.99351 14.2127 7.00933C13.4355 7.02515 12.694 7.38838 12.1443 8.0225C11.5947 8.65662 11.2798 9.51212 11.2661 10.4088C11.2524 11.3054 11.5409 12.1732 12.0708 12.8293C12.6333 13.4774 13.3958 13.8415 14.1908 13.8415C14.9858 13.8415 15.7483 13.4774 16.3108 12.8293C16.8726 12.1803 17.1882 11.3007 17.1882 10.3835C17.1882 9.46631 16.8726 8.58664 16.3108 7.93769Z" fill="#FF3776"/>
</svg>
