<svg width="20" height="24" viewBox="0 0 20 24" fill="none" xmlns="http://www.w3.org/2000/svg">
<path d="M19.8005 5.00002L20.0005 1.05002C20.0089 0.777828 19.9122 0.512846 19.7305 0.310019C19.6364 0.211296 19.5231 0.132867 19.3976 0.0795555C19.272 0.0262441 19.1369 -0.000822814 19.0005 1.90519e-05H1.0005C0.864117 -0.000822814 0.728998 0.0262441 0.603458 0.0795555C0.477919 0.132867 0.364611 0.211296 0.270505 0.310019C0.0887904 0.512846 -0.00789219 0.777828 0.000504511 1.05002L0.200504 5.05002L19.8005 5.00002Z" fill="#ECF0F1"/>
<path d="M0.3125 7.00002L1.1325 23.05C1.14534 23.3065 1.25634 23.5482 1.4425 23.725C1.62866 23.9019 1.87572 24.0003 2.1325 24H17.8825C18.1393 24.0003 18.3863 23.9019 18.5725 23.725C18.7587 23.5482 18.8697 23.3065 18.8825 23.05L19.7025 7.05002L0.3125 7.00002Z" fill="#ECF0F1"/>
<path d="M7.2108 8.67002C7.11784 8.57629 7.00723 8.5019 6.88538 8.45113C6.76352 8.40036 6.63281 8.37422 6.5008 8.37422C6.36879 8.37422 6.23808 8.40036 6.11622 8.45113C5.99436 8.5019 5.88376 8.57629 5.7908 8.67002L3.6708 10.79C3.57707 10.883 3.50268 10.9936 3.45191 11.1154C3.40114 11.2373 3.375 11.368 3.375 11.5C3.375 11.632 3.40114 11.7627 3.45191 11.8846C3.50268 12.0065 3.57707 12.1171 3.6708 12.21L5.7908 14.33C5.88376 14.4237 5.99436 14.4981 6.11622 14.5489C6.23808 14.5997 6.36879 14.6258 6.5008 14.6258C6.63281 14.6258 6.76352 14.5997 6.88538 14.5489C7.00723 14.4981 7.11784 14.4237 7.2108 14.33L9.3308 12.21C9.42453 12.1171 9.49892 12.0065 9.54969 11.8846C9.60046 11.7627 9.6266 11.632 9.6266 11.5C9.6266 11.368 9.60046 11.2373 9.54969 11.1154C9.49892 10.9936 9.42453 10.883 9.3308 10.79L7.2108 8.67002Z" fill="#99ABD5"/>
<path d="M15 15H12C11.4477 15 11 15.4477 11 16V19C11 19.5523 11.4477 20 12 20H15C15.5523 20 16 19.5523 16 19V16C16 15.4477 15.5523 15 15 15Z" fill="#99ABD5"/>
</svg>
