<svg xmlns="http://www.w3.org/2000/svg" width="34" height="32" viewBox="0 0 34 32" fill="none">
  <path d="M16.9958 26.6667C16.5269 26.6667 16.1272 26.5096 15.7966 26.1953C15.4661 25.8811 15.3008 25.5033 15.3008 25.062C15.3008 24.6207 15.4677 24.2445 15.8016 23.9334C16.1355 23.6223 16.5369 23.4667 17.0058 23.4667C17.4747 23.4667 17.8744 23.6238 18.2049 23.9381C18.5355 24.2523 18.7008 24.6301 18.7008 25.0714C18.7008 25.5127 18.5338 25.8889 18.1999 26.2C17.866 26.5112 17.4646 26.6667 16.9958 26.6667ZM16.9958 17.6C16.5269 17.6 16.1272 17.4429 15.7966 17.1286C15.4661 16.8144 15.3008 16.4366 15.3008 15.9953C15.3008 15.554 15.4677 15.1778 15.8016 14.8667C16.1355 14.5556 16.5369 14.4 17.0058 14.4C17.4747 14.4 17.8744 14.5572 18.2049 14.8714C18.5355 15.1857 18.7008 15.5635 18.7008 16.0048C18.7008 16.4461 18.5338 16.8223 18.1999 17.1334C17.866 17.4445 17.4646 17.6 16.9958 17.6ZM16.9958 8.53337C16.5269 8.53337 16.1272 8.37624 15.7966 8.06197C15.4661 7.74773 15.3008 7.36995 15.3008 6.92864C15.3008 6.48735 15.4677 6.11115 15.8016 5.80004C16.1355 5.48893 16.5369 5.33337 17.0058 5.33337C17.4747 5.33337 17.8744 5.49051 18.2049 5.80477C18.5355 6.11902 18.7008 6.4968 18.7008 6.93811C18.7008 7.3794 18.5338 7.7556 18.1999 8.06671C17.866 8.37782 17.4646 8.53337 16.9958 8.53337Z" fill="black"/>
</svg>