<svg xmlns="http://www.w3.org/2000/svg" width="16" height="16" viewBox="0 0 17 16" fill="none">
  <path d="M7.92625 12H9.20125V8.68H12.75V7.48H9.20125V4H7.92625V7.48H4.25V8.68H7.92625V12ZM8.50565 16C7.33359 16 6.23213 15.79 5.20128 15.37C4.17043 14.95 3.26896 14.3767 2.49688 13.65C1.72479 12.9233 1.11563 12.0744 0.669375 11.1032C0.223125 10.132 0 9.09425 0 7.99C0 6.88575 0.223125 5.84802 0.669375 4.87682C1.11563 3.90561 1.72479 3.06 2.49688 2.34C3.26896 1.62 4.17096 1.05 5.20287 0.63C6.23477 0.21 7.33736 0 8.51063 0C9.68389 0 10.7865 0.21 11.8184 0.63C12.8503 1.05 13.7488 1.62 14.5138 2.34C15.2788 3.06 15.8844 3.90667 16.3306 4.88C16.7769 5.85333 17 6.89156 17 7.99468C17 9.0978 16.7769 10.1345 16.3306 11.1047C15.8844 12.0749 15.2788 12.9221 14.5138 13.6463C13.7488 14.3705 12.8492 14.9439 11.815 15.3663C10.7808 15.7888 9.67772 16 8.50565 16ZM8.51063 14.8C10.5152 14.8 12.2188 14.1367 13.6213 12.81C15.0238 11.4833 15.725 9.87667 15.725 7.99C15.725 6.10333 15.0251 4.5 13.6252 3.18C12.2254 1.86 10.517 1.2 8.5 1.2C6.5025 1.2 4.79896 1.85875 3.38938 3.17624C1.97979 4.49375 1.275 6.10167 1.275 8C1.275 9.88 1.97979 11.4833 3.38938 12.81C4.79896 14.1367 6.50604 14.8 8.51063 14.8Z" fill="white"/>
</svg>