<svg width="24" height="24" viewBox="0 0 24 24" fill="none" xmlns="http://www.w3.org/2000/svg">
<path d="M20.8036 19.3819H18.2936L12.9236 13.1982C12.834 13.0774 12.7236 12.9793 12.5996 12.9101C12.4755 12.8408 12.3404 12.8019 12.2027 12.7958C12.0649 12.7896 11.9276 12.8164 11.7993 12.8744C11.671 12.9324 11.5544 13.0204 11.457 13.1328C11.3595 13.2453 11.2832 13.3797 11.233 13.5278C11.1827 13.6758 11.1595 13.8342 11.1648 13.9931C11.1701 14.152 11.2039 14.3079 11.2639 14.451C11.3239 14.5942 11.4089 14.7214 11.5136 14.8249L16.8036 20.9278V23.9966C16.8036 24.3026 16.909 24.596 17.0965 24.8124C17.284 25.0287 17.5384 25.1503 17.8036 25.1503C18.0688 25.1503 18.3232 25.0287 18.5107 24.8124C18.6982 24.596 18.8036 24.3026 18.8036 23.9966V21.6892H20.8036C21.0688 21.6892 21.3232 21.5677 21.5107 21.3513C21.6982 21.135 21.8036 20.8415 21.8036 20.5356C21.8036 20.2296 21.6982 19.9362 21.5107 19.7198C21.3232 19.5034 21.0688 19.3819 20.8036 19.3819Z" fill="#E6E7E9"/>
<path d="M13.2103 7.99537C12.5357 5.72984 11.4749 3.643 10.0903 1.85781C8.95294 0.635093 7.44856 -0.030562 5.89415 0.00107843C4.33975 0.0327189 2.85666 0.759184 1.75736 2.02743C0.658056 3.29567 0.0283605 5.00667 0.000934776 6.79995C-0.026491 8.59324 0.550494 10.3288 1.61033 11.641C3.16033 13.4407 7.19034 16.0019 10.2303 16.0019C10.7196 16.0376 11.21 15.9589 11.6723 15.7706C12.1345 15.5823 12.559 15.2881 12.9203 14.9059C14.0903 13.6138 14.1903 11.168 13.2103 7.99537Z" fill="#EF9B45"/>
</svg>
