<svg xmlns="http://www.w3.org/2000/svg" width="176" height="153" viewBox="0 0 176 153" fill="none">
  <path d="M148.41 151.66C156.309 143.578 162.675 133.927 167.022 123.203C171.215 112.858 173.529 101.515 173.529 89.6187C173.529 77.7224 171.215 66.3791 167.022 56.0343C162.675 45.3101 156.309 35.659 148.41 27.5771C140.51 19.4953 131.076 12.9827 120.593 8.53581C110.481 4.2462 99.3931 1.87866 87.7647 1.87866C76.1363 1.87866 65.0484 4.2462 54.9364 8.53581C44.4537 12.9827 35.0198 19.4953 27.1199 27.5771C19.22 35.659 12.8541 45.3101 8.50728 56.0343C4.31424 66.3791 2 77.7224 2 89.6187C2 101.515 4.31424 112.858 8.50728 123.203C12.8541 133.927 19.22 143.578 27.1199 151.66" stroke="#585CE5" stroke-width="3" stroke-dasharray="2 10"/>
</svg>