<svg width="27" height="27" viewBox="0 0 27 27" fill="none" xmlns="http://www.w3.org/2000/svg">
<path d="M6.03931 9.51012L7.00114 9.78376L7.00114 9.78376L6.03931 9.51012ZM11.8221 3.7363L11.5271 2.7808V2.7808L11.8221 3.7363ZM5.97655 9.73072L5.01471 9.45708L5.01471 9.45708L5.97655 9.73072ZM5.70577 15.1566L6.69 14.9796V14.9796L5.70577 15.1566ZM5.73728 15.3318L4.75306 15.5088L4.75306 15.5088L5.73728 15.3318ZM6.40302 21.2762L6.59349 20.2945H6.59349L6.40302 21.2762ZM6.91765 21.3761L6.72718 22.3578H6.72718L6.91765 21.3761ZM21.8831 21.3761L22.0736 22.3578L21.8831 21.3761ZM22.3978 21.2762L22.2073 20.2945L22.3978 21.2762ZM23.0695 15.2983L24.0538 15.4752L24.0538 15.4752L23.0695 15.2983ZM23.103 15.1124L22.1187 14.9354V14.9354L23.103 15.1124ZM22.8588 9.76832L21.8947 10.0339L21.8947 10.0339L22.8588 9.76832ZM22.7714 9.45113L23.7355 9.18554L23.7355 9.18554L22.7714 9.45113ZM17.1543 3.7445L17.4543 2.79058L17.1543 3.7445ZM23.2946 15.7344L22.8243 16.6169L23.2946 15.7344ZM5.53555 15.7189L5.99658 16.6063L5.53555 15.7189ZM15.4004 2C15.4004 1.44772 14.9527 1 14.4004 1C13.8481 1 13.4004 1.44772 13.4004 2H15.4004ZM13.4004 3.33965C13.4004 3.89194 13.8481 4.33965 14.4004 4.33965C14.9527 4.33965 15.4004 3.89194 15.4004 3.33965H13.4004ZM10.2131 21.8712L10.3196 20.8769L9.12449 20.7489L9.21604 21.9474L10.2131 21.8712ZM18.5876 21.8712L19.5847 21.9474L19.6763 20.7489L18.4812 20.8769L18.5876 21.8712ZM18.4606 22.6363L19.4288 22.8863L18.4606 22.6363ZM18.3458 23.0808L17.3776 22.8308L18.3458 23.0808ZM15.3858 25.8893L15.608 26.8643H15.608L15.3858 25.8893ZM13.415 25.8893L13.1928 26.8643L13.415 25.8893ZM10.4549 23.0808L11.4232 22.8308L10.4549 23.0808ZM10.3402 22.6363L9.37194 22.8863L10.3402 22.6363ZM7.00114 9.78376C7.67936 7.39984 9.61 5.46579 12.1171 4.6918L11.5271 2.7808C8.41081 3.74286 5.95136 6.16479 5.07747 9.23648L7.00114 9.78376ZM6.93838 10.0044L7.00114 9.78376L5.07747 9.23648L5.01471 9.45708L6.93838 10.0044ZM6.69 14.9796C6.39235 13.324 6.47698 11.6262 6.93838 10.0044L5.01471 9.45708C4.4701 11.3714 4.36989 13.3774 4.72155 15.3335L6.69 14.9796ZM6.7215 15.1549L6.69 14.9796L4.72155 15.3335L4.75306 15.5088L6.7215 15.1549ZM4.90039 18.3472C4.90039 17.6161 5.3256 16.9549 5.99658 16.6063L5.07452 14.8315C3.79761 15.4949 2.90039 16.8082 2.90039 18.3472H4.90039ZM6.59349 20.2945C5.57755 20.0974 4.90039 19.2601 4.90039 18.3472H2.90039C2.90039 20.2775 4.31636 21.89 6.21255 22.2579L6.59349 20.2945ZM7.10812 20.3944L6.59349 20.2945L6.21255 22.2579L6.72718 22.3578L7.10812 20.3944ZM21.6927 20.3944C16.8802 21.3281 11.9206 21.3281 7.10812 20.3944L6.72718 22.3578C11.7912 23.3403 17.0095 23.3403 22.0736 22.3578L21.6927 20.3944ZM22.2073 20.2945L21.6927 20.3944L22.0736 22.3578L22.5882 22.2579L22.2073 20.2945ZM23.9004 18.3472C23.9004 19.2601 23.2232 20.0974 22.2073 20.2945L22.5882 22.2579C24.4844 21.89 25.9004 20.2775 25.9004 18.3472H23.9004ZM22.8243 16.6169C23.4838 16.9683 23.9004 17.6233 23.9004 18.3472H25.9004C25.9004 16.8238 25.0211 15.5213 23.7649 14.8519L22.8243 16.6169ZM22.1187 14.9354L22.0853 15.1213L24.0538 15.4752L24.0872 15.2893L22.1187 14.9354ZM21.8947 10.0339C22.3355 11.6341 22.4118 13.3053 22.1187 14.9354L24.0872 15.2893C24.4332 13.3644 24.343 11.3907 23.8229 9.50274L21.8947 10.0339ZM21.8073 9.71672L21.8947 10.0339L23.8229 9.50274L23.7355 9.18554L21.8073 9.71672ZM16.8542 4.69843C19.3069 5.46989 21.1605 7.36858 21.8073 9.71672L23.7355 9.18554C22.9003 6.15366 20.5253 3.75651 17.4543 2.79058L16.8542 4.69843ZM12.1171 4.6918C13.6535 4.2175 15.325 4.21743 16.8542 4.69843L17.4543 2.79058C15.5336 2.18643 13.4469 2.18812 11.5271 2.7808L12.1171 4.6918ZM23.7649 14.8519C23.9408 14.9456 24.1077 15.1751 24.0538 15.4752L22.0853 15.1213C21.9684 15.7718 22.3238 16.3501 22.8243 16.6169L23.7649 14.8519ZM4.75306 15.5088C4.69548 15.1885 4.87391 14.9358 5.07452 14.8315L5.99658 16.6063C6.48821 16.3509 6.83523 15.7875 6.7215 15.1549L4.75306 15.5088ZM13.4004 2V3.33965H15.4004V2H13.4004ZM10.1067 22.8655C12.9602 23.171 15.8405 23.171 18.6941 22.8655L18.4812 20.8769C15.7692 21.1673 13.0316 21.1673 10.3196 20.8769L10.1067 22.8655ZM19.4288 22.8863C19.5084 22.578 19.5606 22.2639 19.5847 21.9474L17.5906 21.795C17.5753 21.9941 17.5426 22.1918 17.4923 22.3863L19.4288 22.8863ZM19.3141 23.3307L19.4288 22.8863L17.4923 22.3863L17.3776 22.8308L19.3141 23.3307ZM15.608 26.8643C17.4126 26.4532 18.8564 25.1033 19.3141 23.3307L17.3776 22.8308C17.1162 23.8433 16.2755 24.661 15.1637 24.9143L15.608 26.8643ZM13.1928 26.8643C13.9869 27.0452 14.8138 27.0452 15.608 26.8643L15.1637 24.9143C14.662 25.0286 14.1388 25.0286 13.6371 24.9143L13.1928 26.8643ZM9.48669 23.3307C9.94435 25.1033 11.3881 26.4532 13.1928 26.8643L13.6371 24.9143C12.5252 24.661 11.6846 23.8433 11.4232 22.8308L9.48669 23.3307ZM9.37194 22.8863L9.48669 23.3307L11.4232 22.8308L11.3084 22.3863L9.37194 22.8863ZM9.21604 21.9474C9.24022 22.2639 9.29236 22.5781 9.37194 22.8863L11.3084 22.3863C11.2582 22.1918 11.2254 21.9941 11.2102 21.795L9.21604 21.9474Z" fill="#585CE5"/>
</svg>
