<svg width="27" height="30" viewBox="0 0 27 30" fill="none" xmlns="http://www.w3.org/2000/svg">
<path fill-rule="evenodd" clip-rule="evenodd" d="M4.99304 14.2893C4.99304 9.18934 8.61769 5.05498 13.0889 5.05498C17.5602 5.05498 21.1848 9.18934 21.1848 14.2893C21.1848 19.3893 17.5602 23.5237 13.0889 23.5237C8.61769 23.5237 4.99304 19.3893 4.99304 14.2893ZM13.0889 3C7.62268 3 3.19141 8.0544 3.19141 14.2893C3.19141 20.5243 7.62268 25.5787 13.0889 25.5787C15.3786 25.5787 17.4866 24.6919 19.1635 23.203L22.2374 26.7C22.5896 27.1007 23.16 27.0999 23.5113 26.6981C23.8626 26.2963 23.8619 25.6458 23.5096 25.245L20.4799 21.7982C22.039 19.803 22.9865 17.1723 22.9865 14.2893C22.9865 8.0544 18.5552 3 13.0889 3Z" fill="#585CE5"/>
</svg>
